<?xml version="1.0" encoding="UTF-8" standalone="no"?>
<svg width="81px" height="82px" viewBox="0 0 81 82" version="1.1" xmlns="http://www.w3.org/2000/svg" xmlns:xlink="http://www.w3.org/1999/xlink">
    <!-- Generator: sketchtool 39.1 (31720) - http://www.bohemiancoding.com/sketch -->
    <title>E1161937-E3B1-4243-A538-63C27BF41D44</title>
    <desc>Created with sketchtool.</desc>
    <defs>
        <linearGradient x1="37.3988765%" y1="55.3578136%" x2="87.2023771%" y2="28.0304598%" id="linearGradient-1">
            <stop stop-color="#FFFFFF" offset="0%"></stop>
            <stop stop-color="#D0DBE3" offset="100%"></stop>
        </linearGradient>
        <linearGradient x1="51.6375778%" y1="44.9686295%" x2="20.9641827%" y2="91.2670037%" id="linearGradient-2">
            <stop stop-color="#FFFFFF" offset="0%"></stop>
            <stop stop-color="#D0DBE3" offset="100%"></stop>
        </linearGradient>
        <linearGradient x1="46.5364199%" y1="60.3952182%" x2="25.3541564%" y2="9.42761128%" id="linearGradient-3">
            <stop stop-color="#FFFFFF" offset="0%"></stop>
            <stop stop-color="#D0DBE3" offset="100%"></stop>
        </linearGradient>
    </defs>
    <g id="1440" stroke="none" stroke-width="1" fill="none" fill-rule="evenodd">
        <g id="1" transform="translate(-684.000000, -176.000000)">
            <g id="header" transform="translate(336.000000, 176.000000)">
                <g id="top">
                    <g id="logo" transform="translate(348.000000, 0.000000)">
                        <g id="logo-vkmix">
                            <path d="M60.0692266,24.520624 C59.9830507,24.06864 59.8890405,23.61928 59.7871962,23.172544 C57.739211,14.15976 52.7037919,6.292352 45.7849054,0.680272 C44.0339662,0.445424 42.2464675,0.324064 40.4315492,0.324064 C39.2701321,0.324064 38.1204662,0.37392 36.9845101,0.47232 C16.359726,2.2304 0.165823473,19.631456 0.165823473,40.836656 C0.165823473,44.587664 0.673086616,48.219936 1.62167522,51.667216 C3.91774276,39.24192 11.8498498,28.809552 22.6505724,23.158768 C23.2910166,22.822896 23.9399478,22.505392 24.6006303,22.203632 C24.8957178,22.068496 25.1927638,21.937952 25.4911154,21.810688 C25.5048253,21.80544 25.5178822,21.79888 25.531592,21.792976 C25.6334364,21.745744 25.7359336,21.70376 25.841695,21.663744 C26.4860563,21.4184 27.1832983,21.284576 27.9125299,21.284576 C30.2366699,21.284576 32.2467898,22.647088 33.1979898,24.622304 C33.3070155,24.847968 33.4023314,25.08216 33.4826317,25.322256 L41.2130086,44.367248 L48.9740695,25.31176 L48.9753752,25.307824 C49.0543698,25.072976 49.14838,24.843376 49.2547942,24.622304 C50.2066471,22.647088 52.2167671,21.284576 54.5402542,21.284576 C55.1604601,21.284576 55.7584692,21.381664 56.3205716,21.561408 C56.64569,21.69392 56.96885,21.831024 57.2887456,21.971408 C57.6354081,22.1564 57.9611794,22.374848 58.2621425,22.624128 C58.5134891,22.862912 58.7602658,23.106944 59.0031253,23.354256 C59.7003673,24.1736 60.179558,25.189088 60.3486457,26.306256 L60.3675783,26.303632 C60.282708,25.704048 60.1828222,25.110368 60.0692266,24.520624 L60.0692266,24.520624 Z" id="Shape" fill="url(#linearGradient-1)"></path>
                            <path d="M37.6915448,64.673072 C38.6714701,65.412384 39.8870737,65.849936 41.2058273,65.849936 C42.2784571,65.849936 43.2831907,65.559984 44.1488675,65.053552 C44.555592,64.817392 44.930327,64.531376 45.2685024,64.207312 C45.8913197,63.604448 46.3842202,62.865136 46.6956288,62.036608 L59.7806677,29.893264 C60.1886979,29.087696 60.4185005,28.174544 60.4185005,27.208256 C60.4185005,26.901904 60.3956508,26.6008 60.3512571,26.3056 L60.3701897,26.302976 C60.2840137,25.704048 60.1834751,25.110368 60.0705323,24.520624 C59.9843563,24.06864 59.8903462,23.61928 59.7885019,23.172544 C57.7405167,14.15976 52.7050976,6.292352 45.7862111,0.680272 C65.4924376,3.3128 80.6979278,20.288768 80.6979278,40.836656 C80.6979278,43.383904 80.4642081,45.876048 80.017007,48.292752 C78.1988244,58.13144 72.8441625,66.721104 65.3311841,72.677584 C64.195228,72.774672 63.0468678,72.824528 61.8854507,72.824528 C54.300006,72.824528 47.2061562,70.714176 41.1490295,67.044512 C40.4765957,66.638448 39.8172189,66.212048 39.1722048,65.767936 C38.6662474,65.4196 38.1694298,65.060768 37.6817521,64.688816 L37.6915448,64.673072 L37.6915448,64.673072 Z" id="Shape" fill="url(#linearGradient-2)"></path>
                            <path d="M61.884145,72.823872 C54.2987003,72.823872 47.2048505,70.71352 41.1477238,67.043856 C40.4759429,66.637792 39.8159132,66.211392 39.1708991,65.76728 C38.6649417,65.418944 38.1681241,65.060112 37.6804464,64.68816 L37.6915448,64.673072 C36.8265208,64.020352 36.1462528,63.134752 35.7434454,62.1068 L35.7271242,62.066128 L22.6473082,29.832912 C22.2582106,29.042432 22.0401592,28.150272 22.0401592,27.208256 C22.0401592,24.80664 23.4568401,22.739584 25.4924211,21.810032 C25.1940695,21.937952 24.8963706,22.06784 24.601936,22.202976 C23.9412535,22.50408 23.2916695,22.82224 22.6512253,23.158112 C11.8511555,28.808896 3.91839561,39.241264 1.62232807,51.66656 C3.89685161,59.940032 8.7174836,67.150784 15.1800291,72.393536 C22.0858586,77.994464 30.8705856,81.348592 40.4322021,81.348592 C49.8312593,81.348592 58.4788881,78.107952 65.3298784,72.676928 C64.1939223,72.774016 63.0455621,72.823872 61.884145,72.823872 L61.884145,72.823872 Z" id="Shape" fill="url(#linearGradient-3)"></path>
                        </g>
                    </g>
                </g>
            </g>
        </g>
    </g>
</svg>