<svg xmlns="http://www.w3.org/2000/svg" style="width:0; height:0; visibility:hidden;">
    <symbol id="icon_back" viewBox="0 0 22 19">
       <!-- Generator: Sketch 3.7.2 (28276) - http://www.bohemiancoding.com/sketch --> <title>&#x44B;</title> <desc>Created with Sketch.</desc>  <g stroke="none" stroke-width="1" style="fill:currentColor"> <g transform="translate(-400.000000, -468.000000)"> <g transform="translate(400.000000, 468.000000)"> <path d="M2.86755698,9.51755698 C2.86834435,9.50485337 2.86929864,9.49219446 2.87041763,9.47958237 L2.85,9.5 L2.86755698,9.51755698 Z M4.17218673,8.17781327 C4.21350781,8.17416848 4.25529913,8.17230769 4.29748044,8.17230769 L20.2873196,8.17230769 C21.0785671,8.17230769 21.72,8.80901471 21.72,9.60676923 C21.72,10.3990005 21.0709613,11.0412308 20.2873196,11.0412308 L4.39123077,11.0412308 L10.33125,16.98125 C10.80625,17.45625 10.80625,18.16875 10.33125,18.64375 C9.85625,19.11875 9.14375,19.11875 8.66875,18.64375 L0.35625,10.33125 C-0.11875,9.85625 -0.11875,9.14375 0.35625,8.66875 L8.66875,0.35625 C8.90625,0.11875 9.2625,0 9.5,0 C9.7375,0 10.09375,0.11875 10.33125,0.35625 C10.80625,0.83125 10.80625,1.54375 10.33125,2.01875 L4.17218673,8.17781327 Z" id="&#x44B;"/> </g> </g> </g> 
    </symbol>
    <symbol id="icon_behance" viewBox="0 0 22 14">
       <!-- Generator: sketchtool 39.1 (31720) - http://www.bohemiancoding.com/sketch --> <title>555D590C-F49F-4BD2-8F98-FF8B53C23345</title> <desc>Created with sketchtool.</desc>  <g id="1440" stroke="none" stroke-width="1" fill="none" fill-rule="evenodd"> <g id="Presentation-1440" transform="translate(-1389.000000, -93.000000)" style="fill:currentColor"> <g id="buttons-top" transform="translate(17.000000, 16.000000)"> <g id="behance" transform="translate(1383.000000, 53.500000) scale(-1, 1) translate(-1383.000000, -53.500000) translate(1360.000000, 0.000000)"> <g transform="translate(0.000000, 61.000000)" id="Behance"> <path d="M26.0578936,18.2944313 L31.8838736,18.2944313 L31.8838736,16.62529 L26.0578936,16.62529 L26.0578936,18.2944313 L26.0578936,18.2944313 L26.0578936,18.2944313 Z M27.4380714,21.9364268 C27.0668333,22.3141531 26.8327075,22.8258698 26.7369873,23.4715776 L31.2681618,23.4715776 C31.2203018,22.7824826 30.9848825,22.2618329 30.5683712,21.9032481 C30.1466862,21.5472156 29.6279876,21.3698374 29.0071018,21.3698374 C28.3344751,21.3698374 27.8093095,21.5587006 27.4380714,21.9364268 L27.4380714,21.9364268 L27.4380714,21.9364268 L27.4380714,21.9364268 Z M31.3703491,19.6955916 C32.0727266,20.0044084 32.6509265,20.4944313 33.106243,21.1631089 C33.5214605,21.7526681 33.787924,22.4366587 33.9095139,23.213805 C33.9806573,23.6680972 34.0091143,24.3265659 33.9974731,25.1828307 L26.6723119,25.1828307 C26.7162913,26.176914 27.0629526,26.8749419 27.725231,27.274362 C28.1262199,27.5232017 28.6087001,27.6482597 29.1752583,27.6482597 C29.7715679,27.6482597 30.2592217,27.4964038 30.6330471,27.1939675 C30.8387154,27.0293503 31.0198071,26.8022039 31.1750285,26.511253 L33.859067,26.511253 C33.787924,27.0982598 33.4619588,27.6967519 32.8850523,28.3041765 C31.9847674,29.2676335 30.7235931,29.7499999 29.1028219,29.7499999 C27.7640362,29.7499999 26.5830593,29.3441994 25.5624784,28.5300463 C24.5367229,27.7171692 24.0270787,26.3925754 24.0270787,24.5600927 C24.0270787,22.8411832 24.4888628,21.5229698 25.4111372,20.6054525 C26.3359988,19.6904872 27.5324977,19.2298145 29.0058084,19.2298145 C29.8815161,19.2298145 30.6692655,19.3854989 31.3703491,19.6955916 L31.3703491,19.6955916 L31.3703491,19.6955916 L31.3703491,19.6955916 Z M14.7099087,23.5073084 L14.7099087,27.0842228 L18.0109523,27.0842228 C18.6007943,27.0842228 19.0612845,27.0051044 19.3885432,26.8481436 C19.9848523,26.5546402 20.2823601,25.9982598 20.2823601,25.1738978 C20.2823601,24.4745938 19.9952006,23.9960558 19.4170002,23.7344547 C19.0936222,23.5889793 18.6395995,23.5124128 18.0575189,23.5073084 L14.7099087,23.5073084 L14.7099087,23.5073084 L14.7099087,23.5073084 Z M14.7099087,18.3288861 L14.7099087,21.288167 L18.0161264,21.288167 C18.6046745,21.288167 19.0845678,21.1771463 19.4545125,20.9551044 C19.8218699,20.7330626 20.0068422,20.3400234 20.0068422,19.7785385 C20.0068422,19.1519721 19.763662,18.7397911 19.2773011,18.538167 C18.8556161,18.399072 18.3201018,18.3288861 17.6694651,18.3288861 L14.7099087,18.3288861 L14.7099087,18.3288861 L14.7099087,18.3288861 Z M22.0932778,17.4292341 C22.5084952,17.999652 22.7167509,18.6810905 22.7167509,19.4761022 C22.7167509,20.2940837 22.5084952,20.9538284 22.0881036,21.4515083 C21.8526844,21.7296983 21.5073165,21.9849189 21.0507065,22.2146173 C21.7440296,22.464733 22.2666084,22.8590486 22.6223241,23.3988397 C22.9741596,23.9373548 23.151371,24.5932715 23.151371,25.3640369 C23.151371,26.1590486 22.9495828,26.8723899 22.5447136,27.5027843 C22.2885983,27.9200697 21.9678072,28.2722737 21.5823401,28.5581206 C21.1490135,28.8860787 20.6380763,29.1093966 20.0469409,29.2319027 C19.4558059,29.3531323 18.8168109,29.4118329 18.1260751,29.4118329 L12,29.4118329 L12,16 L18.56975,16 C20.228033,16.0242458 21.4012485,16.5002319 22.0932778,17.4292341 L22.0932778,17.4292341 L22.0932778,17.4292341 L22.0932778,17.4292341 Z" transform="translate(23.000000, 22.875000) scale(-1, 1) translate(-23.000000, -22.875000) "/> </g> </g> </g> </g> </g> 
    </symbol>
    <symbol id="icon_chevron-left" viewBox="0 0 17 30">
       <g id="Presentation" stroke="none" style="fill:currentColor;"> <g id="Artboard-6" transform="translate(-423.000000, -325.000000)" stroke-width="1.08823529"> <path d="M424.327717,353.407161 C424.764674,353.842541 425.472283,353.842541 425.905978,353.407161 L438.672283,340.655369 C439.109239,340.219989 439.109239,339.513706 438.672283,339.078327 L425.905978,326.326535 C425.472283,325.891155 424.764674,325.891155 424.327717,326.326535 C423.890761,326.761915 423.890761,327.468198 424.327717,327.903577 L435.969022,339.86846 L424.327717,351.830118 C423.890761,352.265498 423.890761,352.971781 424.327717,353.407161 Z" id="Path" transform="translate(431.500000, 339.866848) scale(-1, 1) translate(-431.500000, -339.866848) "/> </g> </g> 
    </symbol>
    <symbol id="icon_chevron-right" viewBox="0 0 17 30">
       <g id="Presentation" stroke="none" stroke-width="1"> <g id="Artboard-6" transform="translate(-423.000000, -325.000000)" stroke-width="1.08823529" style="fill:currentColor; stroke:currentColor"> <path d="M424.327717,353.407161 C424.764674,353.842541 425.472283,353.842541 425.905978,353.407161 L438.672283,340.655369 C439.109239,340.219989 439.109239,339.513706 438.672283,339.078327 L425.905978,326.326535 C425.472283,325.891155 424.764674,325.891155 424.327717,326.326535 C423.890761,326.761915 423.890761,327.468198 424.327717,327.903577 L435.969022,339.86846 L424.327717,351.830118 C423.890761,352.265498 423.890761,352.971781 424.327717,353.407161 Z" id="Path" transform="translate(431.500000, 339.866848) scale(1, 1) translate(-431.500000, -339.866848) "/> </g> </g> 
    </symbol>
    <symbol id="icon_facebook" viewBox="0 0 15 26">
       <!-- Generator: sketchtool 39.1 (31720) - http://www.bohemiancoding.com/sketch --> <title>8B0F7265-AC4C-4BF9-830F-8D836DC4CB54</title> <desc>Created with sketchtool.</desc>  <g id="1440" stroke="none" stroke-width="1" fill="none" fill-rule="evenodd"> <g id="Presentation-1440" transform="translate(-238.000000, -31118.000000)" style="fill:currentColor"> <g id="Footer-+-Share" transform="translate(-1.000000, 27966.000000)"> <g id="social" transform="translate(208.000000, 3125.000000)"> <g id="Facebook" transform="translate(1.000000, 0.000000)"> <g id="active"> <path d="M44.238125,31.7834521 L40.2365415,31.7834521 C39.7654409,31.7834521 39.2389168,32.4041964 39.2389168,33.2355503 L39.2389168,36.1231196 L44.238125,36.1231196 L44.238125,40.2410926 L39.2389168,40.2410926 L39.2389168,52.6005542 L34.5168265,52.6005542 L34.5168265,40.2410926 L30.238125,40.2410926 L30.238125,36.1231196 L34.5168265,36.1231196 L34.5168265,33.7011085 C34.5168265,30.2260491 36.9277529,27.3994458 40.2365415,27.3994458 L44.238125,27.3994458 L44.238125,31.7834521 L44.238125,31.7834521 Z" id="Path"/> </g> </g> </g> </g> </g> </g> 
    </symbol>
    <symbol id="icon_google-plus" viewBox="0 0 26 27">
       <!-- Generator: sketchtool 39.1 (31720) - http://www.bohemiancoding.com/sketch --> <title>A490F7B4-8DF2-4A9C-9A83-E40345163A12</title> <desc>Created with sketchtool.</desc>  <g id="1440" stroke="none" stroke-width="1" fill="none" fill-rule="evenodd"> <g id="Presentation-1440" transform="translate(-758.000000, -31118.000000)" style="fill:currentColor"> <g id="Footer-+-Share" transform="translate(-1.000000, 27966.000000)"> <g id="social" transform="translate(208.000000, 3125.000000)"> <g id="g+" transform="translate(521.000000, 0.000000)"> <g id="normal" transform="translate(30.000000, 27.000000)"> <path d="M21.6478072,10.5013983 L21.6478072,6.14920545 L18.8914184,6.14920545 L18.8914184,10.5013983 L14.5392255,10.5013983 L14.5392255,13.2577871 L18.8914184,13.2577871 L18.8914184,17.6099799 L21.6478072,17.6099799 L21.6478072,13.2577871 L26,13.2577871 L26,10.5013983 L21.6478072,10.5013983 L21.6478072,10.5013983 Z M10.4046423,5.48767213 C11.0603727,7.78853141 10.0709742,10.1967448 8.49548042,10.6406685 C8.31558978,10.6899933 8.12989622,10.7161065 7.93839973,10.7161065 C6.49637317,10.7161065 5.06595246,9.25667113 4.5378864,7.24595804 C4.24193728,6.11728937 4.26514898,5.12789086 4.60462002,4.17911282 C4.93828814,3.24484209 5.53889075,2.61522486 6.29327084,2.40341815 C6.47316148,2.35119183 6.6617565,2.32507867 6.85035152,2.32507867 C8.59122866,2.32507867 9.71119295,3.04754268 10.4046423,5.48767213 L10.4046423,5.48767213 Z M12.1484209,19.9572626 C12.2760853,21.9998918 10.5294052,23.502849 7.90938511,23.6943455 C5.24874456,23.8887434 3.05523937,22.6904397 2.92757505,20.6536134 C2.86664435,19.6729193 3.29606071,18.7125354 4.14038612,17.949451 C4.99631738,17.1747606 6.16850798,16.6989209 7.44515121,16.6031726 C7.59602723,16.5944683 7.74690325,16.5886653 7.8948778,16.5886653 C10.3582189,16.5886653 12.0265595,18.0364948 12.1484209,19.9572626 L12.1484209,19.9572626 Z M1.3781944,6.8832753 C1.3781944,9.05066734 2.10065841,10.6145553 3.52817766,11.5343187 C4.6974668,12.2857973 6.0524495,12.3989544 6.75750474,12.3989544 C6.92869099,12.3989544 7.0650597,12.3931514 7.16080795,12.384447 C7.16080795,12.384447 6.93739538,13.8409809 8.0167392,15.2830075 L7.96741435,15.280106 C6.09887289,15.280106 0,15.6718034 0,20.6855295 C0,25.789201 5.59982145,26.0474311 6.72558866,26.0474311 C6.81263252,26.0474311 6.86485883,26.0445296 6.86485883,26.0445296 C6.87646468,26.0474311 6.95770561,26.0503326 7.09407432,26.0503326 C7.81653833,26.0503326 9.67927687,25.9574858 11.4114496,25.1160618 C13.6571811,24.0280136 14.7974556,22.1304575 14.7974556,19.4814228 C14.7974556,16.919432 13.05948,15.3961645 11.7944426,14.2820031 C11.0197523,13.603061 10.352416,13.0169657 10.352416,12.4482792 C10.352416,11.8679868 10.8398616,11.4327675 11.457873,10.8785883 C12.4559759,9.98493806 13.398951,8.7111963 13.398951,6.30588439 C13.398951,4.19362013 13.1233121,2.77480527 11.4346613,1.87245062 C11.6116505,1.7825053 12.2325633,1.71867314 12.5430198,1.67515121 C13.4569802,1.55038835 14.7974556,1.40821672 14.7974556,0.659639549 L14.7974556,0.517467917 L8.12409329,0.517467917 C8.05735967,0.517467917 1.3781944,0.766993639 1.3781944,6.8832753 L1.3781944,6.8832753 Z" id="Fill-199"/> </g> </g> </g> </g> </g> </g> 
    </symbol>
    <symbol id="icon_like" viewBox="0 0 22 24">
       <g id="Presentation" stroke="none" stroke-width="1" style="fill:currentColor"> <g id="Artboard-6" transform="translate(-435.000000, -395.000000)"> <path d="M456.298359,408.321044 C456.76632,407.614236 457,406.83619 457,405.986354 C457,405.002723 456.637541,404.148372 455.91202,403.421949 C455.186148,402.696278 454.326681,402.333517 453.333718,402.333517 L450.812757,402.333517 C451.270986,401.388264 451.500502,400.471455 451.500502,399.583542 C451.500502,398.466265 451.332943,397.578302 450.999029,396.919404 C450.664763,396.260305 450.177688,395.775838 449.537854,395.465353 C448.897868,395.155017 448.177164,395 447.375088,395 C446.887862,395 446.458329,395.176639 446.085937,395.530069 C445.675417,395.931056 445.379379,396.446827 445.198024,397.07708 C445.016569,397.707132 444.870883,398.311197 444.761167,398.888925 C444.651451,399.466602 444.481785,399.874814 444.25272,400.113511 C443.784709,400.619599 443.273905,401.230889 442.720057,401.946978 C441.755639,403.197751 441.101457,403.93787 440.75786,404.167135 L436.833367,404.167135 C436.327278,404.167135 435.895137,404.346433 435.537042,404.704227 C435.179098,405.062372 435,405.494463 435,406.000602 L435,415.167336 C435,415.673474 435.178897,416.105415 435.537042,416.46356 C435.895337,416.821705 436.327278,417.000903 436.833367,417.000903 L440.958179,417.000903 C441.16828,417.000903 441.827027,417.19184 442.934723,417.573814 C444.109292,417.984485 445.142941,418.297128 446.035669,418.512045 C446.928498,418.726962 447.833266,418.83447 448.750025,418.83447 L450.081718,418.83447 L450.597639,418.83447 C451.943931,418.83447 453.027647,418.449887 453.848937,417.681122 C454.669926,416.912358 455.075931,415.864411 455.066499,414.537133 C455.639411,413.80183 455.925816,412.951994 455.925816,411.987677 C455.925816,411.777727 455.911719,411.572442 455.882923,411.371722 C456.245633,410.732188 456.42744,410.044644 456.42744,409.309341 C456.427289,408.965544 456.384396,408.635944 456.298359,408.321044 L456.298359,408.321044 Z M438.394626,414.895378 C438.21322,415.076683 437.998404,415.167687 437.750125,415.167687 C437.501797,415.167687 437.28693,415.076733 437.105475,414.895378 C436.92412,414.714123 436.833367,414.499206 436.833367,414.250727 C436.833367,414.002499 436.923919,413.787733 437.105475,413.606227 C437.287131,413.424772 437.501797,413.334069 437.750125,413.334069 C437.998404,413.334069 438.21322,413.424772 438.394626,413.606227 C438.576081,413.787683 438.666834,414.002449 438.666834,414.250727 C438.666834,414.499206 438.576081,414.714123 438.394626,414.895378 L438.394626,414.895378 Z M454.859358,407.161525 C454.654023,407.60069 454.398521,407.825089 454.093001,407.834521 C454.236179,407.996912 454.355627,408.22392 454.451146,408.514891 C454.546564,408.806213 454.593973,409.071096 454.593973,409.309943 C454.593973,409.96849 454.34128,410.536786 453.835141,411.014079 C454.007215,411.319498 454.093051,411.649097 454.093051,412.002226 C454.093051,412.355554 454.009623,412.706475 453.842415,413.054938 C453.675508,413.403099 453.448551,413.653836 453.162196,413.806545 C453.209905,414.092951 453.233584,414.360393 453.233584,414.608621 C453.233584,416.203192 452.316825,417.000502 450.483258,417.000502 L448.750677,417.000502 C447.499503,417.000502 445.866906,416.65219 443.851933,415.954963 C443.804124,415.9359 443.665862,415.885582 443.436547,415.804562 C443.207232,415.723541 443.037817,415.663792 442.927951,415.625715 C442.818084,415.587237 442.651127,415.532353 442.426578,415.460915 C442.202079,415.389126 442.020874,415.33655 441.882312,415.303289 C441.74395,415.269978 441.586274,415.238924 441.409785,415.210229 C441.233196,415.181583 441.082744,415.167336 440.95863,415.167336 L440.500301,415.167336 L440.500301,406.000953 L440.95863,406.000953 C441.11139,406.000953 441.280855,405.957859 441.467077,405.872123 C441.653248,405.786136 441.844335,405.657256 442.040038,405.485333 C442.235841,405.313409 442.419504,405.143944 442.591478,404.976736 C442.763402,404.809679 442.954339,404.599628 443.16449,404.346684 C443.374541,404.093539 443.53924,403.890713 443.658689,403.737903 C443.777987,403.585143 443.928338,403.38929 444.109794,403.150593 C444.291149,402.911947 444.401065,402.768669 444.439243,402.72086 C444.964345,402.071644 445.331971,401.637194 445.542022,401.417461 C445.933528,401.006992 446.217576,400.484197 446.394215,399.849179 C446.571055,399.21406 446.716641,398.61486 446.830822,398.051581 C446.945304,397.488252 447.12696,397.082297 447.375539,396.834019 C448.291997,396.834019 448.903286,397.058317 449.208756,397.507165 C449.514175,397.955912 449.666984,398.648272 449.666984,399.584044 C449.666984,400.147374 449.437619,400.91363 448.97919,401.882763 C448.520961,402.851997 448.291997,403.613538 448.291997,404.167336 L453.333567,404.167336 C453.811512,404.167336 454.236229,404.351048 454.608471,404.718876 C454.981014,405.086452 455.167486,405.513677 455.167486,406.000803 C455.167336,406.334968 455.064643,406.721758 454.859358,407.161525 L454.859358,407.161525 Z" id="like" transform="translate(446.000000, 406.917235) scale(-1, 1) translate(-446.000000, -406.917235) "/> </g> </g> 
    </symbol>
    <symbol id="icon_twitter" viewBox="0 0 31 26">
       <!-- Generator: sketchtool 39.1 (31720) - http://www.bohemiancoding.com/sketch --> <title>33CA554F-A125-46FC-B8CF-67E4F0B58445</title> <desc>Created with sketchtool.</desc>  <g id="1440" stroke="none" stroke-width="1" fill="none" fill-rule="evenodd"> <g id="Presentation-1440" transform="translate(-496.000000, -31118.000000)" style="fill:currentColor"> <g id="Footer-+-Share" transform="translate(-1.000000, 27966.000000)"> <g id="social" transform="translate(208.000000, 3125.000000)"> <g id="Twitter" transform="translate(260.000000, 0.000000)"> <g id="active"> <path d="M56.6354425,33.6277185 C56.6484633,33.8947412 56.6549737,34.1684394 56.6549737,34.4421377 C56.6549737,42.7799214 50.4635675,52.3994141 39.1419529,52.3994141 C35.6653904,52.3994141 32.4297133,51.35135 29.7083591,49.5622979 C30.1836196,49.622378 30.6784112,49.6490803 31.1732029,49.6490803 C34.0573175,49.6490803 36.7135675,48.6410696 38.8164321,46.952151 C36.12763,46.8987465 33.8489841,45.0763166 33.0677341,42.5663032 C33.4453383,42.6397345 33.8294529,42.6797879 34.2265883,42.6797879 C34.7864841,42.6797879 35.3333591,42.6063567 35.8476821,42.4594942 C33.0351821,41.8787198 30.9127862,39.328653 30.9127862,36.2712432 L30.9127862,36.1911364 C31.7396091,36.6651016 32.69013,36.9454755 33.6992446,36.9788533 C32.0455987,35.8506824 30.9583591,33.9214434 30.9583591,31.7251818 C30.9583591,30.5703086 31.2643487,29.4888667 31.7916925,28.5542872 C34.8320571,32.3727118 39.3633071,34.8894007 44.4804946,35.1497478 C44.3763279,34.6891337 44.3242446,34.2084928 44.3242446,33.7145008 C44.3242446,30.2231791 47.0781508,27.3994141 50.4765883,27.3994141 C52.2474216,27.3994141 53.8424737,28.1671043 54.9687758,29.3954087 C56.3685154,29.1083593 57.69013,28.5876651 58.8750258,27.8600282 C58.4192966,29.3353286 57.4427341,30.5703086 56.1732029,31.35135 C57.4166925,31.2044875 58.6015883,30.8640336 59.7083591,30.363366 C58.8815362,31.6250482 57.8398696,32.739868 56.6354425,33.6277185 L56.6354425,33.6277185 Z" id="Path"/> </g> </g> </g> </g> </g> </g> 
    </symbol>
    <symbol id="icon_vkontakte" viewBox="0 0 38 22">
       <!-- Generator: sketchtool 39.1 (31720) - http://www.bohemiancoding.com/sketch --> <title>246DCEC7-6E5B-49A4-9101-225602F7FCA2</title> <desc>Created with sketchtool.</desc>  <g id="1440" stroke="none" stroke-width="1" fill="none" fill-rule="evenodd"> <g id="Presentation-1440" transform="translate(-1002.000000, -31121.000000)" style="fill:currentColor"> <g id="Footer-+-Share" transform="translate(-1.000000, 27966.000000)"> <g id="social" transform="translate(208.000000, 3125.000000)"> <g id="vk" transform="translate(762.000000, 0.000000)"> <g id="normal"> <path d="M68.967276,47.7823219 C69.4536844,48.3706575 69.9138551,48.9779062 70.2657107,49.6608077 C70.7649016,50.6321355 70.3128041,51.7007312 69.4456113,51.7588217 L64.0560983,51.7561198 C62.665495,51.8723009 61.5567798,51.3103088 60.623656,50.3551923 C59.8775606,49.5925851 59.1859592,48.7799931 58.4687927,47.9910426 C58.174122,47.6688427 57.8666688,47.3655561 57.4986669,47.1250883 C56.7633358,46.6455037 56.1242099,46.7927564 55.7037323,47.5634692 C55.2758544,48.347016 55.1783036,49.2149967 55.1365922,50.0883811 C55.0787345,51.3629955 54.6945862,51.6980293 53.4203711,51.7561198 C50.6950038,51.8851349 48.1088987,51.4710709 45.707131,50.091083 C43.5892697,48.8745591 41.9463799,47.1568355 40.5167562,45.2121535 C37.734204,41.4261366 35.6028874,37.2652331 33.6868554,32.9881486 C33.2556136,32.0249265 33.5711399,31.5075154 34.6300706,31.4892777 C36.3886759,31.4548286 38.1466084,31.4575305 39.907232,31.4865758 C40.6223802,31.4973833 41.0953333,31.9087454 41.3711666,32.5869186 C42.322455,34.9355325 43.4863368,37.1699917 44.9475804,39.2416623 C45.336438,39.7928469 45.7333688,40.3440315 46.2984906,40.7324275 C46.9241612,41.1620273 47.3998054,41.0195029 47.6938033,40.32039 C47.8808317,39.8772808 47.9622362,39.3997226 48.0039476,38.9248662 C48.1432097,37.2915765 48.1620471,35.6609887 47.917161,34.0331028 C47.7678074,33.0171939 47.1973034,32.3599602 46.1881573,32.1674509 C45.67282,32.0695076 45.7495152,31.8769982 45.9991106,31.5818173 C46.4323707,31.0725119 46.8400657,30.7557158 47.6520919,30.7557158 L53.7432978,30.7557158 C54.7026594,30.9455232 54.9159256,31.3785004 55.0471146,32.3471263 L55.0524967,39.141017 C55.0417325,39.5159036 55.2388524,40.6290804 55.9116164,40.8769784 C56.4505005,41.0539519 56.8050471,40.6216502 57.1286466,40.2785108 C58.5871992,38.7242512 59.6279652,36.8876446 60.5577251,34.9855173 C60.9708023,34.1492838 61.3253489,33.2806277 61.6698041,32.412647 C61.9247817,31.7689228 62.3237308,31.4521268 63.0469522,31.4656362 L68.9094183,31.47104 C69.0829914,31.47104 69.2592556,31.4737418 69.4274466,31.5027871 C70.4157371,31.6716549 70.6861882,32.0985528 70.3814261,33.0671787 C69.9003998,34.5869893 68.9645849,35.853498 68.0502986,37.1254106 C67.0727724,38.4837834 66.0266243,39.7955488 65.0571712,41.1620273 C64.1664316,42.4102983 64.2370718,43.0384867 65.3437687,44.1226182 C66.5708904,45.3256327 67.866634,46.4577226 68.967276,47.7823219 Z" id="Path"/> </g> </g> </g> </g> </g> </g> 
    </symbol></svg>