<?xml version="1.0" encoding="UTF-8" standalone="no"?>
<svg width="150px" height="150px" viewBox="0 0 150 150" version="1.1" xmlns="http://www.w3.org/2000/svg" xmlns:xlink="http://www.w3.org/1999/xlink">
    <!-- Generator: sketchtool 39.1 (31720) - http://www.bohemiancoding.com/sketch -->
    <title>D59BBE2F-F679-4FA9-9FA2-8D51A70179E1</title>
    <desc>Created with sketchtool.</desc>
    <defs></defs>
    <g id="1440" stroke="none" stroke-width="1" fill="none" fill-rule="evenodd">
        <g id="1" transform="translate(-288.000000, -4861.000000)">
            <g id="5---illustration" transform="translate(270.000000, 3722.000000)">
                <g id="Group-4" transform="translate(18.000000, 1139.000000)">
                    <g id="1_vote">
                        <g id="Group">
                            <g id="bg" fill="#B29CD0">
                                <circle id="Oval" cx="74.7508306" cy="74.7508306" r="74.7508306"></circle>
                            </g>
                            <g id="pics" transform="translate(20.930233, 7.475083)">
                                <path d="M92.6910299,28.4053156 L91.1960133,28.4053156 C90.2990033,28.4053156 89.7009967,27.807309 89.7009967,26.910299 L89.7009967,25.4152824 C89.7009967,24.5182724 90.2990033,23.9202658 91.1960133,23.9202658 L92.6910299,23.9202658 C93.5880399,23.9202658 94.1860465,24.5182724 94.1860465,25.4152824 L94.1860465,26.910299 C94.1860465,27.807309 93.5880399,28.4053156 92.6910299,28.4053156 L92.6910299,28.4053156 Z" id="Shape" fill="#A28AC4"></path>
                                <path d="M73.255814,139.48505 C73.255814,139.48505 33.4883721,152.940199 0,119.152824 L0,37.3754153 C0,32.4418605 2.54152824,29.9003322 7.47508306,29.9003322 L64.2857143,29.9003322 L73.255814,139.48505 L73.255814,139.48505 Z" id="Shape" fill="#FFE99C"></path>
                                <path d="M66.5282392,35.5813953 L0,35.5813953 C0,35.5813953 0.149501661,29.9003322 7.47508306,29.9003322 L66.5282392,29.9003322 L66.5282392,35.5813953 L66.5282392,35.5813953 Z" id="Shape" fill="#FFF7DB"></path>
                                <path d="M23.9202658,50.8305648 L8.97009967,50.8305648 C8.0730897,50.8305648 7.47508306,50.2325581 7.47508306,49.3355482 L7.47508306,46.345515 C7.47508306,45.448505 8.0730897,44.8504983 8.97009967,44.8504983 L23.9202658,44.8504983 C24.8172757,44.8504983 25.4152824,45.448505 25.4152824,46.345515 L25.4152824,49.3355482 C25.4152824,50.2325581 24.8172757,50.8305648 23.9202658,50.8305648 L23.9202658,50.8305648 Z" id="Shape" fill="#FFCD5C"></path>
                                <path d="M20.9302326,68.7707641 L8.97009967,68.7707641 C8.0730897,68.7707641 7.47508306,68.1727575 7.47508306,67.2757475 L7.47508306,64.2857143 C7.47508306,63.3887043 8.0730897,62.7906977 8.97009967,62.7906977 L20.9302326,62.7906977 C21.8272425,62.7906977 22.4252492,63.3887043 22.4252492,64.2857143 L22.4252492,67.2757475 C22.4252492,68.1727575 21.8272425,68.7707641 20.9302326,68.7707641 L20.9302326,68.7707641 Z" id="Shape" fill="#FFCD5C"></path>
                                <path d="M23.9202658,86.7109635 L8.97009967,86.7109635 C8.0730897,86.7109635 7.47508306,86.1129568 7.47508306,85.2159468 L7.47508306,82.2259136 C7.47508306,81.3289037 8.0730897,80.730897 8.97009967,80.730897 L23.9202658,80.730897 C24.8172757,80.730897 25.4152824,81.3289037 25.4152824,82.2259136 L25.4152824,85.2159468 C25.4152824,86.1129568 24.8172757,86.7109635 23.9202658,86.7109635 L23.9202658,86.7109635 Z" id="Shape" fill="#FFCD5C"></path>
                                <path d="M26.910299,95.6810631 L8.97009967,95.6810631 C8.0730897,95.6810631 7.47508306,95.0830565 7.47508306,94.1860465 L7.47508306,91.1960133 C7.47508306,90.2990033 8.0730897,89.7009967 8.97009967,89.7009967 L26.910299,89.7009967 C27.807309,89.7009967 28.4053156,90.2990033 28.4053156,91.1960133 L28.4053156,94.1860465 C28.4053156,95.0830565 27.807309,95.6810631 26.910299,95.6810631 L26.910299,95.6810631 Z" id="Shape" fill="#FFCD5C"></path>
                                <path d="M11.9601329,59.8006645 L8.97009967,59.8006645 C8.0730897,59.8006645 7.47508306,59.2026578 7.47508306,58.3056478 L7.47508306,55.3156146 C7.47508306,54.4186047 8.0730897,53.820598 8.97009967,53.820598 L11.9601329,53.820598 C12.8571429,53.820598 13.4551495,54.4186047 13.4551495,55.3156146 L13.4551495,58.3056478 C13.4551495,59.2026578 12.8571429,59.8006645 11.9601329,59.8006645 L11.9601329,59.8006645 Z" id="Shape" fill="#FFCD5C"></path>
                                <path d="M14.9501661,77.7408638 L8.97009967,77.7408638 C8.0730897,77.7408638 7.47508306,77.1428571 7.47508306,76.2458472 L7.47508306,73.255814 C7.47508306,72.358804 8.0730897,71.7607973 8.97009967,71.7607973 L14.9501661,71.7607973 C15.8471761,71.7607973 16.4451827,72.358804 16.4451827,73.255814 L16.4451827,76.2458472 C16.4451827,77.1428571 15.8471761,77.7408638 14.9501661,77.7408638 L14.9501661,77.7408638 Z" id="Shape" fill="#FFCD5C"></path>
                                <path d="M14.9501661,103.156146 C14.9501661,104.053156 14.3521595,104.651163 13.4551495,104.651163 L8.97009967,104.651163 C8.0730897,104.651163 7.47508306,104.053156 7.47508306,103.156146 L7.47508306,100.166113 C7.47508306,99.269103 8.0730897,98.6710963 8.97009967,98.6710963 L13.4551495,98.6710963 C14.3521595,98.6710963 14.9501661,99.269103 14.9501661,100.166113 L14.9501661,103.156146 L14.9501661,103.156146 Z" id="Shape" fill="#FFCD5C"></path>
                                <rect id="Rectangle-path" fill="#FFE99C" x="71.7607973" y="44.8504983" width="19.4352159" height="5.98006645"></rect>
                                <path d="M100.166113,125.880399 L100.166113,79.9833887 C100.166113,76.2458472 103.156146,73.255814 106.893688,73.255814 L106.893688,73.255814 C110.631229,73.255814 113.621262,76.2458472 113.621262,79.9833887 L113.621262,106.146179 C113.621262,107.790698 114.219269,109.136213 114.966777,110.182724 C112.724252,113.322259 109.883721,117.807309 100.166113,125.880399 L100.166113,125.880399 Z" id="Shape" fill="#FFCE7A"></path>
                                <path d="M71.7607973,128.421927 L61.2956811,119.152824 L61.2956811,35.8803987 C61.2956811,31.3953488 63.8372093,29.9003322 66.5282392,29.9003322 L66.5282392,29.9003322 C69.2192691,29.9003322 71.7607973,31.3953488 71.7607973,35.8803987 L71.7607973,128.421927 L71.7607973,128.421927 Z" id="Shape" fill="#FFCE7A"></path>
                                <path d="M97.1760797,127.076412 L86.7109635,134.10299 L86.7109635,50.8305648 C86.7109635,46.345515 89.2524917,44.8504983 91.9435216,44.8504983 L91.9435216,44.8504983 C94.6345515,44.8504983 97.1760797,46.345515 97.1760797,50.8305648 L97.1760797,127.076412 L97.1760797,127.076412 Z" id="Shape" fill="#FFCE7A"></path>
                                <path d="M32.8903654,139.036545 L32.8903654,53.820598 C32.8903654,52.1760797 34.2358804,50.8305648 35.8803987,50.8305648 L106.146179,50.8305648 C107.790698,50.8305648 109.136213,52.1760797 109.136213,53.820598 L109.136213,117.508306 C75.6478405,153.837209 32.8903654,139.036545 32.8903654,139.036545 L32.8903654,139.036545 Z" id="Shape" fill="#F7F7F7"></path>
                                <path d="M94.0365449,86.7109635 L62.641196,86.7109635 C61.4451827,86.7109635 60.3986711,85.6644518 60.3986711,84.4684385 L60.3986711,84.4684385 C60.3986711,83.2724252 61.4451827,82.2259136 62.641196,82.2259136 L94.0365449,82.2259136 C95.2325581,82.2259136 96.2790698,83.2724252 96.2790698,84.4684385 L96.2790698,84.4684385 C96.2790698,85.6644518 95.2325581,86.7109635 94.0365449,86.7109635 L94.0365449,86.7109635 Z" id="Shape" fill="#E1E2E3"></path>
                                <path d="M73.1063123,94.1860465 L62.641196,94.1860465 C61.4451827,94.1860465 60.3986711,93.1395349 60.3986711,91.9435216 L60.3986711,91.9435216 C60.3986711,90.7475083 61.4451827,89.7009967 62.641196,89.7009967 L73.1063123,89.7009967 C74.3023256,89.7009967 75.3488372,90.7475083 75.3488372,91.9435216 L75.3488372,91.9435216 C75.3488372,93.1395349 74.3023256,94.1860465 73.1063123,94.1860465 L73.1063123,94.1860465 Z" id="Shape" fill="#E1E2E3"></path>
                                <path d="M84.3189369,94.1860465 L79.833887,94.1860465 C78.6378738,94.1860465 77.5913621,93.1395349 77.5913621,91.9435216 L77.5913621,91.9435216 C77.5913621,90.7475083 78.6378738,89.7009967 79.833887,89.7009967 L84.3189369,89.7009967 C85.5149502,89.7009967 86.5614618,90.7475083 86.5614618,91.9435216 L86.5614618,91.9435216 C86.5614618,93.1395349 85.5149502,94.1860465 84.3189369,94.1860465 L84.3189369,94.1860465 Z" id="Shape" fill="#E1E2E3"></path>
                                <path d="M55.3156146,71.7607973 C55.3156146,72.6578073 54.717608,73.255814 53.820598,73.255814 L41.8604651,73.255814 C40.9634551,73.255814 40.3654485,72.6578073 40.3654485,71.7607973 L40.3654485,59.8006645 C40.3654485,58.9036545 40.9634551,58.3056478 41.8604651,58.3056478 L53.820598,58.3056478 C54.717608,58.3056478 55.3156146,58.9036545 55.3156146,59.8006645 L55.3156146,71.7607973 L55.3156146,71.7607973 Z" id="Shape" fill="#E1E2E3"></path>
                                <path d="M55.3156146,94.1860465 C55.3156146,95.0830565 54.717608,95.6810631 53.820598,95.6810631 L41.8604651,95.6810631 C40.9634551,95.6810631 40.3654485,95.0830565 40.3654485,94.1860465 L40.3654485,82.2259136 C40.3654485,81.3289037 40.9634551,80.730897 41.8604651,80.730897 L53.820598,80.730897 C54.717608,80.730897 55.3156146,81.3289037 55.3156146,82.2259136 L55.3156146,94.1860465 L55.3156146,94.1860465 Z" id="Shape" fill="#E1E2E3"></path>
                                <path d="M95.6810631,62.0431894 C95.6810631,63.2392027 94.6345515,64.2857143 93.4385382,64.2857143 L62.0431894,64.2857143 C60.8471761,64.2857143 59.8006645,63.2392027 59.8006645,62.0431894 L59.8006645,62.0431894 C59.8006645,60.8471761 60.8471761,59.8006645 62.0431894,59.8006645 L93.4385382,59.8006645 C94.6345515,59.8006645 95.6810631,60.8471761 95.6810631,62.0431894 L95.6810631,62.0431894 L95.6810631,62.0431894 Z" id="Shape" fill="#E1E2E3"></path>
                                <path d="M89.7009967,69.5182724 C89.7009967,70.7142857 88.654485,71.7607973 87.4584718,71.7607973 L62.0431894,71.7607973 C60.8471761,71.7607973 59.8006645,70.7142857 59.8006645,69.5182724 L59.8006645,69.5182724 C59.8006645,68.3222591 60.8471761,67.2757475 62.0431894,67.2757475 L87.4584718,67.2757475 C88.654485,67.2757475 89.7009967,68.3222591 89.7009967,69.5182724 L89.7009967,69.5182724 L89.7009967,69.5182724 Z" id="Shape" fill="#E1E2E3"></path>
                                <polygon id="Shape" fill="#B6B7B8" points="46.345515 93.5880399 42.1594684 89.551495 44.2524917 87.4584718 46.345515 89.4019934 51.4285714 84.3189369 53.5215947 86.5614618"></polygon>
                                <path d="M79.833887,137.541528 L54.4186047,112.126246 C54.1196013,111.827243 53.820598,111.229236 53.820598,110.780731 L53.820598,103.604651 C53.820598,102.55814 54.717608,101.66113 55.7641196,101.66113 L63.6877076,101.66113 C64.1362126,101.66113 64.7342193,101.810631 65.0332226,102.259136 C68.9202658,106.146179 92.5415282,129.468439 93.7375415,130.664452 C88.2059801,134.551495 79.833887,137.541528 79.833887,137.541528 L79.833887,137.541528 Z" id="Shape" fill="#F2C280"></path>
                                <path d="M92.8405316,20.9302326 L91.0465116,20.9302326 C90.2990033,20.9302326 89.7009967,20.3322259 89.7009967,19.5847176 L89.7009967,18.3887043 C89.7009967,15.5481728 91.0465116,13.0066445 93.2890365,11.0631229 C93.8870432,10.6146179 94.3355482,9.86710963 94.4850498,8.97009967 C94.6345515,7.92358804 94.4850498,7.02657807 93.8870432,6.27906977 C93.2890365,5.53156146 92.2425249,5.23255814 91.0465116,5.23255814 C88.9534884,5.23255814 87.9069767,5.98006645 87.6079734,7.77408638 C87.4584718,8.52159468 87.0099668,8.97009967 86.2624585,8.97009967 L84.4684385,8.97009967 C83.7209302,8.97009967 82.9734219,8.22259136 83.1229236,7.47508306 C83.7209302,3.28903654 86.5614618,0.747508306 91.0465116,0.747508306 C93.5880399,0.747508306 95.8305648,1.64451827 97.3255814,3.43853821 C98.6710963,5.08305648 99.269103,7.47508306 98.9700997,9.71760797 C98.6710963,11.6611296 97.6245847,13.4551495 96.1295681,14.6511628 C94.9335548,15.5481728 94.1860465,17.0431894 94.1860465,18.3887043 L94.1860465,19.5847176 C94.1860465,20.3322259 93.5880399,20.9302326 92.8405316,20.9302326 L92.8405316,20.9302326 Z" id="Shape" fill="#A28AC4"></path>
                                <path d="M114.518272,110.780731 C113.920266,110.033223 113.621262,108.986711 113.621262,107.641196 L113.621262,95.6810631 L123.039867,95.6810631 C119.750831,103.903654 115.714286,109.285714 114.518272,110.780731 L114.518272,110.780731 Z" id="Shape" fill="#FFE99C"></path>
                                <path d="M54.4186047,112.126246 C54.1196013,111.827243 53.820598,111.229236 53.820598,110.780731 L53.820598,103.604651 C53.820598,102.55814 54.717608,101.66113 55.7641196,101.66113 L63.6877076,101.66113 C64.1362126,101.66113 64.7342193,101.810631 65.0332226,102.259136 C62.641196,104.651163 57.1096346,109.584718 55.166113,111.528239 C54.8671096,111.827243 54.717608,112.425249 55.3156146,113.023256 C55.0166113,112.724252 54.4186047,112.126246 54.4186047,112.126246 L54.4186047,112.126246 Z" id="Shape" fill="#FFD499"></path>
                                <path d="M55.166113,111.378738 L59.8006645,107.043189 L87.0099668,134.401993 L79.833887,137.541528 L55.3156146,113.023256 C54.8671096,112.574751 54.717608,111.827243 55.166113,111.378738 L55.166113,111.378738 Z" id="Shape" fill="#E8B36B"></path>
                                <path d="M53.820598,105.398671 L57.7076412,101.66113 L55.4651163,101.66113 C54.717608,101.66113 53.820598,102.55814 53.820598,103.45515 L53.820598,105.398671 L53.820598,105.398671 Z" id="Shape" fill="#525861"></path>
                                <path d="M29.6013289,23.9202658 L30.9468439,23.9202658 C31.5448505,23.9202658 31.8438538,23.1727575 31.9933555,22.7242525 C32.1428571,21.3787375 33.0398671,20.6312292 34.6843854,20.6312292 C35.5813953,20.6312292 36.3289037,20.7807309 36.9269103,21.3787375 C37.3754153,21.8272425 37.5249169,22.5747508 37.3754153,23.3222591 C37.2259136,24.0697674 36.9269103,24.5182724 36.4784053,24.9667774 C34.9833887,26.1627907 33.9368771,27.9568106 33.7873754,29.9003322 L37.2259136,29.9003322 C37.3754153,29.0033223 37.8239203,28.255814 38.5714286,27.6578073 C39.7674419,26.7607973 40.5149502,25.4152824 40.6644518,23.9202658 C40.9634551,22.1262458 40.5149502,20.3322259 39.4684385,19.1362126 C38.2724252,17.7906977 36.627907,17.0431894 34.6843854,17.0431894 C31.2458472,17.0431894 29.0033223,19.2857143 28.5548173,22.4252492 C28.4053156,23.0232558 29.0033223,23.9202658 29.6013289,23.9202658 L29.6013289,23.9202658 Z" id="Shape" fill="#A28AC4"></path>
                                <path d="M78.0398671,135.747508 C78.0398671,135.747508 88.2059801,131.262458 91.4950166,128.421927 C92.0930233,129.019934 92.5415282,129.318937 93.5880399,130.51495 C87.7574751,134.551495 79.6843854,137.541528 79.6843854,137.541528 L78.0398671,135.747508 L78.0398671,135.747508 Z" id="Shape" fill="#E0A455"></path>
                            </g>
                        </g>
                    </g>
                </g>
            </g>
        </g>
    </g>
</svg>