<?xml version="1.0" encoding="UTF-8" standalone="no"?>
<svg width="151px" height="150px" viewBox="0 0 151 150" version="1.1" xmlns="http://www.w3.org/2000/svg" xmlns:xlink="http://www.w3.org/1999/xlink">
    <!-- Generator: sketchtool 39.1 (31720) - http://www.bohemiancoding.com/sketch -->
    <title>76657E89-510C-48EF-9850-C202534367FD</title>
    <desc>Created with sketchtool.</desc>
    <defs></defs>
    <g id="1440" stroke="none" stroke-width="1" fill="none" fill-rule="evenodd">
        <g id="1" transform="translate(-528.000000, -4861.000000)">
            <g id="5---illustration" transform="translate(270.000000, 3722.000000)">
                <g id="Group-4" transform="translate(18.000000, 1139.000000)">
                    <g id="2_subscribers" transform="translate(240.677741, 0.000000)">
                        <g id="Group">
                            <g id="bg" fill="#9CE3A5">
                                <circle id="Oval" cx="74.7508306" cy="74.7508306" r="74.7508306"></circle>
                            </g>
                            <g id="pics" transform="translate(10.465116, 11.465116)">
                                <path d="M0,40.1129568 L0,40.1129568 C0,38.9169435 1.04651163,37.8704319 2.24252492,37.8704319 L14.2026578,37.8704319 C15.3986711,37.8704319 16.4451827,38.9169435 16.4451827,40.1129568 L16.4451827,40.1129568 C16.4451827,41.3089701 15.3986711,42.3554817 14.2026578,42.3554817 L2.24252492,42.3554817 C1.04651163,42.3554817 0,41.3089701 0,40.1129568 L0,40.1129568 Z" id="Shape" fill="#89D493"></path>
                                <path d="M10.4651163,46.0930233 C10.4651163,47.2890365 9.41860465,48.3355482 8.22259136,48.3355482 L8.22259136,48.3355482 C7.02657807,48.3355482 5.98006645,47.2890365 5.98006645,46.0930233 L5.98006645,34.1328904 C5.98006645,32.9368771 7.02657807,31.8903654 8.22259136,31.8903654 L8.22259136,31.8903654 C9.41860465,31.8903654 10.4651163,32.9368771 10.4651163,34.1328904 L10.4651163,46.0930233 L10.4651163,46.0930233 Z" id="Shape" fill="#89D493"></path>
                                <path d="M107.641196,70.013289 C107.641196,71.2093023 106.594684,72.255814 105.398671,72.255814 L105.398671,72.255814 C104.202658,72.255814 103.156146,71.2093023 103.156146,70.013289 L103.156146,61.0431894 C103.156146,59.8471761 104.202658,58.8006645 105.398671,58.8006645 L105.398671,58.8006645 C106.594684,58.8006645 107.641196,59.8471761 107.641196,61.0431894 L107.641196,70.013289 L107.641196,70.013289 Z" id="Shape" fill="#89D493"></path>
                                <path d="M112.126246,65.5282392 C112.126246,66.7242525 111.079734,67.7707641 109.883721,67.7707641 L100.913621,67.7707641 C99.717608,67.7707641 98.6710963,66.7242525 98.6710963,65.5282392 L98.6710963,65.5282392 C98.6710963,64.3322259 99.717608,63.2857143 100.913621,63.2857143 L109.883721,63.2857143 C111.079734,63.2857143 112.126246,64.3322259 112.126246,65.5282392 L112.126246,65.5282392 L112.126246,65.5282392 Z" id="Shape" fill="#89D493"></path>
                                <path d="M43.3554817,24.4152824 L88.2059801,24.4152824 L88.2059801,48.3355482 C88.2059801,48.3355482 91.0465116,49.6810631 94.3355482,51.3255814 C95.8305648,38.6179402 97.1760797,25.910299 97.1760797,25.910299 C97.1760797,25.910299 99.1196013,4.08305648 73.8538206,0.495016611 C60.3986711,-1.44850498 54.1196013,5.42857143 54.1196013,5.42857143 C54.1196013,5.42857143 38.5714286,4.08305648 34.833887,16.9401993 C34.0863787,19.3322259 34.0863787,21.7242525 34.3853821,24.2657807 C35.5813953,34.4318937 37.5249169,49.9800664 37.5249169,49.9800664 L43.3554817,45.4950166 L43.3554817,24.4152824 L43.3554817,24.4152824 Z" id="Shape" fill="#996750"></path>
                                <path d="M43.3554817,61.7906977 C43.3554817,64.6312292 45,78.2358804 65.7807309,78.2358804 C86.5614618,78.2358804 88.2059801,64.7807309 88.2059801,61.7906977 L88.2059801,24.4152824 L43.3554817,24.4152824 L43.3554817,61.7906977 L43.3554817,61.7906977 Z" id="Shape" fill="#F8D5AC"></path>
                                <ellipse id="Oval" fill="#CFA372" cx="76.2458472" cy="48.3355482" rx="2.99003322" ry="2.99003322"></ellipse>
                                <ellipse id="Oval" fill="#CFA372" cx="53.820598" cy="48.3355482" rx="2.99003322" ry="2.99003322"></ellipse>
                                <path d="M128.571429,33.3853821 C128.571429,35.0299003 127.225914,36.3754153 125.581395,36.3754153 L125.581395,36.3754153 C123.936877,36.3754153 122.591362,35.0299003 122.591362,33.3853821 L122.591362,15.4451827 C122.591362,13.8006645 123.936877,12.4551495 125.581395,12.4551495 L125.581395,12.4551495 C127.225914,12.4551495 128.571429,13.8006645 128.571429,15.4451827 L128.571429,33.3853821 L128.571429,33.3853821 Z" id="Shape" fill="#89D493"></path>
                                <path d="M137.541528,24.4152824 C137.541528,26.0598007 136.196013,27.4053156 134.551495,27.4053156 L116.611296,27.4053156 C114.966777,27.4053156 113.621262,26.0598007 113.621262,24.4152824 L113.621262,24.4152824 C113.621262,22.7707641 114.966777,21.4252492 116.611296,21.4252492 L134.551495,21.4252492 C136.196013,21.4252492 137.541528,22.7707641 137.541528,24.4152824 L137.541528,24.4152824 L137.541528,24.4152824 Z" id="Shape" fill="#89D493"></path>
                                <path d="M88.2059801,60.2956811 C88.2059801,60.2956811 95.6810631,60.2956811 95.6810631,52.820598 C95.6810631,45.345515 88.2059801,45.345515 88.2059801,45.345515 L88.2059801,60.2956811 L88.2059801,60.2956811 Z" id="Shape" fill="#F8D5AC"></path>
                                <path d="M91.1960133,59.6976744 C90,60.1461794 88.2059801,60.2956811 88.2059801,60.2956811 L88.2059801,45.345515 C88.2059801,45.345515 89.8504983,45.345515 91.1960133,45.9435216 L91.1960133,59.6976744 L91.1960133,59.6976744 Z" id="Shape" fill="#F8C488"></path>
                                <path d="M43.3554817,60.2956811 C43.3554817,60.2956811 35.8803987,60.2956811 35.8803987,52.820598 C35.8803987,45.345515 43.3554817,45.345515 43.3554817,45.345515 L43.3554817,60.2956811 L43.3554817,60.2956811 Z" id="Shape" fill="#F8D5AC"></path>
                                <path d="M40.3654485,59.6976744 C41.8604651,60.1461794 43.3554817,60.2956811 43.3554817,60.2956811 L43.3554817,45.345515 C43.3554817,45.345515 41.8604651,45.345515 40.3654485,45.9435216 L40.3654485,59.6976744 L40.3654485,59.6976744 Z" id="Shape" fill="#F8C488"></path>
                                <path d="M46.345515,61.7906977 C46.345515,63.8837209 47.3920266,66.2757475 47.3920266,66.2757475 L44.10299,66.2757475 C43.5049834,64.4817276 43.3554817,61.7906977 43.3554817,61.7906977 L43.3554817,24.4152824 L46.345515,24.4152824 L46.345515,61.7906977 L46.345515,61.7906977 Z" id="Shape" fill="#FEDFBB"></path>
                                <path d="M65.7807309,64.7807309 C71.910299,64.7807309 76.2458472,63.2857143 76.2458472,63.2857143" id="Shape" stroke="#CFA372" stroke-width="2"></path>
                                <path d="M65.7807309,64.7807309 C59.6511628,64.7807309 55.3156146,63.2857143 55.3156146,63.2857143" id="Shape" stroke="#CFA372" stroke-width="2"></path>
                                <path d="M124.086379,108.136213 C117.358804,117.255814 97.3255814,138.036545 64.2857143,138.036545 C30.9468439,138.036545 10.7641196,116.956811 4.48504983,108.136213 L4.48504983,73.0033223 C4.48504983,69.4152824 7.02657807,66.2757475 10.6146179,66.2757475 L117.956811,66.2757475 C121.54485,66.2757475 124.086379,69.4152824 124.086379,73.0033223 C124.086379,73.0033223 124.086379,103.800664 124.086379,108.136213 L124.086379,108.136213 Z" id="Shape" fill="#FFFFFF"></path>
                                <path d="M124.086379,108.136213 C124.086379,108.136213 103.45515,138.036545 64.2857143,138.036545 C25.1162791,138.036545 7.47508306,111.873754 7.47508306,111.873754 L7.47508306,73.7508306 C7.47508306,70.7607973 8.97009967,69.2657807 11.9601329,69.2657807 L119.601329,69.2657807 C122.142857,69.2657807 124.086379,71.2093023 124.086379,73.7508306 L124.086379,108.136213 L124.086379,108.136213 Z" id="Shape" fill="#F7F7F7"></path>
                                <ellipse id="Oval" fill="#EDEDED" cx="64.2857143" cy="102.156146" rx="11.9601329" ry="11.9601329"></ellipse>
                                <path d="M124.086379,102.903654 C111.229236,122.33887 89.2524917,135.046512 64.2857143,135.046512 C39.3189369,135.046512 17.3421927,122.33887 4.48504983,102.903654 L4.48504983,108.136213 C18.089701,126.225914 39.7674419,138.036545 64.2857143,138.036545 C88.8039867,138.036545 110.481728,126.225914 124.086379,108.136213 L124.086379,102.903654 L124.086379,102.903654 Z" id="Shape" fill="#EDEDED"></path>
                                <path d="M124.086379,108.136213 L121.096346,108.136213 L121.096346,69.5647841 C121.096346,69.5647841 123.189369,69.8637874 124.086379,73.0033223 L124.086379,108.136213 L124.086379,108.136213 Z" id="Shape" fill="#EDEDED"></path>
                                <rect id="Rectangle-path" fill="#F8C488" x="43.3554817" y="24.4152824" width="44.8504983" height="4.48504983"></rect>
                            </g>
                        </g>
                    </g>
                </g>
            </g>
        </g>
    </g>
</svg>