<?xml version="1.0" encoding="UTF-8" standalone="no"?>
<svg width="150px" height="150px" viewBox="0 0 150 150" version="1.1" xmlns="http://www.w3.org/2000/svg" xmlns:xlink="http://www.w3.org/1999/xlink">
    <!-- Generator: sketchtool 39.1 (31720) - http://www.bohemiancoding.com/sketch -->
    <title>B8C64F9D-E338-4FBC-B984-13CE9FF5D17C</title>
    <desc>Created with sketchtool.</desc>
    <defs></defs>
    <g id="1440" stroke="none" stroke-width="1" fill="none" fill-rule="evenodd">
        <g id="1" transform="translate(-1010.000000, -4861.000000)">
            <g id="5---illustration" transform="translate(270.000000, 3722.000000)">
                <g id="Group-4" transform="translate(18.000000, 1139.000000)">
                    <g id="4_like" transform="translate(722.498339, 0.000000)">
                        <g id="Group">
                            <g id="bg" fill="#A3C8F3">
                                <circle id="Oval" cx="74.7508306" cy="74.7508306" r="74.7508306"></circle>
                            </g>
                            <g id="pics" transform="translate(12.455150, 0.000000)">
                                <path d="M95.1860465,130.066445 C95.1860465,133.355482 92.4950166,136.046512 89.2059801,136.046512 L35.3853821,136.046512 C32.0963455,136.046512 29.4053156,133.355482 29.4053156,130.066445 L29.4053156,43.3554817 C29.4053156,40.0664452 32.0963455,37.3754153 35.3853821,37.3754153 L89.2059801,37.3754153 C92.4950166,37.3754153 95.1860465,40.0664452 95.1860465,43.3554817 L95.1860465,130.066445 L95.1860465,130.066445 Z" id="Shape" fill="#F7F7F7"></path>
                                <path d="M87.7109635,115.116279 C87.7109635,116.760797 86.3654485,118.106312 84.7209302,118.106312 L39.8704319,118.106312 C38.2259136,118.106312 36.8803987,116.760797 36.8803987,115.116279 L36.8803987,50.8305648 C36.8803987,49.1860465 38.2259136,47.8405316 39.8704319,47.8405316 L84.7209302,47.8405316 C86.3654485,47.8405316 87.7109635,49.1860465 87.7109635,50.8305648 L87.7109635,115.116279 L87.7109635,115.116279 Z" id="Shape" fill="#ED5564"></path>
                                <ellipse id="Oval" fill="#EDEDED" cx="60.8006645" cy="127.076412" rx="4.48504983" ry="4.48504983"></ellipse>
                                <path d="M29.4053156,98.9700997 C29.4053156,98.9700997 32.3953488,94.3355482 33.2923588,92.9900332 C34.1893688,91.6445183 36.8803987,87.0099668 31.7973422,82.6744186 C26.7142857,78.3388704 22.0797342,82.076412 20.4352159,84.0199336 C18.9401993,86.1129568 6.68106312,104.202658 6.68106312,104.202658 C6.68106312,104.202658 2.04651163,111.378738 3.6910299,120.946844 C3.84053156,122.142857 18.3421927,139.784053 40.1694352,146.063123 C42.7109635,141.578073 46,135.89701 46,135.89701 L35.6843854,135.89701 C29.4053156,135.89701 29.4053156,130.215947 29.4053156,130.215947 L29.4053156,98.9700997 L29.4053156,98.9700997 Z" id="Shape" fill="#F8D5AC"></path>
                                <path d="M64.3887043,95.8305648 C63.192691,96.7275748 61.5481728,96.7275748 60.2026578,95.8305648 C56.166113,92.9900332 47.345515,86.5614618 46.1495017,80.730897 C44.9534884,74.9003322 47.6445183,69.3687708 53.6245847,68.7707641 C59.3056478,68.3222591 61.3986711,71.461794 62.2956811,73.255814 C63.192691,71.461794 65.5847176,68.3222591 71.2657807,68.7707641 C77.2458472,69.3687708 79.9368771,74.9003322 78.7408638,80.730897 C77.5448505,86.5614618 68.4252492,93.1395349 64.3887043,95.8305648 L64.3887043,95.8305648 Z" id="Shape" fill="#D64454"></path>
                                <path d="M117.162791,41.4119601 C116.265781,42.0099668 115.219269,42.0099668 114.322259,41.4119601 C111.631229,39.6179402 105.651163,35.1328904 104.903654,31.2458472 C104.006645,27.358804 105.800664,23.6212625 109.986711,23.1727575 C113.873754,22.8737542 115.219269,24.9667774 115.817276,26.1627907 C116.415282,24.9667774 118.059801,22.8737542 121.797342,23.1727575 C125.833887,23.4717608 127.627907,27.358804 126.880399,31.2458472 C125.983389,35.1328904 120.003322,39.6179402 117.162791,41.4119601 L117.162791,41.4119601 Z" id="Shape" fill="#87B4E8"></path>
                                <path d="M9.67109635,68.4717608 C9.0730897,68.9202658 8.3255814,68.9202658 7.72757475,68.4717608 C5.78405316,67.1262458 1.74750831,64.1362126 1.14950166,61.4451827 C0.551495017,58.7541528 1.74750831,56.0631229 4.58803987,55.7641196 C7.27906977,55.4651163 8.3255814,57.1096346 8.62458472,57.8571429 C9.0730897,57.1096346 10.1196013,55.4651163 12.8106312,55.7641196 C15.6511628,56.0631229 16.8471761,58.6046512 16.2491694,61.4451827 C15.8006645,64.1362126 11.6146179,67.1262458 9.67109635,68.4717608 L9.67109635,68.4717608 Z" id="Shape" fill="#87B4E8"></path>
                                <path d="M47.9435216,11.5116279 C47.345515,11.9601329 46.448505,11.9601329 45.8504983,11.5116279 C43.7574751,10.166113 39.4219269,6.87707641 38.5249169,3.88704319 C45.2524917,1.49501661 54.0730897,0.448504983 55.269103,0.299003322 C55.5681063,1.34551495 55.717608,2.39202658 55.4186047,3.58803987 C54.820598,6.72757475 50.0365449,10.0166113 47.9435216,11.5116279 L47.9435216,11.5116279 Z" id="Shape" fill="#87B4E8"></path>
                                <path d="M68.2757475,44.8504983 L56.3156146,44.8504983 C55.5681063,44.8504983 54.820598,44.2524917 54.820598,43.3554817 L54.820598,41.8604651 C54.820598,41.1129568 55.5681063,40.3654485 56.3156146,40.3654485 L68.2757475,40.3654485 C69.0232558,40.3654485 69.7707641,40.9634551 69.7707641,41.8604651 L69.7707641,43.3554817 C69.7707641,44.2524917 69.0232558,44.8504983 68.2757475,44.8504983 L68.2757475,44.8504983 Z" id="Shape" fill="#EDEDED"></path>
                                <path d="M29.4053156,98.9700997 L23.2757475,107.192691 C22.3787375,108.388704 23.2757475,109.136213 24.0232558,109.136213 L29.4053156,109.136213 L29.4053156,98.9700997 L29.4053156,98.9700997 Z" id="Shape" fill="#F8C488"></path>
                                <path d="M3.6910299,121.096346 C2.64451827,115.116279 3.99003322,108.239203 6.83056478,103.903654 C9.82059801,99.4186047 20.4352159,84.1694352 20.4352159,84.1694352 C20.4352159,84.1694352 25.0697674,78.1893688 30.9003322,82.076412 C25.8172757,81.179402 23.1262458,84.1694352 22.2292359,85.3654485 C21.4817276,86.5614618 10.8671096,102.408638 8.47508306,105.996678 C4.58803987,111.976744 5.93355482,123.936877 5.93355482,123.936877 C5.93355482,123.936877 4.13953488,122.142857 3.6910299,121.096346 L3.6910299,121.096346 Z" id="Shape" fill="#FEDFBB"></path>
                                <path d="M35.3853821,136.046512 L46,136.046512 L44.3554817,139.036545 L35.5348837,139.036545 C31.4983389,139.036545 26.4152824,136.046512 26.4152824,130.066445 L26.4152824,109.136213 L29.4053156,109.136213 L29.4053156,130.066445 C29.4053156,133.504983 32.3953488,136.046512 35.3853821,136.046512 L35.3853821,136.046512 Z" id="Shape" fill="#F8C488"></path>
                                <path d="M32.3953488,130.066445 C32.3953488,134.551495 34.1893688,135.598007 35.3853821,136.046512 C33.1428571,136.046512 29.4053156,134.401993 29.4053156,130.066445 L29.4053156,98.9700997 L32.3953488,94.3355482 L32.3953488,130.066445 L32.3953488,130.066445 Z" id="Shape" fill="#FFFFFF"></path>
                                <path d="M95.1860465,94.6345515 L92.1960133,86.7109635 L92.1960133,40.0664452 C92.1960133,40.0664452 94.2890365,40.2159468 95.1860465,43.3554817 L95.1860465,94.6345515 L95.1860465,94.6345515 Z" id="Shape" fill="#EDEDED"></path>
                                <path d="M122.096346,94.7840532 C122.395349,95.9800664 123.142857,98.9700997 123.142857,98.9700997 C123.142857,98.9700997 124.33887,95.0830565 127.92691,94.6345515 C131.963455,94.1860465 133.607973,97.0265781 133.607973,97.0265781 C133.607973,97.0265781 124.936877,131.561462 87.4119601,145.166113 C85.1694352,143.820598 79.9368771,140.531561 76.4983389,138.438538 C73.0598007,136.345515 70.6677741,131.561462 73.5083056,127.524917 C76.4983389,123.33887 82.7774086,125.431894 83.9734219,126.0299 C85.1694352,126.777409 90.4019934,129.916944 90.4019934,129.916944 C90.4019934,129.916944 78.4418605,86.5614618 77.5448505,82.9734219 C76.6478405,79.3853821 78.2923588,75.1993355 82.3289037,74.0033223 C87.1129568,72.5083056 90.4019934,76.3953488 91.1495017,79.2358804 C91.5980066,81.179402 95.0365449,93.8870432 95.1860465,94.9335548 C95.3355482,92.2425249 95.9335548,88.8039867 99.9700997,87.7574751 C103.857143,86.7109635 107.445183,88.654485 108.491694,91.9435216 C109.089701,93.8870432 109.687708,95.9800664 109.687708,95.9800664 C109.687708,95.9800664 110.285714,91.7940199 114.471761,90.89701 C118.956811,89.8504983 121.647841,92.9900332 122.096346,94.7840532 L122.096346,94.7840532 Z" id="Shape" fill="#F8D5AC"></path>
                                <path d="M90.551495,129.916944 C90.551495,129.916944 78.1428571,84.7674419 77.6943522,82.9734219 C77.2458472,81.179402 76.7973422,76.0963455 82.3289037,74.0033223 C78.8903654,77.5913621 79.9368771,82.076412 79.9368771,82.076412 L92.1960133,126.478405 C92.4950166,127.375415 92.1960133,128.272425 91.5980066,128.870432 L90.551495,129.916944 L90.551495,129.916944 Z" id="Shape" fill="#FEDFBB"></path>
                                <path d="M95.3355482,94.9335548 C95.3355482,94.9335548 100.119601,111.378738 100.418605,112.126246 C100.717608,112.873754 101.016611,112.724252 101.166113,112.425249 C101.315615,112.126246 101.614618,111.378738 101.614618,111.378738 C101.913621,110.631229 101.913621,109.883721 101.76412,109.136213 C100.568106,105.099668 96.6810631,91.7940199 96.3820598,90.5980066 C95.3355482,92.3920266 95.3355482,94.9335548 95.3355482,94.9335548 L95.3355482,94.9335548 Z" id="Shape" fill="#F8C488"></path>
                                <path d="M109.837209,95.9800664 C109.837209,95.9800664 111.780731,102.857143 112.079734,103.604651 C112.378738,104.352159 112.827243,104.053156 112.976744,103.754153 C113.126246,103.45515 113.574751,102.408638 113.574751,102.408638 C113.873754,101.810631 114.023256,100.913621 113.724252,100.315615 C113.126246,98.5215947 112.079734,94.9335548 111.332226,92.8405316 C110.136213,94.0365449 109.837209,95.9800664 109.837209,95.9800664 L109.837209,95.9800664 Z" id="Shape" fill="#F8C488"></path>
                                <path d="M123.292359,98.9700997 C123.292359,98.9700997 124.189369,102.408638 124.33887,103.006645 C124.488372,103.604651 124.936877,103.305648 125.086379,103.006645 C125.23588,102.707641 125.684385,101.66113 125.684385,101.66113 C125.983389,100.913621 126.13289,100.016611 125.833887,99.1196013 C125.534884,98.0730897 125.23588,96.8770764 124.936877,96.1295681 C123.740864,97.3255814 123.292359,98.9700997 123.292359,98.9700997 L123.292359,98.9700997 Z" id="Shape" fill="#F8C488"></path>
                                <path d="M35.3853821,37.3754153 L89.2059801,37.3754153 C92.9435216,37.3754153 94.4385382,40.3654485 94.4385382,40.3654485 C94.4385382,40.3654485 95.1860465,41.5614618 95.1860465,43.3554817 C93.6910299,40.3654485 92.1960133,40.3654485 90.7009967,40.3654485 L35.3853821,40.3654485 C32.3953488,40.3654485 32.3953488,43.3554817 32.3953488,43.3554817 L32.3953488,83.2724252 C30.9003322,81.7774086 29.4053156,81.179402 29.4053156,81.179402 L29.4053156,43.3554817 C29.4053156,43.3554817 29.4053156,37.3754153 35.3853821,37.3754153 L35.3853821,37.3754153 Z" id="Shape" fill="#FFFFFF"></path>
                            </g>
                        </g>
                    </g>
                </g>
            </g>
        </g>
    </g>
</svg>