<?xml version="1.0" encoding="UTF-8" standalone="no"?>
<svg width="70px" height="71px" viewBox="0 0 70 71" version="1.1" xmlns="http://www.w3.org/2000/svg" xmlns:xlink="http://www.w3.org/1999/xlink">
    <!-- Generator: Sketch 39.1 (31720) - http://www.bohemiancoding.com/sketch -->
    <title>budda_2</title>
    <desc>Created with Sketch.</desc>
    <defs></defs>
    <g id="1440" stroke="none" stroke-width="1" fill="none" fill-rule="evenodd">
        <g id="icons" transform="translate(-430.000000, -234.000000)">
            <g id="Group-3" transform="translate(310.000000, 230.000000)">
                <g id="budda_2" transform="translate(120.000000, 4.000000)">
                    <path d="M70,35 C70,54.3311046 54.3291045,70 35,70 C15.6708955,70 0,54.3311046 0,35 C0,15.6708955 15.6708955,0 35,0 C54.3291045,0 70,15.6708955 70,35" id="Fill-7" fill="#7BCD86"></path>
                    <path d="M35.2056424,70.9881484 C41.8001736,70.9881484 48.2609375,68.1295131 48.2609375,68.1295131 L49.8921007,59.3309346 C49.8921007,59.3309346 52.896875,64.8335568 53.2243056,65.477502 C56.6703125,63.4894967 58,61.7863518 58,61.7863518 L54.2165799,52.2515493 C54.2165799,52.2515493 53.4539062,49.4731564 50.1576389,48.2494599 C48.187066,47.5192541 45.7173611,46.6024848 44.0462674,45.9806062 C42.9202257,45.5633458 42.4909722,44.5181886 42.9661458,43.4509648 C43.6948785,41.8140199 44.7590278,39.4548935 45.4717882,38.0225668 C46.0827257,38.1770334 47.6440104,38.5902817 48.2529514,36.4478098 C49.2811632,35.9121918 50.6048611,34.8008347 50.6048611,32.465781 C50.6048611,30.1287212 48.4446181,28.5218673 48.4446181,28.5218673 C48.4446181,28.5218673 48.4346354,14 35.2056424,14 C21.9766493,14 21.9686632,28.5218673 21.9686632,28.5218673 C21.9686632,28.5218673 19.8084201,30.1287212 19.8084201,32.465781 C19.8084201,34.8008347 21.1321181,35.9121918 22.1583333,36.4478098 C22.7692708,38.5902817 24.3305556,38.1770334 24.9414931,38.0225668 C25.6522569,39.4548935 26.7164062,41.8140199 27.4471354,43.4509648 C27.922309,44.5181886 27.4930556,45.5633458 26.3670139,45.9806062 C24.6959201,46.6024848 22.2262153,47.5192541 20.2556424,48.2494599 C16.959375,49.4731564 16.1967014,52.2515493 16.1967014,52.2515493 L12,62.8254909 C12,62.8254909 13.3496528,64.2277267 16.7976562,66.215732 C17.1250868,65.5717868 20.5211806,59.3309346 20.5211806,59.3309346 L22.2801215,68.8236098 C22.2801215,68.8236098 27.6068576,71.1867483 35.2056424,70.9881484" id="Fill-301" fill="#FFFFFF"></path>
                    <path d="M25,69.7574433 C26.0980926,68.3646891 43.7364517,46 43.7364517,46 L47.9654859,47.5741548 C47.9654859,47.5741548 50.1144414,48.1828549 51,48.9507845 C50.7520436,50.3294297 47.5640327,68.1026659 47.5640327,68.1026659 C47.5640327,68.1026659 37.2600666,73.3149123 25,69.7574433" id="Fill-302" fill="#EEA12D"></path>
                    <path d="" id="Fill-303" fill="#EAB97A"></path>
                    <path d="" id="Fill-304" fill="#A49D42"></path>
                    <path d="" id="Fill-305" fill="#EAB97A"></path>
                    <path d="" id="Fill-306" fill="#A49D42"></path>
                    <path d="" id="Fill-307" fill="#EAB97A"></path>
                    <path d="M34.3230174,71 C33.8888383,71 33.4464672,70.9918898 33,70.973642 L47.8194334,47 L49.0216179,47.4338937 C49.0216179,47.4338937 49.0236659,47.4338937 49.025714,47.4359213 C49.031858,47.4359213 49.0400501,47.4379488 49.0523381,47.4420039 L51,48.1394779 C51,48.1394779 39.4164296,69.9659542 39.0006827,70.6958689 C38.0340198,70.8215764 37.0120605,70.9148433 35.9450449,70.9614767 C35.4146092,70.9858072 34.8739333,71 34.3230174,71" id="Fill-308" fill="#E58B2E"></path>
                    <path d="M26,39.8512987 C26,39.8512987 27.7986162,43.1727273 35.1125904,43.1727273 C42.4265646,43.1727273 45,39 45,39 C45,39 44.4721669,40.0383117 43.9503093,41.2558442 C43.446378,42.1694805 40.3729951,45 35.1125904,45 C29.8521858,45 27.2428976,42.6136364 27.0058706,42 C26.7708355,41.3844156 26,39.8512987 26,39.8512987" id="Fill-309" fill="#E6E7E3"></path>
                </g>
            </g>
        </g>
    </g>
</svg>