<?xml version="1.0" encoding="UTF-8" standalone="no"?>
<svg width="70px" height="71px" viewBox="0 0 70 71" version="1.1" xmlns="http://www.w3.org/2000/svg" xmlns:xlink="http://www.w3.org/1999/xlink">
    <!-- Generator: Sketch 39.1 (31720) - http://www.bohemiancoding.com/sketch -->
    <title>budda_3</title>
    <desc>Created with Sketch.</desc>
    <defs></defs>
    <g id="1440" stroke="none" stroke-width="1" fill="none" fill-rule="evenodd">
        <g id="icons" transform="translate(-550.000000, -234.000000)">
            <g id="Group-3" transform="translate(310.000000, 230.000000)">
                <g id="budda_3" transform="translate(240.000000, 4.000000)">
                    <path d="M70,35 C70,54.3311046 54.3291045,70 35,70 C15.6708955,70 0,54.3311046 0,35 C0,15.6708955 15.6708955,0 35,0 C54.3291045,0 70,15.6708955 70,35" id="Fill-8" fill="#8770A5"></path>
                    <path d="M35.2056424,70.988371 C41.8001736,70.988371 48.2609375,68.1297245 48.2609375,68.1297245 L49.8921007,59.3311116 C49.8921007,59.3311116 52.896875,64.8317492 53.2243056,65.477703 C56.6703125,63.4876839 58,61.7865385 58,61.7865385 L54.2165799,52.2516987 C54.2165799,52.2516987 53.4539062,49.473295 50.1576389,48.2495937 C48.187066,47.519385 45.7173611,46.6026121 44.0462674,45.9807311 C42.9202257,45.563469 42.4909722,44.5183078 42.9661458,43.4510798 C43.6948785,41.8141285 44.7590278,39.4549929 45.4717882,38.0226606 C46.0827257,38.1771278 47.6440104,38.5903778 48.2529514,36.4478975 C49.2811632,35.9122774 50.6048611,34.8009159 50.6048611,32.4658531 C50.6048611,30.1287842 48.4446181,28.521924 48.4446181,28.521924 C48.4446181,28.521924 48.4346354,14 35.2056424,14 C21.9766493,14 21.9686632,28.521924 21.9686632,28.521924 C21.9686632,28.521924 19.8084201,30.1287842 19.8084201,32.4658531 C19.8084201,34.8009159 21.1321181,35.9122774 22.1583333,36.4478975 C22.7692708,38.5903778 24.3305556,38.1771278 24.9414931,38.0226606 C25.6522569,39.4549929 26.7164062,41.8141285 27.4471354,43.4510798 C27.922309,44.5183078 27.4930556,45.563469 26.3670139,45.9807311 C24.6959201,46.6026121 22.2262153,47.519385 20.2556424,48.2495937 C16.959375,49.473295 16.1967014,52.2516987 16.1967014,52.2516987 L12,62.8256815 C12,62.8256815 13.3496528,64.2279228 16.7976562,66.2159359 C17.1250868,65.5719882 20.5211806,59.3311116 20.5211806,59.3311116 L22.2801215,68.8238239 C22.2801215,68.8238239 27.6068576,71.1849656 35.2056424,70.988371" id="Fill-310" fill="#FFFFFF"></path>
                    <path d="M25,69.7574433 C26.0980926,68.3626735 43.7364517,46 43.7364517,46 L47.9654859,47.5721393 C47.9654859,47.5721393 50.1144414,48.1828549 51,48.9507845 C50.7520436,50.3294297 47.5640327,68.1026659 47.5640327,68.1026659 C47.5640327,68.1026659 37.2600666,73.3149123 25,69.7574433" id="Fill-311" fill="#EEA12D"></path>
                    <path d="" id="Fill-312" fill="#AF7560"></path>
                    <path d="" id="Fill-313" fill="#EAB97A"></path>
                    <path d="" id="Fill-314" fill="#AF7560"></path>
                    <path d="" id="Fill-315" fill="#EAB97A"></path>
                    <path d="M34.3230174,71 C33.8888383,71 33.4464672,70.9918892 33,70.9756675 L47.8194334,47 L49.0216179,47.4319027 C49.0216179,47.4319027 49.0216179,47.4339304 49.0236659,47.4339304 C49.027762,47.4359581 49.038002,47.4379858 49.0502901,47.4420412 L51,48.1395742 C51,48.1395742 39.4205257,69.9618114 39.0006827,70.6978709 C38.0299238,70.8235891 37.0038685,70.9168638 35.9307088,70.9655289 C35.4043691,70.9878337 34.8698373,71 34.3230174,71" id="Fill-316" fill="#E58B2E"></path>
                    <path d="M26,39.8529698 C26,39.8529698 27.7986162,43.1733204 35.1125904,43.1733204 C42.4265646,43.1733204 45,39 45,39 C45,39 44.4721669,40.0399221 43.9503093,41.2570594 C43.446378,42.1684518 40.3729951,45 35.1125904,45 C29.8521858,45 27.2428976,42.6144109 27.0058706,42.0009737 C26.7708355,41.3855891 26,39.8529698 26,39.8529698" id="Fill-317" fill="#E6E7E3"></path>
                </g>
            </g>
        </g>
    </g>
</svg>