<?xml version="1.0" encoding="UTF-8" standalone="no"?>
<svg width="70px" height="71px" viewBox="0 0 70 71" version="1.1" xmlns="http://www.w3.org/2000/svg" xmlns:xlink="http://www.w3.org/1999/xlink">
    <!-- Generator: Sketch 39.1 (31720) - http://www.bohemiancoding.com/sketch -->
    <title>budda_1</title>
    <desc>Created with Sketch.</desc>
    <defs></defs>
    <g id="1440" stroke="none" stroke-width="1" fill="none" fill-rule="evenodd">
        <g id="icons" transform="translate(-310.000000, -234.000000)">
            <g id="Group-3" transform="translate(310.000000, 230.000000)">
                <g id="budda_1" transform="translate(0.000000, 4.000000)">
                    <path d="M70,35 C70,54.3311046 54.3291045,70 35,70 C15.6708955,70 0,54.3311046 0,35 C0,15.6708955 15.6708955,0 35,0 C54.3291045,0 70,15.6708955 70,35" id="Fill-2" fill="#FF5456"></path>
                    <path d="M35.2056424,70.9881484 C41.8001736,70.9881484 48.2609375,68.1315192 48.2609375,68.1315192 L49.8921007,59.3329406 C49.8921007,59.3329406 52.896875,64.8335568 53.2243056,65.477502 C56.6703125,63.4894967 58,61.7863518 58,61.7863518 L54.2165799,52.2515493 C54.2165799,52.2515493 53.4539062,49.4731564 50.1576389,48.251466 C48.187066,47.5192541 45.7173611,46.6024848 44.0462674,45.9826123 C42.9202257,45.5653518 42.4909722,44.5201947 42.9661458,43.4529708 C43.6948785,41.8140199 44.7590278,39.4568996 45.4717882,38.0245728 C46.0827257,38.1790395 47.6440104,38.5922878 48.2529514,36.4478098 C49.2811632,35.9121918 50.6048611,34.8028407 50.6048611,32.465781 C50.6048611,30.1307273 48.4446181,28.5238734 48.4446181,28.5238734 C48.4446181,28.5238734 48.4346354,14 35.2056424,14 C21.9766493,14 21.9686632,28.5238734 21.9686632,28.5238734 C21.9686632,28.5238734 19.8084201,30.1307273 19.8084201,32.465781 C19.8084201,34.8028407 21.1321181,35.9121918 22.1583333,36.4478098 C22.7692708,38.5922878 24.3305556,38.1790395 24.9414931,38.0245728 C25.6522569,39.4568996 26.7164062,41.8140199 27.4471354,43.4529708 C27.922309,44.5201947 27.4930556,45.5653518 26.3670139,45.9826123 C24.6959201,46.6024848 22.2262153,47.5192541 20.2556424,48.251466 C16.959375,49.4731564 16.1967014,52.2515493 16.1967014,52.2515493 L12,62.8254909 C12,62.8254909 13.3496528,64.2277267 16.7976562,66.2177381 C17.1250868,65.5717868 20.5211806,59.3329406 20.5211806,59.3329406 L22.2801215,68.8236098 C22.2801215,68.8236098 27.6068576,71.1867483 35.2056424,70.9881484" id="Fill-293" fill="#FFFFFF"></path>
                    <path d="M25,69.7562213 C26.0980926,68.3634206 43.7364517,46 43.7364517,46 L47.9654859,47.5721918 C47.9654859,47.5721918 50.1144414,48.1829279 51,48.9488674 C50.7520436,50.3275587 47.5640327,68.1034043 47.5640327,68.1034043 C47.5640327,68.1034043 37.2600666,73.3158248 25,69.7562213" id="Fill-294" fill="#EEA12D"></path>
                    <path d="" id="Fill-295" fill="#EAB97A"></path>
                    <path d="" id="Fill-296" fill="#EAB97A"></path>
                    <path d="" id="Fill-297" fill="#C8622D"></path>
                    <path d="" id="Fill-298" fill="#EAB97A"></path>
                    <path d="M34.3230174,71 C33.8888383,71 33.4464672,70.9918892 33,70.9756675 L47.8194334,47 L49.0216179,47.4319027 C49.0216179,47.4319027 49.0216179,47.4319027 49.0236659,47.4339304 C49.027762,47.4339304 49.038002,47.4359581 49.0502901,47.4400135 L51,48.1395742 C51,48.1395742 39.4205257,69.9618114 39.0006827,70.6978709 C38.0299238,70.8235891 37.0038685,70.9168638 35.9307088,70.9635012 C35.4043691,70.9878337 34.8698373,71 34.3230174,71" id="Fill-299" fill="#E58B2E"></path>
                    <path d="M26,39.8512987 C26,39.8512987 27.7986162,43.1746753 35.1125904,43.1746753 C42.4265646,43.1746753 45,39 45,39 C45,39 44.4721669,40.0383117 43.9503093,41.2558442 C43.446378,42.1694805 40.3729951,45 35.1125904,45 C29.8521858,45 27.2428976,42.6155844 27.0058706,42 C26.7708355,41.3863636 26,39.8512987 26,39.8512987" id="Fill-300" fill="#E6E7E3"></path>
                </g>
            </g>
        </g>
    </g>
</svg>