<?xml version="1.0" encoding="UTF-8" standalone="no"?>
<svg width="899px" height="609px" viewBox="0 0 899 609" version="1.1" xmlns="http://www.w3.org/2000/svg" xmlns:xlink="http://www.w3.org/1999/xlink">
    <!-- Generator: sketchtool 39.1 (31720) - http://www.bohemiancoding.com/sketch -->
    <title>BD623019-EE2C-4FA5-8A87-EF2B019CA024</title>
    <desc>Created with sketchtool.</desc>
    <defs>
        <path d="M371.907338,426.96778 L367.155749,422.216191 L370.600651,418.771289 C371.1946,418.17734 371.07581,416.989443 370.244282,416.633073 L351.950663,408.674161 C350.881556,408.199003 349.812448,409.26811 350.287607,410.337218 L357.89015,429.105995 C358.246519,429.937523 359.315626,430.175103 360.028365,429.581154 L363.710846,425.898673 L368.462436,430.650262 C368.937595,431.125421 369.769123,431.125421 370.244282,430.650262 L372.144917,428.749626 C372.382497,428.274467 372.382497,427.442939 371.907338,426.96778 L371.907338,426.96778 Z" id="path-1"></path>
        <filter x="-50%" y="-50%" width="200%" height="200%" filterUnits="objectBoundingBox" id="filter-2">
            <feMorphology radius="0.5" operator="dilate" in="SourceAlpha" result="shadowSpreadOuter1"></feMorphology>
            <feOffset dx="0" dy="2" in="shadowSpreadOuter1" result="shadowOffsetOuter1"></feOffset>
            <feGaussianBlur stdDeviation="2" in="shadowOffsetOuter1" result="shadowBlurOuter1"></feGaussianBlur>
            <feComposite in="shadowBlurOuter1" in2="SourceAlpha" operator="out" result="shadowBlurOuter1"></feComposite>
            <feColorMatrix values="0 0 0 0 0   0 0 0 0 0   0 0 0 0 0  0 0 0 0.116847826 0" type="matrix" in="shadowBlurOuter1"></feColorMatrix>
        </filter>
    </defs>
    <g id="1440" stroke="none" stroke-width="1" fill="none" fill-rule="evenodd">
        <g id="1" transform="translate(-270.000000, -4172.000000)">
            <g id="5---illustration" transform="translate(270.000000, 3722.000000)">
                <g id="vkmix_illustrations" transform="translate(0.000000, 450.000000)">
                    <g id="Group">
                        <g id="bg" transform="translate(293.445378, 0.000000)">
                            <path d="M462.857143,302.521008 C462.857143,351.07563 451.361345,396.907563 431.092437,437.596639 C293.89916,315.680672 139.915966,173.94958 0.907563025,45.3781513 C47.1932773,16.6386555 101.798319,0 160.336134,0 C327.478992,0 462.857143,135.378151 462.857143,302.521008 L462.857143,302.521008 Z" id="Shape" fill="#A3C8F3"></path>
                            <path d="M605.042017,201.176471 C605.042017,237.932773 575.243697,267.731092 538.487395,267.731092 L538.487395,267.731092 C501.731092,267.731092 471.932773,237.932773 471.932773,201.176471 L471.932773,201.176471 C471.932773,164.420168 501.731092,134.621849 538.487395,134.621849 L538.487395,134.621849 C575.243697,134.621849 605.042017,164.420168 605.042017,201.176471 L605.042017,201.176471 L605.042017,201.176471 Z" id="Shape" fill="#D5DAE3"></path>
                            <path d="M492.352941,249.12605 L487.966387,276.05042 C487.512605,278.470588 490.235294,280.436975 492.352941,279.07563 L517.764706,264.252101 L492.352941,249.12605 L492.352941,249.12605 Z" id="Shape" fill="#D5DAE3"></path>
                        </g>
                        <g id="pics" transform="translate(0.000000, 45.378151)">
                            <path d="M453.781513,559.663866 C572.369748,559.663866 674.621849,491.445378 724.537815,392.067227 L724.537815,63.5294118 L662.521008,1.51260504 L293.445378,1.51260504 C293.445378,1.51260504 291.781513,2.11764706 288.907563,3.6302521 C206.168067,57.6302521 151.260504,150.957983 151.260504,257.142857 C151.411765,424.285714 286.789916,559.663866 453.781513,559.663866 L453.781513,559.663866 Z" id="Shape" fill="#F5F8FC"></path>
                            <path d="M186.201681,294.655462 L89.697479,294.655462 C76.6890756,294.655462 66.2521008,284.218487 66.2521008,271.210084 L66.2521008,271.210084 C66.2521008,258.201681 76.6890756,247.764706 89.697479,247.764706 L186.201681,247.764706 C199.210084,247.764706 209.647059,258.201681 209.647059,271.210084 L209.647059,271.210084 C209.647059,284.218487 199.210084,294.655462 186.201681,294.655462 L186.201681,294.655462 Z" id="Shape" fill="#F5F8FC"></path>
                            <path d="M288.907563,510.806723 C336.403361,541.663866 392.97479,559.663866 453.781513,559.663866 C569.94958,559.663866 670.537815,494.016807 721.512605,397.966387 L721.512605,71.092437 L288.907563,71.092437 L288.907563,510.806723 L288.907563,510.806723 Z" id="Shape" fill="#F0F3F7"></path>
                            <path d="M636.806723,449.243697 L417.478992,449.243697 C404.92437,449.243697 394.789916,459.07563 394.789916,471.176471 C394.789916,483.277311 404.92437,493.109244 417.478992,493.109244 L636.806723,493.109244 C638.470588,493.109244 640.134454,492.957983 641.647059,492.655462 C647.243697,488.420168 652.689076,483.882353 657.831933,479.193277 C658.890756,476.773109 659.344538,474.05042 659.344538,471.176471 C659.495798,459.07563 649.361345,449.243697 636.806723,449.243697 L636.806723,449.243697 Z" id="Shape" fill="#F8FAFB"></path>
                            <path d="M692.773109,358.487395 C692.773109,361.815126 690.05042,364.537815 686.722689,364.537815 L326.722689,364.537815 C323.394958,364.537815 320.672269,361.815126 320.672269,358.487395 L320.672269,108.907563 C320.672269,105.579832 323.394958,102.857143 326.722689,102.857143 L686.722689,102.857143 C690.05042,102.857143 692.773109,105.579832 692.773109,108.907563 L692.773109,358.487395 L692.773109,358.487395 Z" id="Shape" fill="#FFFFFF"></path>
                            <path d="M680.672269,349.411765 C680.672269,351.07563 679.310924,352.436975 677.647059,352.436975 L335.798319,352.436975 C334.134454,352.436975 332.773109,351.07563 332.773109,349.411765 L332.773109,130.084034 C332.773109,128.420168 334.134454,127.058824 335.798319,127.058824 L677.647059,127.058824 C679.310924,127.058824 680.672269,128.420168 680.672269,130.084034 L680.672269,349.411765 L680.672269,349.411765 Z" id="Shape" fill="#A3C8F3"></path>
                            <path d="M724.537815,71.092437 L215.848739,71.092437 C215.848739,71.092437 244.285714,31.0084034 294.352941,0 L694.285714,0 C694.285714,0 724.537815,0 724.537815,30.2521008 L724.537815,71.092437 L724.537815,71.092437 Z" id="Shape" fill="#D5DAE3"></path>
                            <path d="M446.218487,393.277311 C446.218487,394.941176 444.857143,396.302521 443.193277,396.302521 L420.504202,396.302521 C418.840336,396.302521 417.478992,394.941176 417.478992,393.277311 L417.478992,391.764706 C417.478992,390.10084 418.840336,388.739496 420.504202,388.739496 L443.193277,388.739496 C444.857143,388.739496 446.218487,390.10084 446.218487,391.764706 L446.218487,393.277311 L446.218487,393.277311 Z" id="Shape" fill="#E2E5EA"></path>
                            <path d="M552.10084,393.277311 C552.10084,394.941176 550.739496,396.302521 549.07563,396.302521 L538.487395,396.302521 C536.823529,396.302521 535.462185,394.941176 535.462185,393.277311 L535.462185,391.764706 C535.462185,390.10084 536.823529,388.739496 538.487395,388.739496 L549.07563,388.739496 C550.739496,388.739496 552.10084,390.10084 552.10084,391.764706 L552.10084,393.277311 L552.10084,393.277311 Z" id="Shape" fill="#E2E5EA"></path>
                            <path d="M527.89916,393.277311 C527.89916,394.941176 526.537815,396.302521 524.87395,396.302521 L456.806723,396.302521 C455.142857,396.302521 453.781513,394.941176 453.781513,393.277311 L453.781513,391.764706 C453.781513,390.10084 455.142857,388.739496 456.806723,388.739496 L524.87395,388.739496 C526.537815,388.739496 527.89916,390.10084 527.89916,391.764706 L527.89916,393.277311 L527.89916,393.277311 Z" id="Shape" fill="#E2E5EA"></path>
                            <path d="M677.647059,396.302521 L562.689076,396.302521 C561.02521,396.302521 559.663866,394.941176 559.663866,393.277311 L559.663866,391.764706 C559.663866,390.10084 561.02521,388.739496 562.689076,388.739496 L677.647059,388.739496 C679.310924,388.739496 680.672269,390.10084 680.672269,391.764706 L680.672269,393.277311 C680.672269,394.941176 679.310924,396.302521 677.647059,396.302521 L677.647059,396.302521 Z" id="Shape" fill="#E2E5EA"></path>
                            <path d="M468.907563,411.428571 C468.907563,413.092437 467.546218,414.453782 465.882353,414.453782 L420.504202,414.453782 C418.840336,414.453782 417.478992,413.092437 417.478992,411.428571 L417.478992,409.915966 C417.478992,408.252101 418.840336,406.890756 420.504202,406.890756 L465.882353,406.890756 C467.546218,406.890756 468.907563,408.252101 468.907563,409.915966 L468.907563,411.428571 L468.907563,411.428571 Z" id="Shape" fill="#E2E5EA"></path>
                            <path d="M615.630252,406.890756 L594.453782,406.890756 L479.495798,406.890756 C477.831933,406.890756 476.470588,408.252101 476.470588,409.915966 L476.470588,411.428571 C476.470588,413.092437 477.831933,414.453782 479.495798,414.453782 L594.453782,414.453782 L615.630252,414.453782 C617.294118,414.453782 618.655462,413.092437 618.655462,411.428571 L618.655462,409.915966 C618.655462,408.252101 617.294118,406.890756 615.630252,406.890756 L615.630252,406.890756 Z" id="Shape" fill="#E2E5EA"></path>
                            <path d="M581.445378,52.9411765 L230.521008,52.9411765 C230.521008,52.9411765 243.378151,38.7226891 252.151261,31.7647059 L581.294118,31.7647059 C587.344538,31.7647059 592.789916,36.302521 592.789916,42.3529412 L592.789916,42.2016807 C592.941176,48.2521008 587.495798,52.9411765 581.445378,52.9411765 L581.445378,52.9411765 Z" id="Shape" fill="#FFFFFF"></path>
                            <path d="M202.689076,357.428571 C202.689076,369.680672 192.705882,379.663866 180.453782,379.663866 L72.1512605,379.663866 C59.8991597,379.663866 49.9159664,369.680672 49.9159664,357.428571 L49.9159664,356.521008 C49.9159664,344.268908 59.8991597,334.285714 72.1512605,334.285714 L180.453782,334.285714 C192.705882,334.285714 202.689076,344.268908 202.689076,356.521008 L202.689076,357.428571 L202.689076,357.428571 Z" id="Shape" fill="#F5F8FC"></path>
                            <path d="M301.310924,305.546218 L162.907563,305.546218 C150.655462,305.546218 140.672269,295.563025 140.672269,283.310924 L140.672269,282.403361 C140.672269,270.151261 150.655462,260.168067 162.907563,260.168067 L301.310924,260.168067 L301.310924,305.546218 L301.310924,305.546218 Z" id="Shape" fill="#F0F3F7"></path>
                            <path d="M301.008403,232.941176 L243.983193,232.941176 C231.731092,232.941176 222.352941,222.655462 222.352941,210.403361 L222.352941,209.94958 C222.352941,197.697479 231.579832,187.563025 243.983193,187.563025 L301.008403,187.563025 L301.008403,232.941176 L301.008403,232.941176 Z" id="Shape" fill="#F0F3F7"></path>
                            <path d="M232.184874,145.512605 L135.680672,145.512605 C122.672269,145.512605 112.235294,135.07563 112.235294,122.067227 L112.235294,122.067227 C112.235294,109.058824 122.672269,98.6218487 135.680672,98.6218487 L232.184874,98.6218487 C245.193277,98.6218487 255.630252,109.058824 255.630252,122.067227 L255.630252,122.067227 C255.630252,134.92437 245.042017,145.512605 232.184874,145.512605 L232.184874,145.512605 Z" id="Shape" fill="#F5F8FC"></path>
                            <path d="M220.235294,438.806723 L163.512605,438.806723 C154.739496,438.806723 147.630252,431.697479 147.630252,422.92437 L147.630252,422.773109 C147.630252,414 154.739496,406.890756 163.512605,406.890756 L220.235294,406.890756 C229.008403,406.890756 236.117647,414 236.117647,422.773109 L236.117647,422.92437 C236.117647,431.697479 229.008403,438.806723 220.235294,438.806723 L220.235294,438.806723 Z" id="Shape" fill="#F5F8FC"></path>
                            <path d="M120.252101,438.806723 L120.252101,438.806723 C111.478992,438.806723 104.369748,431.697479 104.369748,422.92437 L104.369748,422.92437 C104.369748,414.151261 111.478992,407.042017 120.252101,407.042017 L120.252101,407.042017 C129.02521,407.042017 136.134454,414.151261 136.134454,422.92437 L136.134454,422.92437 C136.134454,431.697479 129.02521,438.806723 120.252101,438.806723 L120.252101,438.806723 Z" id="Shape" fill="#F5F8FC"></path>
                            <path d="M732.10084,375.882353 L724.537815,392.218487 L724.537815,122.067227 C724.537815,122.067227 729.680672,132.201681 732.10084,138.403361 L732.10084,375.882353 L732.10084,375.882353 Z" id="Shape" fill="#87B4E8"></path>
                            <polygon id="Shape" fill="#FFFFFF" opacity="0.6" points="724.537815 392.218487 721.512605 398.117647 721.512605 71.092437 724.537815 71.092437"></polygon>
                            <rect id="Rectangle-path" fill="#E1E9F2" x="721.512605" y="28.8907563" width="3.02521008" height="42.2016807"></rect>
                            <polygon id="Shape" fill="#E1E9F2" points="694.285714 3.02521008 289.512605 3.02521008 294.352941 0 694.285714 0"></polygon>
                            <path d="M721.512605,30.2521008 L721.512605,31.7647059 L724.537815,31.7647059 L724.537815,30.2521008 C724.537815,0 694.285714,0 694.285714,0 L673.109244,0 L673.109244,3.02521008 L694.285714,3.02521008 C709.260504,3.02521008 721.512605,13.7647059 721.512605,30.2521008 L721.512605,30.2521008 Z" id="Shape" fill="#E1E9F2"></path>
                            <path d="M252.605042,62.0168067 C252.605042,57.0252101 248.521008,52.9411765 243.529412,52.9411765 L202.689076,52.9411765 C197.697479,52.9411765 193.613445,57.0252101 193.613445,62.0168067 L193.613445,62.0168067 C193.613445,67.0084034 197.697479,71.092437 202.689076,71.092437 L243.529412,71.092437 C248.521008,71.092437 252.605042,67.0084034 252.605042,62.0168067 L252.605042,62.0168067 L252.605042,62.0168067 Z" id="Shape" fill="#D5DAE3"></path>
                            <path d="M302.521008,25.7142857 C302.521008,22.3865546 299.798319,19.6638655 296.470588,19.6638655 L249.579832,19.6638655 C246.252101,19.6638655 243.529412,22.3865546 243.529412,25.7142857 L243.529412,25.7142857 C243.529412,29.0420168 246.252101,31.7647059 249.579832,31.7647059 L296.470588,31.7647059 C299.798319,31.7647059 302.521008,29.0420168 302.521008,25.7142857 L302.521008,25.7142857 L302.521008,25.7142857 Z" id="Shape" fill="#D5DAE3"></path>
                            <path d="M317.647059,7.56302521 C317.647059,4.99159664 315.680672,3.02521008 313.109244,3.02521008 L263.193277,3.02521008 C260.621849,3.02521008 258.655462,4.99159664 258.655462,7.56302521 L258.655462,7.56302521 C258.655462,10.1344538 260.621849,12.1008403 263.193277,12.1008403 L313.109244,12.1008403 C315.680672,12.1008403 317.647059,10.1344538 317.647059,7.56302521 L317.647059,7.56302521 L317.647059,7.56302521 Z" id="Shape" fill="#D5DAE3"></path>
                            <circle id="Oval" fill="#FFFFFF" cx="630.756303" cy="42.3529412" r="10.5882353"></circle>
                            <circle id="Oval" fill="#FFFFFF" cx="661.008403" cy="42.3529412" r="10.5882353"></circle>
                            <circle id="Oval" fill="#FFFFFF" cx="691.260504" cy="42.3529412" r="10.5882353"></circle>
                            <path d="M871.260504,192.10084 C871.260504,198.756303 865.815126,204.201681 859.159664,204.201681 L810.756303,204.201681 C804.10084,204.201681 798.655462,198.756303 798.655462,192.10084 L798.655462,86.2184874 C798.655462,79.5630252 804.10084,74.1176471 810.756303,74.1176471 L859.159664,74.1176471 C865.815126,74.1176471 871.260504,79.5630252 871.260504,86.2184874 L871.260504,192.10084 L871.260504,192.10084 Z" id="Shape" fill="#F7F7F7"></path>
                            <path d="M860.672269,183.02521 C860.672269,185.596639 858.705882,187.563025 856.134454,187.563025 L813.781513,187.563025 C811.210084,187.563025 809.243697,185.596639 809.243697,183.02521 L809.243697,92.2689076 C809.243697,89.697479 811.210084,87.7310924 813.781513,87.7310924 L856.134454,87.7310924 C858.705882,87.7310924 860.672269,89.697479 860.672269,92.2689076 L860.672269,183.02521 L860.672269,183.02521 Z" id="Shape" fill="#B29CD0"></path>
                            <path d="M765.680672,161.697479 C765.680672,161.697479 767.647059,181.815126 778.235294,195.12605 L798.957983,195.12605 C798.655462,193.764706 798.655462,192.10084 798.655462,192.10084 L798.655462,130.084034 L765.680672,161.697479 L765.680672,161.697479 Z" id="Shape" fill="#F8C488"></path>
                            <path d="M819.07563,170.92437 L819.07563,170.92437 C817.865546,170.92437 816.806723,169.865546 816.806723,168.655462 L816.806723,159.579832 C816.806723,158.369748 817.865546,157.310924 819.07563,157.310924 L819.07563,157.310924 C820.285714,157.310924 821.344538,158.369748 821.344538,159.579832 L821.344538,168.655462 C821.344538,169.865546 820.285714,170.92437 819.07563,170.92437 L819.07563,170.92437 Z" id="Shape" fill="#FFFFFF"></path>
                            <path d="M837.226891,166.386555 L837.226891,166.386555 C836.016807,166.386555 834.957983,165.327731 834.957983,164.117647 L834.957983,159.579832 C834.957983,158.369748 836.016807,157.310924 837.226891,157.310924 L837.226891,157.310924 C838.436975,157.310924 839.495798,158.369748 839.495798,159.579832 L839.495798,164.117647 C839.495798,165.327731 838.436975,166.386555 837.226891,166.386555 L837.226891,166.386555 Z" id="Shape" fill="#FFFFFF"></path>
                            <path d="M828.151261,181.512605 L828.151261,181.512605 C826.941176,181.512605 825.882353,180.453782 825.882353,179.243697 L825.882353,159.579832 C825.882353,158.369748 826.941176,157.310924 828.151261,157.310924 L828.151261,157.310924 C829.361345,157.310924 830.420168,158.369748 830.420168,159.579832 L830.420168,179.243697 C830.420168,180.453782 829.361345,181.512605 828.151261,181.512605 L828.151261,181.512605 Z" id="Shape" fill="#FFFFFF"></path>
                            <path d="M853.260504,105.882353 L816.806723,105.882353 C815.142857,105.882353 813.932773,104.521008 813.932773,103.008403 L813.932773,95.2941176 C813.932773,93.6302521 815.294118,92.4201681 816.806723,92.4201681 L853.260504,92.4201681 C854.92437,92.4201681 856.134454,93.7815126 856.134454,95.2941176 L856.134454,103.008403 C856.134454,104.521008 854.773109,105.882353 853.260504,105.882353 L853.260504,105.882353 Z" id="Shape" fill="#A289C4"></path>
                            <path d="M853.260504,146.722689 L816.806723,146.722689 C815.142857,146.722689 813.932773,145.361345 813.932773,143.848739 L813.932773,113.445378 C813.932773,111.781513 815.294118,110.571429 816.806723,110.571429 L853.260504,110.571429 C854.92437,110.571429 856.134454,111.932773 856.134454,113.445378 L856.134454,143.848739 C856.134454,145.361345 854.773109,146.722689 853.260504,146.722689 L853.260504,146.722689 Z" id="Shape" fill="#A289C4"></path>
                            <path d="M845.546218,81.6806723 C845.546218,82.5882353 844.941176,83.1932773 844.033613,83.1932773 L825.882353,83.1932773 C824.97479,83.1932773 824.369748,82.5882353 824.369748,81.6806723 L824.369748,80.1680672 C824.369748,79.2605042 824.97479,78.6554622 825.882353,78.6554622 L844.033613,78.6554622 C844.941176,78.6554622 845.546218,79.2605042 845.546218,80.1680672 L845.546218,81.6806723 L845.546218,81.6806723 Z" id="Shape" fill="#D6DEE6"></path>
                            <path d="M833.445378,143.697479 C833.445378,134.773109 824.369748,134.621849 824.369748,134.621849 L794.571429,134.621849 C794.117647,134.621849 793.663866,134.773109 793.210084,134.92437 C790.638655,136.134454 780.655462,141.12605 777.630252,145.058824 C772.638655,151.714286 768.10084,158.067227 765.529412,161.697479 C766.739496,175.915966 771.882353,184.840336 771.882353,184.840336 C771.882353,184.840336 806.97479,186.05042 810.302521,152.92437 L824.218487,152.92437 C824.369748,152.773109 833.445378,152.621849 833.445378,143.697479 L833.445378,143.697479 Z" id="Shape" fill="#F8D5AC"></path>
                            <path d="M809.697479,157.310924 L799.411765,157.310924 C798.201681,157.310924 797.142857,156.252101 797.142857,155.042017 L797.142857,155.042017 C797.142857,153.831933 798.201681,152.773109 799.411765,152.773109 L810.453782,152.773109 L809.697479,157.310924 L809.697479,157.310924 Z" id="Shape" fill="#F8C488"></path>
                            <path d="M765.680672,161.697479 C765.680672,161.697479 773.848739,149.747899 777.781513,145.058824 C780.957983,141.277311 789.731092,136.739496 792.907563,135.226891 C793.663866,134.92437 794.420168,134.621849 795.176471,134.621849 L824.369748,134.621849 C824.369748,134.621849 833.445378,134.621849 833.445378,143.697479 C830.722689,137.042017 824.369748,137.647059 824.369748,137.647059 L796.689076,137.647059 C795.932773,137.647059 795.176471,137.798319 794.420168,138.10084 C791.394958,139.462185 782.621849,143.697479 778.840336,148.840336 C775.663866,153.07563 766.134454,166.386555 766.134454,166.386555 L765.680672,161.697479 L765.680672,161.697479 Z" id="Shape" fill="#FEDFBB"></path>
                            <circle id="Oval" fill="#D6DEE6" cx="834.201681" cy="195.882353" r="3.78151261"></circle>
                            <path d="M164.87395,379.663866 C172.436975,379.663866 178.487395,385.714286 178.487395,393.277311 C178.487395,400.840336 172.436975,406.890756 164.87395,406.890756 L202.689076,406.890756 L202.689076,379.663866 L164.87395,379.663866 L164.87395,379.663866 Z" id="Shape" fill="#F5F8FC"></path>
                            <path d="M264.705882,232.941176 C272.268908,232.941176 278.319328,238.991597 278.319328,246.554622 C278.319328,254.117647 272.268908,260.168067 264.705882,260.168067 L288.907563,260.168067 L288.907563,232.941176 L264.705882,232.941176 L264.705882,232.941176 Z" id="Shape" fill="#F0F3F7"></path>
                            <path d="M218.722689,305.546218 C231.579832,305.546218 242.016807,316.134454 242.016807,328.991597 C242.016807,341.848739 231.579832,352.436975 218.722689,352.436975 L260.168067,352.436975 L260.168067,305.546218 L218.722689,305.546218 L218.722689,305.546218 Z" id="Shape" fill="#F0F3F7"></path>
                            <path d="M92.1176471,243.378151 L100.739496,234.756303" id="Shape" stroke="#FFFFFF" stroke-width="3"></path>
                            <path d="M301.008403,155.798319 L225.831933,155.798319 C213.579832,155.798319 204.201681,145.512605 204.201681,133.260504 L204.201681,132.806723 C204.201681,120.554622 213.428571,110.420168 225.831933,110.420168 L301.008403,110.420168 L301.008403,155.798319 L301.008403,155.798319 Z" id="Shape" fill="#F0F3F7"></path>
                            <path d="M288.907563,397.815126 L188.92437,397.815126 C176.97479,397.815126 167.89916,388.134454 167.89916,376.184874 L167.89916,374.672269 C167.89916,362.268908 177.428571,352.285714 189.831933,352.285714 L288.907563,352.285714 L288.907563,397.815126 L288.907563,397.815126 Z" id="Shape" fill="#F0F3F7"></path>
                            <path d="M301.008403,518.218487 C290.722689,512.319328 281.042017,505.512605 275.445378,501.428571 C271.966387,498.857143 267.882353,497.647059 263.647059,497.647059 L256.689076,497.647059 C245.193277,497.647059 235.966387,488.420168 235.966387,476.92437 L235.966387,477.226891 C235.966387,464.97479 246.10084,455.142857 258.352941,455.142857 L301.008403,455.142857 L301.008403,518.218487 L301.008403,518.218487 Z" id="Shape" fill="#F0F3F7"></path>
                            <path d="M199.210084,438.806723 C210.705882,439.260504 214.638655,443.344538 219.02521,447.882353 C217.815126,445.613445 212.823529,436.840336 212.823529,436.840336 C212.823529,436.840336 206.016807,437.747899 199.210084,438.806723 L199.210084,438.806723 Z" id="Shape" fill="#F5F8FC"></path>
                            <rect id="Rectangle-path" fill="#F0F3F7" x="258.957983" y="304.033613" width="32.8235294" height="54.7563025"></rect>
                            <rect id="Rectangle-path" fill="#F5F8FC" x="273.327731" y="155.798319" width="29.3445378" height="31.7647059"></rect>
                            <path d="M280.588235,155.798319 C289.210084,155.798319 296.319328,163.058824 296.319328,171.680672 C296.319328,180.302521 289.210084,187.563025 280.588235,187.563025 L308.571429,187.563025 L308.571429,155.798319 L280.588235,155.798319 L280.588235,155.798319 Z" id="Shape" fill="#F0F3F7"></path>
                            <path d="M288.907563,424.588235 L288.907563,397.815126 L262.134454,397.815126 C262.134454,397.815126 285.428571,399.327731 288.907563,424.588235 L288.907563,424.588235 Z" id="Shape" fill="#F0F3F7"></path>
                            <path d="M288.907563,428.067227 L288.907563,455.294118 L262.134454,455.294118 C262.134454,455.294118 285.428571,453.176471 288.907563,428.067227 L288.907563,428.067227 Z" id="Shape" fill="#F0F3F7"></path>
                            <path d="M267.731092,110.420168 L288.907563,110.420168 L288.907563,89.2436975 C288.907563,89.2436975 287.394958,108.302521 267.731092,110.420168 L267.731092,110.420168 Z" id="Shape" fill="#F0F3F7"></path>
                            <path d="M158.218487,321.579832 C158.672269,323.546218 161.243697,334.285714 161.243697,334.285714 L146.420168,334.285714 C159.12605,332.168067 158.521008,324.302521 158.218487,321.579832 L158.218487,321.579832 Z" id="Shape" fill="#F5F8FC"></path>
                            <path d="M208.890756,79.7142857 L208.890756,98.6218487 L184.386555,98.6218487 C199.815126,96.5042017 208.890756,79.7142857 208.890756,79.7142857 L208.890756,79.7142857 Z" id="Shape" fill="#F5F8FC"></path>
                            <path d="M169.714286,153.378151 C170.319328,151.714286 172.739496,145.512605 172.739496,145.512605 L161.697479,145.512605 C168.05042,145.512605 169.865546,150.352941 169.714286,153.378151 L169.714286,153.378151 Z" id="Shape" fill="#F5F8FC"></path>
                            <path d="M155.042017,304.336134 C154.739496,301.008403 154.285714,293.89916 154.285714,293.89916 L143.546218,293.89916 C143.546218,293.89916 152.621849,294.957983 155.042017,304.336134 L155.042017,304.336134 Z" id="Shape" fill="#F5F8FC"></path>
                            <path d="M89.394958,304.033613 L89.394958,304.033613 C52.6386555,304.033613 22.8403361,274.235294 22.8403361,237.478992 L22.8403361,237.478992 C22.8403361,200.722689 52.6386555,170.92437 89.394958,170.92437 L89.394958,170.92437 C126.151261,170.92437 155.94958,200.722689 155.94958,237.478992 L155.94958,237.478992 C155.94958,274.235294 126.151261,304.033613 89.394958,304.033613 L89.394958,304.033613 Z" id="Shape" fill="#D5DAE3"></path>
                            <path d="M121.008403,265.159664 L3.02521008,265.159664 L3.02521008,207.226891 C3.02521008,202.235294 7.1092437,198.151261 12.1008403,198.151261 L111.932773,198.151261 C116.92437,198.151261 121.008403,202.235294 121.008403,207.226891 L121.008403,265.159664 L121.008403,265.159664 Z" id="Shape" fill="#F7F7F7"></path>
                            <path d="M113.445378,265.159664 L10.5882353,265.159664 L10.5882353,208.739496 C10.5882353,207.07563 11.9495798,205.714286 13.6134454,205.714286 L110.420168,205.714286 C112.084034,205.714286 113.445378,207.07563 113.445378,208.739496 L113.445378,265.159664 L113.445378,265.159664 Z" id="Shape" fill="#FFE99C"></path>
                            <path d="M117.680672,275.294118 L6.95798319,275.294118 C3.32773109,275.294118 0,272.87395 0,269.243697 L0,264.705882 L124.033613,264.705882 L124.033613,269.243697 C124.033613,272.87395 121.462185,275.294118 117.680672,275.294118 L117.680672,275.294118 Z" id="Shape" fill="#E1EAF2"></path>
                            <path d="M120.10084,295.865546 L144.907563,307.361345 C147.176471,308.420168 149.747899,306.453782 149.142857,304.033613 L141.428571,277.714286 L120.10084,295.865546 L120.10084,295.865546 Z" id="Shape" fill="#D5DAE3"></path>
                            <circle id="Oval" fill="#D6DEE6" cx="62.7731092" cy="201.932773" r="2.26890756"></circle>
                            <path d="M101.344538,258.655462 L65.0420168,258.655462 C63.3781513,258.655462 62.0168067,257.294118 62.0168067,255.630252 L62.0168067,229.915966 C62.0168067,228.252101 63.3781513,226.890756 65.0420168,226.890756 L101.344538,226.890756 C103.008403,226.890756 104.369748,228.252101 104.369748,229.915966 L104.369748,255.630252 C104.369748,257.294118 103.008403,258.655462 101.344538,258.655462 L101.344538,258.655462 Z" id="Shape" fill="#FFCD5C"></path>
                            <path d="M52.9411765,258.655462 L22.6890756,258.655462 C21.0252101,258.655462 19.6638655,257.294118 19.6638655,255.630252 L19.6638655,229.915966 C19.6638655,228.252101 21.0252101,226.890756 22.6890756,226.890756 L52.9411765,226.890756 C54.605042,226.890756 55.9663866,228.252101 55.9663866,229.915966 L55.9663866,255.630252 C55.9663866,257.294118 54.605042,258.655462 52.9411765,258.655462 L52.9411765,258.655462 Z" id="Shape" fill="#FFCD5C"></path>
                            <path d="M36.302521,217.815126 C36.302521,219.478992 34.9411765,220.840336 33.2773109,220.840336 L22.6890756,220.840336 C21.0252101,220.840336 19.6638655,219.478992 19.6638655,217.815126 L19.6638655,214.789916 C19.6638655,213.12605 21.0252101,211.764706 22.6890756,211.764706 L33.2773109,211.764706 C34.9411765,211.764706 36.302521,213.12605 36.302521,214.789916 L36.302521,217.815126 L36.302521,217.815126 Z" id="Shape" fill="#FFCD5C"></path>
                            <path d="M104.369748,217.815126 C104.369748,219.478992 103.008403,220.840336 101.344538,220.840336 L46.8907563,220.840336 C45.2268908,220.840336 43.8655462,219.478992 43.8655462,217.815126 L43.8655462,214.789916 C43.8655462,213.12605 45.2268908,211.764706 46.8907563,211.764706 L101.344538,211.764706 C103.008403,211.764706 104.369748,213.12605 104.369748,214.789916 L104.369748,217.815126 L104.369748,217.815126 Z" id="Shape" fill="#FFCD5C"></path>
                            <path d="M76.2352941,238.386555 L80.0168067,242.168067" id="Shape" stroke="#FFFFFF" stroke-width="3"></path>
                            <path d="M86.0672269,240.655462 L86.0672269,234.756303" id="Shape" stroke="#FFFFFF" stroke-width="3"></path>
                            <path d="M76.8403361,248.067227 L71.697479,248.067227" id="Shape" stroke="#FFFFFF" stroke-width="3"></path>
                            <path d="M97.5630252,238.386555 L93.7815126,242.168067" id="Shape" stroke="#FFFFFF" stroke-width="3"></path>
                            <path d="M80.3193277,254.87395 L75.7815126,259.563025" id="Shape" stroke="#FFFFFF" stroke-width="3"></path>
                            <path d="M68.0672269,269.243697 L55.9663866,269.243697 C55.0588235,269.243697 54.4537815,268.638655 54.4537815,267.731092 L54.4537815,264.705882 L69.5798319,264.705882 L69.5798319,267.731092 C69.5798319,268.638655 68.9747899,269.243697 68.0672269,269.243697 L68.0672269,269.243697 Z" id="Shape" fill="#C1D0DE"></path>
                            <path d="M98.7731092,259.411765 L96.0504202,256.689076 L98.0168067,254.722689 C98.3193277,254.420168 98.3193277,253.663866 97.7142857,253.512605 L87.1260504,248.97479 C86.5210084,248.672269 85.9159664,249.277311 86.0672269,249.882353 L90.4537815,260.773109 C90.605042,261.226891 91.3613445,261.378151 91.6638655,261.07563 L93.7815126,258.957983 L96.5042017,261.680672 C96.8067227,261.983193 97.2605042,261.983193 97.5630252,261.680672 L98.6218487,260.621849 C99.0756303,260.168067 99.0756303,259.714286 98.7731092,259.411765 L98.7731092,259.411765 Z" id="Shape" fill="#525861"></path>
                            <path d="M187.563025,133.109244 C187.563025,145.663866 177.428571,155.798319 164.87395,155.798319 L164.87395,155.798319 C152.319328,155.798319 142.184874,145.663866 142.184874,133.109244 L142.184874,133.109244 C142.184874,120.554622 152.319328,110.420168 164.87395,110.420168 L164.87395,110.420168 C177.428571,110.420168 187.563025,120.554622 187.563025,133.109244 L187.563025,133.109244 L187.563025,133.109244 Z" id="Shape" fill="#F0F3F7"></path>
                            <path d="M320.672269,204.201681 L254.420168,204.201681 C245.94958,204.201681 238.991597,197.243697 238.991597,188.773109 L238.991597,188.773109 C238.991597,180.302521 245.94958,173.344538 254.420168,173.344538 L320.672269,173.344538 L320.672269,204.201681 L320.672269,204.201681 Z" id="Shape" fill="#FFFFFF"></path>
                            <path d="M320.672269,263.495798 L307.058824,263.495798 C298.588235,263.495798 291.630252,256.537815 291.630252,248.067227 L291.630252,248.067227 C291.630252,239.596639 298.588235,232.638655 307.058824,232.638655 L320.672269,232.638655 L320.672269,263.495798 L320.672269,263.495798 Z" id="Shape" fill="#FFFFFF"></path>
                            <path d="M309.327731,173.94958 L320.672269,173.94958 L320.672269,162.605042 C320.672269,162.605042 319.915966,172.890756 309.327731,173.94958 L309.327731,173.94958 Z" id="Shape" fill="#FFFFFF"></path>
                            <path d="M309.327731,204.201681 L320.672269,204.201681 L320.672269,216.302521 C320.672269,216.302521 319.915966,205.714286 309.327731,204.201681 L309.327731,204.201681 Z" id="Shape" fill="#FFFFFF"></path>
                            <path d="M309.327731,263.193277 L320.672269,263.193277 L320.672269,275.294118 C320.672269,275.294118 319.915966,264.705882 309.327731,263.193277 L309.327731,263.193277 Z" id="Shape" fill="#FFFFFF"></path>
                            <path d="M309.327731,232.941176 L320.672269,232.941176 L320.672269,220.840336 C320.672269,220.840336 319.915966,231.428571 309.327731,232.941176 L309.327731,232.941176 Z" id="Shape" fill="#FFFFFF"></path>
                            <path d="M205.714286,204.201681 L205.714286,204.201681 C197.394958,204.201681 190.588235,197.394958 190.588235,189.07563 L190.588235,189.07563 C190.588235,180.756303 197.394958,173.94958 205.714286,173.94958 L205.714286,173.94958 C214.033613,173.94958 220.840336,180.756303 220.840336,189.07563 L220.840336,189.07563 C220.840336,197.394958 214.033613,204.201681 205.714286,204.201681 L205.714286,204.201681 Z" id="Shape" fill="#FFFFFF"></path>
                            <path d="M680.672269,238.991597 L332.773109,238.991597 L332.773109,117.983193 C332.773109,116.319328 334.134454,114.957983 335.798319,114.957983 L677.647059,114.957983 C679.310924,114.957983 680.672269,116.319328 680.672269,117.983193 L680.672269,238.991597 L680.672269,238.991597 Z" id="Shape" fill="#B5E8FF"></path>
                            <path d="M623.193277,213.277311 L598.991597,213.277311 C598.991597,206.621849 604.436975,201.176471 611.092437,201.176471 C617.747899,201.176471 623.193277,206.621849 623.193277,213.277311 L623.193277,213.277311 Z" id="Shape" fill="#CFF0FF"></path>
                            <path d="M664.033613,213.277311 L639.831933,213.277311 C639.831933,206.621849 645.277311,201.176471 651.932773,201.176471 C658.588235,201.176471 664.033613,206.621849 664.033613,213.277311 L664.033613,213.277311 Z" id="Shape" fill="#CFF0FF"></path>
                            <path d="M648.453782,213.277311 C651.478992,209.647059 653.445378,204.806723 653.445378,199.663866 C653.445378,188.016807 643.915966,178.487395 632.268908,178.487395 C620.621849,178.487395 611.092437,188.016807 611.092437,199.663866 C611.092437,204.806723 612.907563,209.647059 616.084034,213.277311 L648.453782,213.277311 L648.453782,213.277311 Z" id="Shape" fill="#CFF0FF"></path>
                            <path d="M539.092437,267.12605 C532.588235,264.252101 529.260504,257.747899 528.655462,254.87395 C528.504202,253.815126 529.109244,252.756303 530.319328,252.756303 C531.680672,252.756303 533.798319,252.907563 536.067227,253.058824 C533.344538,250.336134 532.285714,247.008403 531.680672,244.890756 C531.529412,243.831933 532.285714,242.92437 533.344538,243.07563 L541.210084,243.983193 C541.210084,243.983193 542.420168,231.731092 543.630252,224.016807 C544.235294,224.621849 548.621849,228.10084 548.621849,228.10084 L571.159664,260.016807 L571.310924,260.319328 C571.159664,260.016807 546.05042,263.495798 539.092437,267.12605 L539.092437,267.12605 Z" id="Shape" fill="#996750"></path>
                            <path d="M543.478992,224.319328 C543.478992,224.319328 544.840336,254.268908 566.621849,260.773109 C568.285714,260.470588 571.008403,260.016807 571.008403,260.016807 L548.470588,227.94958 L543.478992,224.319328 L543.478992,224.319328 Z" id="Shape" fill="#8A5B46"></path>
                            <path d="M677.647059,352.436975 L335.798319,352.436975 C334.134454,352.436975 332.773109,351.07563 332.773109,349.411765 L332.773109,299.495798 L680.672269,299.495798 L680.672269,349.411765 C680.672269,351.07563 679.310924,352.436975 677.647059,352.436975 L677.647059,352.436975 Z" id="Shape" fill="#FFE99C"></path>
                            <path d="M651.176471,317.647059 L640.588235,317.647059 C639.378151,317.647059 638.319328,316.588235 638.319328,315.378151 L638.319328,315.378151 C638.319328,314.168067 639.378151,313.109244 640.588235,313.109244 L651.176471,313.109244 C652.386555,313.109244 653.445378,314.168067 653.445378,315.378151 L653.445378,315.378151 C653.445378,316.588235 652.386555,317.647059 651.176471,317.647059 L651.176471,317.647059 Z" id="Shape" fill="#FFF2C7"></path>
                            <path d="M680.672269,325.210084 L673.865546,325.210084 C672.655462,325.210084 671.596639,324.151261 671.596639,322.941176 L671.596639,322.941176 C671.596639,321.731092 672.655462,320.672269 673.865546,320.672269 L680.672269,320.672269 L680.672269,325.210084 L680.672269,325.210084 Z" id="Shape" fill="#FFF2C7"></path>
                            <path d="M680.672269,346.386555 L676.890756,346.386555 C675.680672,346.386555 674.621849,345.478992 674.621849,344.117647 L674.621849,344.117647 C674.621849,342.907563 675.680672,341.848739 676.890756,341.848739 L680.672269,341.848739 L680.672269,346.386555 L680.672269,346.386555 Z" id="Shape" fill="#FFF2C7"></path>
                            <path d="M657.831933,334.285714 L653.294118,334.285714 C652.084034,334.285714 651.02521,333.226891 651.02521,332.016807 L651.02521,332.016807 C651.02521,330.806723 652.084034,329.747899 653.294118,329.747899 L657.831933,329.747899 C659.042017,329.747899 660.10084,330.806723 660.10084,332.016807 L660.10084,332.016807 C660.10084,333.226891 659.042017,334.285714 657.831933,334.285714 L657.831933,334.285714 Z" id="Shape" fill="#FFF2C7"></path>
                            <path d="M642.705882,344.87395 L638.168067,344.87395 L638.621849,340.336134 L642.857143,340.336134 C644.067227,340.336134 645.12605,341.394958 645.12605,342.605042 L645.12605,342.605042 C644.97479,343.815126 643.915966,344.87395 642.705882,344.87395 L642.705882,344.87395 Z" id="Shape" fill="#FFF2C7"></path>
                            <path d="M358.487395,315.378151 C358.487395,316.588235 357.428571,317.647059 356.218487,317.647059 L341.092437,317.647059 C339.882353,317.647059 338.823529,316.588235 338.823529,315.378151 L338.823529,315.378151 C338.823529,314.168067 339.882353,313.109244 341.092437,313.109244 L356.218487,313.109244 C357.428571,313.109244 358.487395,314.168067 358.487395,315.378151 L358.487395,315.378151 L358.487395,315.378151 Z" id="Shape" fill="#FFF2C7"></path>
                            <path d="M397.361345,325.210084 L390.554622,325.210084 C389.344538,325.210084 388.285714,324.151261 388.285714,322.941176 L388.285714,322.941176 C388.285714,321.731092 389.344538,320.672269 390.554622,320.672269 L398.117647,320.672269 L397.361345,325.210084 L397.361345,325.210084 Z" id="Shape" fill="#FFF2C7"></path>
                            <path d="M365.294118,334.285714 L359.243697,334.285714 C358.033613,334.285714 356.97479,333.226891 356.97479,332.016807 L356.97479,332.016807 C356.97479,330.806723 358.033613,329.747899 359.243697,329.747899 L365.294118,329.747899 C366.504202,329.747899 367.563025,330.806723 367.563025,332.016807 L367.563025,332.016807 C367.563025,333.226891 366.504202,334.285714 365.294118,334.285714 L365.294118,334.285714 Z" id="Shape" fill="#FFF2C7"></path>
                            <path d="M337.310924,344.87395 L332.773109,344.87395 L332.773109,340.336134 L337.310924,340.336134 C338.521008,340.336134 339.579832,341.394958 339.579832,342.605042 L339.579832,342.605042 C339.579832,343.815126 338.672269,344.87395 337.310924,344.87395 L337.310924,344.87395 Z" id="Shape" fill="#FFF2C7"></path>
                            <path d="M262.436975,12.1008403 C264.705882,12.1008403 266.369748,13.6134454 266.369748,15.8823529 C266.369748,18.1512605 264.554622,19.6638655 262.436975,19.6638655 L278.319328,19.6638655 L278.319328,12.1008403 L262.436975,12.1008403 L262.436975,12.1008403 Z" id="Shape" fill="#D5DAE3"></path>
                            <circle id="Oval" fill="#F8FAFB" cx="341.848739" cy="471.932773" r="22.6890756"></circle>
                            <path d="M794.117647,496.134454 C794.117647,532.890756 764.319328,562.689076 727.563025,562.689076 L727.563025,562.689076 C690.806723,562.689076 661.008403,532.890756 661.008403,496.134454 L661.008403,496.134454 C661.008403,459.378151 690.806723,429.579832 727.563025,429.579832 L727.563025,429.579832 C764.319328,429.579832 794.117647,459.378151 794.117647,496.134454 L794.117647,496.134454 L794.117647,496.134454 Z" id="Shape" fill="#D5DAE3"></path>
                            <path d="M803.193277,526.386555 C803.193277,533.042017 797.747899,538.487395 791.092437,538.487395 L692.773109,538.487395 C686.117647,538.487395 680.672269,533.042017 680.672269,526.386555 L680.672269,465.882353 C680.672269,459.226891 686.117647,453.781513 692.773109,453.781513 L791.092437,453.781513 C797.747899,453.781513 803.193277,459.226891 803.193277,465.882353 L803.193277,526.386555 L803.193277,526.386555 Z" id="Shape" fill="#F7F7F7"></path>
                            <path d="M788.067227,527.89916 L695.798319,527.89916 C693.226891,527.89916 691.260504,525.932773 691.260504,523.361345 L691.260504,468.907563 C691.260504,466.336134 693.226891,464.369748 695.798319,464.369748 L788.067227,464.369748 C790.638655,464.369748 792.605042,466.336134 792.605042,468.907563 L792.605042,523.361345 C792.605042,525.932773 790.638655,527.89916 788.067227,527.89916 L788.067227,527.89916 Z" id="Shape" fill="#96E3DE"></path>
                            <path d="M780.504202,518.823529 L703.361345,518.823529 C701.697479,518.823529 700.336134,517.462185 700.336134,515.798319 L700.336134,491.596639 C700.336134,489.932773 701.697479,488.571429 703.361345,488.571429 L780.504202,488.571429 C782.168067,488.571429 783.529412,489.932773 783.529412,491.596639 L783.529412,515.798319 C783.529412,517.462185 782.168067,518.823529 780.504202,518.823529 L780.504202,518.823529 Z" id="Shape" fill="#59D4CB"></path>
                            <path d="M717.882353,543.02521 L714.705882,547.411765 C713.344538,549.378151 712.890756,551.798319 713.647059,554.218487 L715.915966,561.630252 C715.915966,561.630252 741.932773,567.378151 765.529412,550.890756 L765.529412,540 C765.529412,540 765.378151,535.462185 760.991597,535.462185 C756.756303,535.462185 756.453782,540 756.453782,540 L756.453782,533.94958 C756.453782,533.94958 756.453782,529.411765 750.403361,529.411765 C747.529412,529.411765 745.865546,532.436975 745.865546,532.436975 C745.865546,532.436975 745.563025,527.747899 741.327731,526.386555 C737.092437,525.02521 733.764706,527.89916 733.764706,527.89916 L733.764706,512.773109 C733.764706,512.773109 733.764706,506.722689 727.714286,506.722689 C721.815126,506.722689 721.663866,512.773109 721.663866,512.773109 L721.663866,541.512605 L721.058824,541.512605 C719.697479,541.512605 718.487395,542.117647 717.882353,543.02521 L717.882353,543.02521 Z" id="Shape" fill="#F8D5AC"></path>
                            <circle id="Oval" fill="#D6DEE6" cx="685.966387" cy="495.378151" r="2.26890756"></circle>
                            <path d="M713.94958,482.521008 L703.361345,482.521008 C701.697479,482.521008 700.336134,481.159664 700.336134,479.495798 L700.336134,476.470588 C700.336134,474.806723 701.697479,473.445378 703.361345,473.445378 L713.94958,473.445378 C715.613445,473.445378 716.97479,474.806723 716.97479,476.470588 L716.97479,479.495798 C716.97479,481.159664 715.613445,482.521008 713.94958,482.521008 L713.94958,482.521008 Z" id="Shape" fill="#59D4CB"></path>
                            <path d="M780.504202,482.521008 L729.07563,482.521008 C727.411765,482.521008 726.05042,481.159664 726.05042,479.495798 L726.05042,476.470588 C726.05042,474.806723 727.411765,473.445378 729.07563,473.445378 L780.504202,473.445378 C782.168067,473.445378 783.529412,474.806723 783.529412,476.470588 L783.529412,479.495798 C783.529412,481.159664 782.168067,482.521008 780.504202,482.521008 L780.504202,482.521008 Z" id="Shape" fill="#59D4CB"></path>
                            <path d="M712.436975,513.529412 L715.462185,513.529412" id="Shape" stroke="#FFFFFF" stroke-width="3"></path>
                            <path d="M726.806723,500.672269 L726.806723,497.647059" id="Shape" stroke="#FFFFFF" stroke-width="3"></path>
                            <path d="M701.394958,436.386555 L677.344538,423.680672 C675.07563,422.470588 672.504202,424.285714 672.957983,426.857143 L679.310924,453.630252 L701.394958,436.386555 L701.394958,436.386555 Z" id="Shape" fill="#D5DAE3"></path>
                            <path d="M715.764706,561.630252 L713.798319,554.97479 C713.798319,554.97479 712.285714,550.739496 714.554622,547.714286 C715.915966,545.747899 717.579832,543.327731 718.184874,542.722689 C719.697479,541.210084 721.663866,541.512605 721.663866,541.512605 L721.663866,512.773109 C721.663866,512.773109 721.815126,507.630252 726.201681,506.87395 C724.689076,509.445378 724.689076,512.773109 724.689076,512.773109 L724.689076,543.02521 C724.689076,543.932773 723.932773,544.537815 723.176471,544.537815 L722.268908,544.537815 C721.210084,544.537815 720.151261,545.142857 719.697479,545.89916 L717.277311,549.680672 C716.521008,551.042017 716.369748,552.554622 716.823529,554.067227 L719.243697,561.932773 L715.764706,561.630252 L715.764706,561.630252 Z" id="Shape" fill="#FEDFBB"></path>
                            <path d="M735.882353,544.537815 L735.882353,544.537815 C734.672269,544.537815 733.613445,543.478992 733.613445,542.268908 L733.613445,527.89916 C733.613445,527.89916 735.882353,526.084034 738.151261,526.084034 L738.151261,542.268908 C738.151261,543.478992 737.092437,544.537815 735.882353,544.537815 L735.882353,544.537815 Z" id="Shape" fill="#F8C488"></path>
                            <path d="M747.983193,546.201681 L747.983193,546.201681 C746.773109,546.201681 745.714286,545.142857 745.714286,543.932773 L745.714286,532.588235 C745.714286,532.588235 747.226891,529.411765 750.252101,529.411765 L750.252101,543.932773 C750.252101,545.142857 749.193277,546.201681 747.983193,546.201681 L747.983193,546.201681 Z" id="Shape" fill="#F8C488"></path>
                            <path d="M758.571429,546.05042 L758.571429,546.05042 C757.361345,546.05042 756.302521,544.991597 756.302521,543.781513 L756.302521,540 C756.302521,540 756.605042,535.462185 760.840336,535.462185 L760.840336,543.781513 C760.840336,544.991597 759.781513,546.05042 758.571429,546.05042 L758.571429,546.05042 Z" id="Shape" fill="#F8C488"></path>
                            <path d="M718.336134,504.453782 L716.823529,502.941176" id="Shape" stroke="#FFFFFF" stroke-width="3"></path>
                            <path d="M742.689076,513.529412 L739.663866,513.529412" id="Shape" stroke="#FFFFFF" stroke-width="3"></path>
                            <path d="M736.638655,504.453782 L738.151261,502.941176" id="Shape" stroke="#FFFFFF" stroke-width="3"></path>
                            <path d="M449.243697,462.857143 C449.243697,464.521008 447.882353,465.882353 446.218487,465.882353 L420.504202,465.882353 C418.840336,465.882353 417.478992,464.521008 417.478992,462.857143 L417.478992,461.344538 C417.478992,459.680672 418.840336,458.319328 420.504202,458.319328 L446.218487,458.319328 C447.882353,458.319328 449.243697,459.680672 449.243697,461.344538 L449.243697,462.857143 L449.243697,462.857143 Z" id="Shape" fill="#F0F3F7"></path>
                            <path d="M512.773109,481.008403 C512.773109,482.672269 511.411765,484.033613 509.747899,484.033613 L420.504202,484.033613 C418.840336,484.033613 417.478992,482.672269 417.478992,481.008403 L417.478992,479.495798 C417.478992,477.831933 418.840336,476.470588 420.504202,476.470588 L509.747899,476.470588 C511.411765,476.470588 512.773109,477.831933 512.773109,479.495798 L512.773109,481.008403 L512.773109,481.008403 Z" id="Shape" fill="#F0F3F7"></path>
                            <path d="M583.865546,481.008403 C583.865546,482.672269 582.504202,484.033613 580.840336,484.033613 L529.411765,484.033613 C527.747899,484.033613 526.386555,482.672269 526.386555,481.008403 L526.386555,479.495798 C526.386555,477.831933 527.747899,476.470588 529.411765,476.470588 L580.840336,476.470588 C582.504202,476.470588 583.865546,477.831933 583.865546,479.495798 L583.865546,481.008403 L583.865546,481.008403 Z" id="Shape" fill="#F0F3F7"></path>
                            <path d="M617.142857,462.857143 C617.142857,464.521008 615.781513,465.882353 614.117647,465.882353 L465.882353,465.882353 C464.218487,465.882353 462.857143,464.521008 462.857143,462.857143 L462.857143,461.344538 C462.857143,459.680672 464.218487,458.319328 465.882353,458.319328 L614.117647,458.319328 C615.781513,458.319328 617.142857,459.680672 617.142857,461.344538 L617.142857,462.857143 L617.142857,462.857143 Z" id="Shape" fill="#F0F3F7"></path>
                            <path d="M399.327731,399.327731 C399.327731,409.310924 391.159664,417.478992 381.176471,417.478992 L338.823529,417.478992 C328.840336,417.478992 320.672269,409.310924 320.672269,399.327731 L320.672269,399.327731 C320.672269,389.344538 328.840336,381.176471 338.823529,381.176471 L381.176471,381.176471 C391.159664,381.176471 399.327731,389.344538 399.327731,399.327731 L399.327731,399.327731 L399.327731,399.327731 Z" id="Shape" fill="#FFFFFF"></path>
                            <circle id="Oval" fill="#ED5564" cx="338.823529" cy="399.327731" r="24.2016807"></circle>
                            <path d="M340.336134,411.428571 C339.277311,412.033613 338.067227,412.033613 337.008403,411.428571 C333.680672,409.159664 326.571429,403.865546 325.663866,399.176471 C324.605042,394.487395 326.87395,389.94958 331.714286,389.495798 C336.252101,389.042017 338.067227,391.764706 338.672269,393.12605 C339.277311,391.764706 341.394958,389.042017 345.932773,389.495798 C350.773109,389.94958 353.042017,394.487395 351.983193,399.176471 C350.92437,403.865546 343.663866,409.159664 340.336134,411.428571 L340.336134,411.428571 Z" id="Shape" fill="#FFFFFF"></path>
                            <g id="Shape">
                                <use fill="black" fill-opacity="1" filter="url(#filter-2)" xlink:href="#path-1"></use>
                                <use stroke="#FFFFFF" stroke-width="1" fill="#525861" fill-rule="evenodd" xlink:href="#path-1"></use>
                            </g>
                            <rect id="Rectangle-path" x="360" y="391.764706" width="36.302521" height="27.2268908"></rect>
                            <text id="12" fill="#E2E5EA" font-family="Helvetica" font-size="12" font-weight="normal">
                                <tspan x="368.349731" y="399.231412">12</tspan>
                            </text>
                            <path d="M297.983193,346.386555 C297.983193,351.378151 293.89916,355.462185 288.907563,355.462185 L288.907563,355.462185 C283.915966,355.462185 279.831933,351.378151 279.831933,346.386555 L279.831933,346.386555 C279.831933,341.394958 283.915966,337.310924 288.907563,337.310924 L288.907563,337.310924 C293.89916,337.310924 297.983193,341.394958 297.983193,346.386555 L297.983193,346.386555 L297.983193,346.386555 Z" id="Shape" fill="#FFFFFF"></path>
                            <path d="M305.243697,385.109244 C304.336134,385.714286 303.12605,385.714286 302.218487,385.109244 C299.193277,382.991597 292.537815,378.151261 291.630252,373.764706 C290.722689,369.378151 292.689076,365.142857 297.226891,364.840336 C301.462185,364.537815 303.12605,366.957983 303.731092,368.168067 C304.336134,366.806723 306.151261,364.386555 310.537815,364.840336 C315.07563,365.294118 317.042017,369.378151 316.134454,373.764706 C315.07563,378 308.268908,382.991597 305.243697,385.109244 L305.243697,385.109244 Z" id="Shape" fill="#ED5564"></path>
                            <path d="M393.277311,186.05042 L369.07563,186.05042 C369.07563,179.394958 374.521008,173.94958 381.176471,173.94958 C387.831933,173.94958 393.277311,179.394958 393.277311,186.05042 L393.277311,186.05042 Z" id="Shape" fill="#CFF0FF"></path>
                            <path d="M434.117647,186.05042 L409.915966,186.05042 C409.915966,179.394958 415.361345,173.94958 422.016807,173.94958 C428.672269,173.94958 434.117647,179.394958 434.117647,186.05042 L434.117647,186.05042 Z" id="Shape" fill="#CFF0FF"></path>
                            <path d="M360.756303,276.806723 L332.773109,276.806723 L332.773109,272.268908 L360.756303,272.268908 C361.966387,272.268908 363.02521,273.327731 363.02521,274.537815 L363.02521,274.537815 C363.02521,275.747899 361.966387,276.806723 360.756303,276.806723 L360.756303,276.806723 Z" id="Shape" fill="#B0D5FF"></path>
                            <path d="M406.890756,263.94958 C406.890756,265.159664 405.831933,266.218487 404.621849,266.218487 L372.857143,266.218487 C371.647059,266.218487 370.588235,265.159664 370.588235,263.94958 L370.588235,263.94958 C370.588235,262.739496 371.647059,261.680672 372.857143,261.680672 L404.621849,261.680672 C405.831933,261.680672 406.890756,262.739496 406.890756,263.94958 L406.890756,263.94958 L406.890756,263.94958 Z" id="Shape" fill="#B0D5FF"></path>
                            <path d="M397.815126,274.537815 C397.815126,275.747899 396.756303,276.806723 395.546218,276.806723 L389.495798,276.806723 C388.285714,276.806723 387.226891,275.747899 387.226891,274.537815 L387.226891,274.537815 C387.226891,273.327731 388.285714,272.268908 389.495798,272.268908 L395.546218,272.268908 C396.756303,272.268908 397.815126,273.327731 397.815126,274.537815 L397.815126,274.537815 L397.815126,274.537815 Z" id="Shape" fill="#B0D5FF"></path>
                            <path d="M426.554622,247.310924 C426.554622,248.521008 425.495798,249.579832 424.285714,249.579832 L404.621849,249.579832 C403.411765,249.579832 402.352941,248.521008 402.352941,247.310924 L402.352941,247.310924 C402.352941,246.10084 403.411765,245.042017 404.621849,245.042017 L424.285714,245.042017 C425.495798,245.042017 426.554622,246.10084 426.554622,247.310924 L426.554622,247.310924 L426.554622,247.310924 Z" id="Shape" fill="#B0D5FF"></path>
                            <path d="M656.470588,270 C656.470588,271.210084 655.411765,272.268908 654.201681,272.268908 L622.436975,272.268908 C621.226891,272.268908 620.168067,271.210084 620.168067,270 L620.168067,270 C620.168067,268.789916 621.226891,267.731092 622.436975,267.731092 L654.201681,267.731092 C655.411765,267.731092 656.470588,268.789916 656.470588,270 L656.470588,270 L656.470588,270 Z" id="Shape" fill="#B0D5FF"></path>
                            <path d="M676.134454,247.310924 C676.134454,248.521008 675.07563,249.579832 673.865546,249.579832 L654.201681,249.579832 C652.991597,249.579832 651.932773,248.521008 651.932773,247.310924 L651.932773,247.310924 C651.932773,246.10084 652.991597,245.042017 654.201681,245.042017 L673.865546,245.042017 C675.07563,245.042017 676.134454,246.10084 676.134454,247.310924 L676.134454,247.310924 L676.134454,247.310924 Z" id="Shape" fill="#B0D5FF"></path>
                            <polygon id="Shape" fill="#F8D5AC" points="506.722689 352.436975 450 352.436975 450 258.05042 476.621849 248.218487 506.722689 258.05042"></polygon>
                            <path d="M500.672269,352.436975 L455.294118,352.436975 L455.294118,285.277311 C455.294118,285.277311 464.067227,295.411765 477.983193,295.411765 C491.89916,295.411765 500.672269,285.579832 500.672269,285.579832 L500.672269,352.436975 L500.672269,352.436975 Z" id="Shape" fill="#FFFFFF"></path>
                            <path d="M680.672269,305.546218 L650.420168,305.546218 L654.806723,297.07563 C655.865546,294.957983 658.134454,293.445378 660.705882,293.445378 L680.672269,293.445378 L680.672269,305.546218 L680.672269,305.546218 Z" id="Shape" fill="#FFE99C"></path>
                            <path d="M332.621849,305.546218 L362.87395,305.546218 L358.487395,297.07563 C357.428571,294.957983 355.159664,293.445378 352.588235,293.445378 L332.621849,293.445378 L332.621849,305.546218 L332.621849,305.546218 Z" id="Shape" fill="#FFE99C"></path>
                            <rect id="Rectangle-path" fill="#FFE99C" x="592.941176" y="291.932773" width="30.2521008" height="12.1008403"></rect>
                            <path d="M530.92437,272.571429 C530.92437,272.571429 538.638655,265.159664 552.10084,263.042017 C565.714286,260.92437 583.865546,258.05042 583.865546,258.05042 C583.865546,258.05042 609.579832,269.394958 617.294118,272.571429 C627.12605,276.655462 642.705882,287.394958 641.042017,308.722689 C639.226891,333.226891 637.411765,352.285714 637.411765,352.285714 L529.411765,352.285714 L530.92437,272.571429 L530.92437,272.571429 Z" id="Shape" fill="#F8D5AC"></path>
                            <path d="M546.504202,270.453782 C543.176471,268.336134 538.789916,267.428571 538.789916,267.428571 L535.764706,269.092437 L545.747899,274.235294 C545.747899,274.235294 546.352941,271.058824 546.504202,270.453782 L546.504202,270.453782 Z" id="Shape" fill="#F8C488"></path>
                            <path d="M613.210084,352.436975 L614.571429,341.092437 C614.571429,341.092437 622.285714,335.94958 623.042017,324.605042 C623.647059,315.680672 617.294118,308.420168 614.420168,305.697479 C613.663866,304.941176 613.210084,303.882353 613.361345,302.823529 L615.176471,271.663866 L606.554622,268.033613 L602.470588,299.798319 C602.168067,301.462185 601.714286,302.672269 599.596639,302.521008 C597.478992,302.218487 551.193277,296.92437 551.193277,296.92437 C551.193277,296.92437 554.97479,263.647059 555.12605,262.436975 C551.344538,262.890756 547.563025,263.798319 547.563025,263.798319 L541.512605,296.470588 L538.941176,352.436975 L613.210084,352.436975 L613.210084,352.436975 Z" id="Shape" fill="#9CE3A5"></path>
                            <path d="M545.747899,274.235294 C545.747899,274.235294 546.05042,272.268908 546.504202,270.453782 C551.495798,273.932773 553.613445,277.260504 553.613445,277.260504 L552.10084,290.117647 L545.747899,274.235294 L545.747899,274.235294 Z" id="Shape" fill="#89D493"></path>
                            <path d="M507.932773,255.781513 L503.394958,260.92437 C501.731092,262.890756 500.672269,265.310924 500.672269,267.882353 L500.672269,352.436975 L552.10084,352.436975 L552.10084,288 C552.10084,281.495798 549.07563,275.445378 543.02521,272.722689 L507.932773,255.781513 L507.932773,255.781513 Z" id="Shape" fill="#FF9EBE"></path>
                            <path d="M448.638655,255.781513 L452.571429,260.92437 C454.235294,262.890756 455.294118,265.310924 455.294118,267.882353 L455.294118,352.436975 L392.97479,352.436975 L401.294118,303.882353 L401.142857,303.882353 L403.865546,288 C405.07563,281.193277 406.890756,275.445378 412.941176,272.722689 L448.638655,255.781513 L448.638655,255.781513 Z" id="Shape" fill="#FF9EBE"></path>
                            <rect id="Rectangle-path" fill="#F8D5AC" x="526.386555" y="305.546218" width="25.7142857" height="46.8907563"></rect>
                            <rect id="Rectangle-path" fill="#F8C488" x="526.386555" y="305.546218" width="25.7142857" height="6.05042017"></rect>
                            <path d="M477.529412,260.773109 C466.184874,260.773109 462.857143,252.605042 462.857143,252.605042 L491.596639,252.605042 C491.596639,252.605042 488.87395,260.773109 477.529412,260.773109 L477.529412,260.773109 Z" id="Shape" fill="#F8C488"></path>
                            <rect id="Rectangle-path" fill="#F288AA" x="523.361345" y="302.521008" width="3.02521008" height="49.9159664"></rect>
                            <polygon id="Shape" fill="#89D493" points="559.663866 352.436975 552.10084 352.436975 552.10084 297.07563 559.663866 297.831933"></polygon>
                            <path d="M511.865546,321.579832 C511.865546,326.117647 508.235294,329.747899 503.697479,329.747899 L503.697479,313.411765 C508.235294,313.411765 511.865546,317.042017 511.865546,321.579832 L511.865546,321.579832 Z" id="Shape" fill="#FFB5CD"></path>
                            <path d="M452.268908,308.571429 C448.033613,308.571429 444.705882,305.243697 444.705882,301.008403 C444.705882,296.773109 448.033613,293.445378 452.268908,293.445378 L452.268908,308.571429 L452.268908,308.571429 Z" id="Shape" fill="#FFB5CD"></path>
                            <ellipse id="Oval" fill="#FFB5CD" cx="526.386555" cy="277.563025" rx="4.84033613" ry="4.84033613"></ellipse>
                            <ellipse id="Oval" fill="#FFB5CD" cx="422.470588" cy="291.932773" rx="4.84033613" ry="4.84033613"></ellipse>
                            <path d="M523.361345,350.92437 C519.428571,350.92437 517.310924,347.596639 517.310924,344.87395 C517.310924,342.151261 519.428571,338.823529 523.361345,338.823529 L523.361345,350.92437 L523.361345,350.92437 Z" id="Shape" fill="#FFB5CD"></path>
                            <path d="M552.10084,302.521008 C549.07563,302.521008 547.563025,300.10084 547.563025,297.983193 C547.563025,295.865546 549.07563,293.445378 552.10084,293.445378 L552.10084,302.521008 L552.10084,302.521008 Z" id="Shape" fill="#FFB5CD"></path>
                            <path d="M461.344538,352.436975 L455.294118,352.436975 L455.294118,285.277311 C455.294118,285.277311 457.260504,287.697479 461.344538,290.268908 L461.344538,352.436975 L461.344538,352.436975 Z" id="Shape" fill="#F5F8FC"></path>
                            <path d="M526.386555,297.07563 C526.386555,296.168067 525.02521,295.714286 524.420168,296.470588 L519.12605,303.428571 C518.067227,304.638655 518.97479,305.546218 519.882353,305.546218 L526.235294,305.546218 L526.235294,297.07563 L526.386555,297.07563 Z" id="Shape" fill="#F288AA"></path>
                            <rect id="Rectangle-path" fill="#FEDFBB" x="526.386555" y="311.596639" width="3.02521008" height="40.8403361"></rect>
                            <polygon id="Shape" fill="#F8D5AC" points="393.12605 352.436975 401.445378 303.882353 426.554622 308.268908 418.235294 352.436975"></polygon>
                            <polygon id="Shape" fill="#FEDFBB" points="396.302521 352.436975 392.672269 352.436975 401.142857 303.882353 404.773109 304.487395"></polygon>
                            <path d="M625.915966,235.512605 L624.10084,252 C624.10084,252 626.521008,252.453782 632.268908,253.361345 C633.02521,253.512605 633.478992,254.117647 633.327731,254.87395 C631.966387,260.773109 626.369748,263.94958 626.369748,263.94958 C626.369748,263.94958 630.756303,265.915966 634.386555,267.579832 C635.294118,268.033613 635.596639,269.243697 634.991597,270 C631.512605,274.840336 623.94958,275.89916 623.94958,275.89916 L616.235294,271.966387 C616.235294,271.966387 601.714286,265.613445 592.941176,262.285714 C595.512605,260.319328 621.07563,235.966387 621.07563,235.966387 L625.915966,235.512605 L625.915966,235.512605 Z" id="Shape" fill="#996750"></path>
                            <path d="M593.546218,262.739496 C593.546218,262.739496 614.117647,260.470588 621.07563,236.117647 C621.983193,235.966387 622.739496,235.966387 623.798319,235.966387 C618.05042,263.193277 597.478992,264.252101 597.478992,264.252101 L593.546218,262.739496 L593.546218,262.739496 Z" id="Shape" fill="#8A5B46"></path>
                            <path d="M535.764706,269.092437 C542.117647,265.159664 547.714286,263.94958 547.714286,263.94958 C547.714286,263.94958 547.563025,264.705882 547.411765,265.462185 C539.848739,267.882353 537.731092,270 537.731092,270 C537.731092,270 536.369748,269.394958 535.764706,269.092437 L535.764706,269.092437 Z" id="Shape" fill="#FEDFBB"></path>
                            <polygon id="Shape" fill="#FEDFBB" points="554.97479 264.705882 572.218487 261.831933 571.159664 260.016807 555.277311 262.588235"></polygon>
                            <path d="M581.89916,267.428571 C573.579832,266.521008 571.159664,260.168067 571.159664,260.168067 L593.546218,262.739496 C593.546218,262.739496 590.067227,268.336134 581.89916,267.428571 L581.89916,267.428571 Z" id="Shape" fill="#F8C488"></path>
                            <polygon id="Shape" fill="#AAE8A9" points="547.714286 271.361345 549.226891 263.647059 547.714286 263.94958 546.504202 270.453782"></polygon>
                            <path d="M602.470588,300.403361 C602.773109,297.529412 606.554622,268.184874 606.554622,268.184874 L608.823529,269.092437 C608.823529,269.092437 605.193277,297.529412 604.890756,300.705882 C604.588235,303.882353 602.016807,305.092437 599.142857,304.789916 C596.268908,304.487395 559.663866,300.252101 559.663866,300.252101 L559.663866,297.983193 L599.89916,302.672269 C599.89916,302.521008 602.168067,302.97479 602.470588,300.403361 L602.470588,300.403361 Z" id="Shape" fill="#AAE8A9"></path>
                            <path d="M621.07563,236.117647 C621.07563,236.117647 630.302521,237.176471 631.663866,228.252101 C633.02521,219.327731 623.344538,217.361345 623.344538,217.361345 L621.07563,236.117647 L621.07563,236.117647 Z" id="Shape" fill="#F8D5AC"></path>
                            <path d="M621.07563,236.117647 L622.436975,224.168067 L624.554622,224.773109 C624.554622,224.773109 623.042017,235.815126 623.042017,236.117647 C622.285714,236.268908 621.07563,236.117647 621.07563,236.117647 L621.07563,236.117647 Z" id="Shape" fill="#F8C488"></path>
                            <path d="M550.890756,204.806723 C550.890756,204.806723 541.361345,204.504202 540.151261,214.336134 C538.941176,223.714286 548.621849,227.94958 548.621849,227.94958 L550.890756,204.806723 L550.890756,204.806723 Z" id="Shape" fill="#F8D5AC"></path>
                            <path d="M550.890756,204.806723 L548.621849,227.94958 C548.621849,227.94958 547.260504,227.344538 546.352941,226.588235 C546.352941,226.134454 548.773109,205.411765 548.773109,205.411765 L550.890756,204.806723 L550.890756,204.806723 Z" id="Shape" fill="#F8C488"></path>
                            <path d="M622.134454,226.739496 C622.134454,226.739496 627.12605,227.798319 627.731092,223.109244 C627.882353,222.352941 627.882353,222.201681 628.184874,219.630252 C629.546218,220.537815 631.058824,223.109244 631.058824,223.109244 C631.058824,223.109244 632.87395,206.319328 634.235294,196.487395 C635.294118,188.470588 628.941176,156.403361 594.151261,152.773109 C553.764706,148.084034 546.05042,183.932773 545.294118,190.739496 C544.537815,197.394958 543.478992,209.647059 543.478992,209.647059 C543.478992,209.647059 543.630252,212.369748 546.352941,212.97479 C549.07563,213.579832 550.285714,212.067227 550.285714,211.008403 C550.285714,209.94958 554.218487,187.714286 554.97479,183.781513 C569.495798,203.142857 623.798319,207.07563 623.798319,207.07563 L622.134454,226.739496 L622.134454,226.739496 Z" id="Shape" fill="#996750"></path>
                            <path d="M623.647059,204.05042 C623.647059,204.05042 611.394958,203.445378 600.352941,190.436975 C599.89916,194.97479 598.991597,197.394958 598.386555,198.605042 C597.932773,199.512605 596.87395,199.966387 595.815126,199.966387 C590.067227,199.361345 566.773109,196.184874 554.97479,183.630252 C553.008403,185.596639 552.554622,190.436975 552.554622,190.436975 C552.554622,190.436975 549.07563,220.840336 548.621849,226.890756 C548.016807,232.941176 554.97479,260.016807 582.352941,262.890756 C609.882353,265.764706 620.016807,243.680672 621.07563,236.268908 C621.529412,232.184874 624.403361,207.378151 624.554622,205.865546 C624.705882,204.352941 623.647059,204.05042 623.647059,204.05042 L623.647059,204.05042 Z" id="Shape" fill="#F8D5AC"></path>
                            <path d="M572.823529,240.957983 C572.521008,240.957983 572.218487,241.109244 572.218487,241.563025 C572.218487,245.647059 574.941176,251.848739 583.109244,252.907563 C590.672269,253.815126 594.907563,248.218487 595.966387,244.588235 C596.117647,243.831933 595.663866,243.07563 594.907563,243.07563 C590.218487,242.470588 576.302521,241.260504 572.823529,240.957983 L572.823529,240.957983 Z" id="Shape" fill="#FFFFFF"></path>
                            <circle id="Oval" fill="#CFA372" transform="translate(569.438859, 213.997417) rotate(-88.153557) translate(-569.438859, -213.997417) " cx="569.438859" cy="213.997417" r="2.72274146"></circle>
                            <circle id="Oval" fill="#CFA372" transform="translate(604.664457, 215.130139) rotate(-88.153557) translate(-604.664457, -215.130139) " cx="604.664457" cy="215.130139" r="2.72274146"></circle>
                            <path d="M579.478992,226.890756 C579.478992,226.890756 582.201681,233.243697 589.764706,230.218487" id="Shape" stroke="#F8C488" stroke-width="2"></path>
                            <path d="M599.596639,209.193277 C599.596639,209.193277 607.915966,204.201681 614.571429,212.369748" id="Shape" stroke="#CFA372" stroke-width="2"></path>
                            <path d="M575.243697,207.680672 C575.243697,207.680672 566.92437,202.689076 560.268908,210.857143" id="Shape" stroke="#CFA372" stroke-width="2"></path>
                            <path d="M554.823529,183.630252 C554.823529,183.630252 552.857143,185.596639 552.403361,190.134454 C551.94958,194.672269 548.470588,227.798319 548.470588,227.798319 C548.470588,227.798319 549.983193,250.487395 571.008403,259.865546 C558,250.184874 551.193277,234.907563 552.252101,226.890756 C553.159664,218.87395 557.092437,186.504202 557.243697,185.747899 C556.033613,184.840336 554.823529,183.630252 554.823529,183.630252 L554.823529,183.630252 Z" id="Shape" fill="#FEDFBB"></path>
                            <path d="M552.10084,297.07563 L552.10084,290.117647 L553.613445,277.260504 C553.613445,277.260504 560.268908,284.067227 559.663866,297.831933 C558.756303,297.680672 552.10084,297.07563 552.10084,297.07563 L552.10084,297.07563 Z" id="Shape" fill="#F8C488"></path>
                            <path d="M530.92437,536.218487 L530.92437,536.218487 C530.92437,523.210084 520.487395,512.773109 507.478992,512.773109 L348.655462,512.773109 C335.647059,512.773109 325.210084,523.210084 325.210084,536.218487 L325.210084,536.218487 C325.210084,549.226891 335.647059,559.663866 348.655462,559.663866 L450.756303,559.663866 L450.756303,559.663866 L453.478992,559.663866 C478.436975,559.663866 502.638655,556.638655 525.781513,551.042017 C528.957983,546.957983 530.92437,541.815126 530.92437,536.218487 L530.92437,536.218487 Z" id="Shape" fill="#F8FAFB"></path>
                            <path d="M507.932773,255.781513 L497.042017,251.243697 C497.042017,251.243697 495.07563,252.302521 492.504202,253.512605 C493.714286,253.815126 505.966387,257.89916 505.966387,257.89916 L507.932773,255.781513 L507.932773,255.781513 Z" id="Shape" fill="#F288AA"></path>
                            <path d="M514.739496,270.302521 L510.655462,257.142857 L507.932773,255.781513 C507.932773,255.781513 503.697479,260.621849 503.092437,261.226891 C500.369748,264.252101 500.672269,267.731092 500.672269,267.731092 L500.672269,352.436975 L503.697479,352.436975 L503.697479,278.92437 L513.378151,273.478992 C514.588235,273.02521 515.193277,271.512605 514.739496,270.302521 L514.739496,270.302521 Z" id="Shape" fill="#FFB5CD"></path>
                            <path d="M441.831933,270.302521 L445.915966,257.142857 L448.638655,255.781513 C448.638655,255.781513 452.571429,260.621849 453.176471,261.226891 C455.89916,264.252101 455.142857,267.731092 455.142857,267.731092 L455.142857,352.436975 L452.117647,352.436975 L452.117647,278.92437 L442.739496,273.478992 C441.680672,273.02521 441.378151,271.512605 441.831933,270.302521 L441.831933,270.302521 Z" id="Shape" fill="#FFB5CD"></path>
                            <polygon id="Shape" fill="#FEDFBB" points="450.453782 257.89916 462.857143 253.361345 464.369748 255.02521 451.815126 259.563025"></polygon>
                            <path d="M365.294118,369.831933 C364.235294,370.588235 362.722689,370.588235 361.663866,369.831933 C358.033613,367.411765 350.319328,361.663866 349.260504,356.521008 C348.201681,351.378151 350.470588,346.537815 355.764706,346.084034 C360.756303,345.630252 362.571429,348.504202 363.327731,350.016807 C364.084034,348.504202 366.201681,345.630252 371.193277,346.084034 C376.487395,346.537815 378.907563,351.378151 377.697479,356.521008 C376.789916,361.663866 368.92437,367.411765 365.294118,369.831933 L365.294118,369.831933 Z" id="Shape" fill="#ED5564"></path>
                            <path d="M428.823529,319.159664 C427.915966,319.159664 427.159664,319.462185 426.554622,319.915966 L426.554622,325.966387 C427.159664,326.420168 427.915966,326.722689 428.823529,326.722689 C430.941176,326.722689 432.605042,325.058824 432.605042,322.941176 C432.605042,320.823529 430.941176,319.159664 428.823529,319.159664 L428.823529,319.159664 Z" id="Shape" fill="#FFB5CD"></path>
                            <polygon id="Shape" fill="#F288AA" points="448.638655 255.781513 458.621849 251.394958 462.857143 253.361345 450.453782 257.89916"></polygon>
                            <polygon id="Shape" fill="#FFE99C" points="426.554622 308.268908 426.554622 352.436975 418.235294 352.436975"></polygon>
                            <path d="M404.773109,304.487395 C404.773109,304.487395 407.647059,286.638655 408.252101,283.915966 C408.857143,281.193277 409.462185,277.260504 416.420168,274.084034 C424.285714,270.453782 444.705882,261.226891 444.705882,261.226891 L445.915966,257.142857 C445.915966,257.142857 416.268908,271.058824 413.092437,272.571429 C409.915966,274.084034 406.285714,276.806723 404.92437,283.462185 C403.411765,290.571429 401.142857,304.033613 401.142857,304.033613 L404.773109,304.487395 L404.773109,304.487395 Z" id="Shape" fill="#FFA6C3"></path>
                            <polygon id="Shape" fill="#F8C488" points="425.495798 313.865546 403.714286 310.386555 404.773109 304.487395 426.554622 308.268908"></polygon>
                            <path d="M515.798319,169.411765 L515.798319,223.865546 C515.798319,230.067227 506.268908,256.084034 477.831933,256.084034 C449.394958,256.084034 438.655462,229.915966 438.655462,223.865546 L438.655462,169.411765 L515.798319,169.411765 L515.798319,169.411765 Z" id="Shape" fill="#F8D5AC"></path>
                            <path d="M488.571429,231.428571 C489.327731,231.428571 489.932773,232.184874 489.781513,232.941176 C489.02521,235.815126 486.302521,242.016807 477.983193,242.016807 C469.663866,242.016807 467.092437,235.966387 466.184874,232.941176 C466.033613,232.184874 466.638655,231.428571 467.394958,231.428571 L488.571429,231.428571 L488.571429,231.428571 Z" id="Shape" fill="#FFFFFF"></path>
                            <path d="M438.655462,169.411765 L438.655462,223.865546 C438.655462,223.865546 441.680672,246.252101 466.184874,254.571429 C447.428571,243.831933 441.680672,228.403361 441.680672,220.840336 L441.680672,169.411765 L438.655462,169.411765 L438.655462,169.411765 Z" id="Shape" fill="#FEDFBB"></path>
                            <path d="M466.184874,220.386555 C466.184874,220.386555 470.722689,225.983193 479.344538,222.05042" id="Shape" stroke="#F8C488" stroke-width="2"></path>
                            <path d="M552.705882,188.319328 C554.218487,190.134454 567.07563,199.966387 593.243697,204.05042 C601.563025,205.411765 601.411765,199.663866 601.411765,199.663866 C601.411765,199.663866 608.521008,206.016807 623.94958,209.495798 C624.10084,208.134454 624.10084,207.680672 624.403361,206.168067 C624.705882,204.655462 623.495798,204.201681 623.495798,204.201681 C623.495798,204.201681 610.638655,202.840336 600.201681,190.588235 C600.352941,193.159664 598.991597,200.268908 596.117647,200.117647 C565.411765,197.243697 554.823529,183.781513 554.823529,183.781513 C554.823529,183.781513 553.310924,185.142857 552.705882,188.319328 L552.705882,188.319328 Z" id="Shape" fill="#F8C488"></path>
                            <path d="M517.310924,155.193277 C517.310924,155.193277 519.12605,146.420168 515.042017,141.277311 C510.352941,134.621849 479.042017,125.848739 468.302521,123.12605 C466.941176,122.823529 465.731092,124.184874 466.487395,125.546218 L469.361345,131.142857 C468,131.142857 456.352941,129.478992 449.697479,128.420168 C448.184874,128.268908 447.277311,129.932773 448.184874,131.142857 L454.386555,138.252101 L426.403361,144.151261 C425.042017,144.453782 424.588235,146.117647 425.647059,147.02521 L434.571429,155.344538 L429.579832,160.336134 C428.672269,161.243697 429.277311,162.907563 430.487395,162.907563 L431.243697,162.907563 C431.697479,167.142857 435.176471,201.478992 435.176471,201.478992 L438.655462,199.512605 L438.655462,169.260504 L511.260504,169.260504 L511.260504,181.966387 C511.260504,183.327731 512.319328,184.386555 513.680672,184.386555 L515.798319,184.386555 L515.798319,199.512605 L518.97479,201.478992 L521.848739,169.411765 C521.848739,169.411765 522.151261,166.689076 522.605042,161.848739 C523.058824,156.252101 517.310924,155.193277 517.310924,155.193277 L517.310924,155.193277 Z" id="Shape" fill="#8F604B"></path>
                            <circle id="Oval" fill="#CFA372" cx="493.109244" cy="205.714286" r="3.02521008"></circle>
                            <circle id="Oval" fill="#CFA372" cx="459.831933" cy="205.714286" r="3.02521008"></circle>
                            <path d="M515.798319,222.352941 C515.798319,222.352941 523.361345,219.781513 523.361345,210.252101 C523.361345,200.722689 515.798319,199.663866 515.798319,199.663866 L515.798319,222.352941 L515.798319,222.352941 Z" id="Shape" fill="#F8D5AC"></path>
                            <path d="M518.823529,220.537815 C517.915966,221.445378 515.798319,222.352941 515.798319,222.352941 L515.798319,199.663866 C515.798319,199.663866 517.462185,199.663866 518.823529,200.87395 L518.823529,220.537815 L518.823529,220.537815 Z" id="Shape" fill="#F8C488"></path>
                            <path d="M438.655462,222.352941 C438.655462,222.352941 431.092437,219.781513 431.092437,210.252101 C431.092437,200.722689 438.655462,199.663866 438.655462,199.663866 L438.655462,222.352941 L438.655462,222.352941 Z" id="Shape" fill="#F8D5AC"></path>
                            <path d="M435.630252,220.537815 C437.142857,221.445378 438.655462,222.352941 438.655462,222.352941 L438.655462,199.663866 C438.655462,199.663866 437.142857,199.663866 435.630252,200.87395 L435.630252,220.537815 L435.630252,220.537815 Z" id="Shape" fill="#F8C488"></path>
                            <rect id="Rectangle-path" fill="#F8C488" x="438.655462" y="169.411765" width="72.605042" height="6.05042017"></rect>
                            <path d="M462.857143,530.92437 C462.857143,532.588235 461.495798,533.94958 459.831933,533.94958 L350.92437,533.94958 C349.260504,533.94958 347.89916,532.588235 347.89916,530.92437 L347.89916,529.411765 C347.89916,527.747899 349.260504,526.386555 350.92437,526.386555 L459.831933,526.386555 C461.495798,526.386555 462.857143,527.747899 462.857143,529.411765 L462.857143,530.92437 L462.857143,530.92437 Z" id="Shape" fill="#F0F3F7"></path>
                            <path d="M443.193277,549.07563 C443.193277,550.739496 441.831933,552.10084 440.168067,552.10084 L350.92437,552.10084 C349.260504,552.10084 347.89916,550.739496 347.89916,549.07563 L347.89916,547.563025 C347.89916,545.89916 349.260504,544.537815 350.92437,544.537815 L440.168067,544.537815 C441.831933,544.537815 443.193277,545.89916 443.193277,547.563025 L443.193277,549.07563 L443.193277,549.07563 Z" id="Shape" fill="#F0F3F7"></path>
                            <path d="M487.058824,549.07563 C487.058824,550.739496 485.697479,552.10084 484.033613,552.10084 L453.781513,552.10084 C452.117647,552.10084 450.756303,550.739496 450.756303,549.07563 L450.756303,547.563025 C450.756303,545.89916 452.117647,544.537815 453.781513,544.537815 L484.033613,544.537815 C485.697479,544.537815 487.058824,545.89916 487.058824,547.563025 L487.058824,549.07563 L487.058824,549.07563 Z" id="Shape" fill="#F0F3F7"></path>
                            <polygon id="Shape" fill="#FBD09F" points="400.084034 309.630252 403.714286 310.386555 404.773109 304.487395 401.142857 303.882353"></polygon>
                            <rect id="Rectangle-path" fill="#FBD09F" x="438.655462" y="169.411765" width="3.02521008" height="6.05042017"></rect>
                            <path d="M418.537815,186.05042 C421.563025,182.420168 423.529412,177.579832 423.529412,172.436975 C423.529412,160.789916 414,151.260504 402.352941,151.260504 C390.705882,151.260504 381.176471,160.789916 381.176471,172.436975 C381.176471,177.579832 382.991597,182.420168 386.168067,186.05042 L418.537815,186.05042 L418.537815,186.05042 Z" id="Shape" fill="#CFF0FF"></path>
                            <path d="M661.008403,280.588235 C661.008403,281.798319 659.94958,282.857143 658.739496,282.857143 L652.689076,282.857143 C651.478992,282.857143 650.420168,281.798319 650.420168,280.588235 L650.420168,280.588235 C650.420168,279.378151 651.478992,278.319328 652.689076,278.319328 L658.739496,278.319328 C659.94958,278.319328 661.008403,279.378151 661.008403,280.588235 L661.008403,280.588235 L661.008403,280.588235 Z" id="Shape" fill="#B0D5FF"></path>
                            <path d="M385.714286,238.991597 L385.714286,238.235294 L385.714286,232.487395 C385.714286,226.588235 380.571429,221.747899 374.672269,221.747899 C369.226891,221.747899 364.537815,225.983193 363.932773,231.277311 L363.630252,231.428571 L356.067227,231.428571 C352.285714,231.428571 349.109244,234.453782 349.109244,238.235294 C349.109244,238.537815 349.109244,238.689076 349.260504,238.991597 L385.714286,238.991597 L385.714286,238.991597 Z" id="Shape" fill="#9EE1FF"></path>
                            <path d="M490.084034,196.487395 L502.638655,196.487395" id="Shape" stroke="#CFA372" stroke-width="2"></path>
                            <path d="M450.453782,196.487395 L463.159664,196.487395" id="Shape" stroke="#CFA372" stroke-width="2"></path>
                            <path d="M372.705882,306.453782 L371.193277,303.731092 C371.042017,303.579832 371.042017,303.428571 370.739496,303.277311 L368.016807,301.764706 C367.411765,301.462185 367.411765,300.403361 368.016807,300.10084 L371.193277,298.436975 C371.344538,298.285714 371.495798,298.134454 371.647059,297.983193 L372.857143,295.714286 C373.159664,294.957983 374.218487,294.957983 374.521008,295.714286 L375.731092,298.134454 C375.882353,298.285714 376.033613,298.436975 376.184874,298.588235 L379.058824,300.10084 C379.815126,300.403361 379.663866,301.462185 379.058824,301.764706 L376.487395,302.97479 C376.336134,303.12605 376.184874,303.277311 376.033613,303.428571 L374.521008,306.453782 C374.067227,307.210084 373.159664,307.210084 372.705882,306.453782 L372.705882,306.453782 Z" id="Shape" fill="#FFFFFF"></path>
                            <path d="M652.689076,259.563025 L651.176471,256.840336 C651.02521,256.689076 651.02521,256.537815 650.722689,256.386555 L648,254.87395 C647.394958,254.571429 647.394958,253.512605 648,253.210084 L651.176471,251.546218 C651.327731,251.394958 651.478992,251.243697 651.630252,251.092437 L652.840336,248.823529 C653.142857,248.067227 654.201681,248.067227 654.504202,248.823529 L655.714286,251.243697 C655.865546,251.394958 656.016807,251.546218 656.168067,251.697479 L659.042017,253.210084 C659.798319,253.512605 659.647059,254.571429 659.042017,254.87395 L656.470588,256.084034 C656.319328,256.235294 656.168067,256.386555 656.016807,256.537815 L654.504202,259.563025 C654.05042,260.168067 652.991597,260.168067 652.689076,259.563025 L652.689076,259.563025 Z" id="Shape" fill="#FFFFFF"></path>
                            <path d="M400.235294,242.92437 L398.722689,240.201681 C398.571429,240.05042 398.571429,239.89916 398.268908,239.747899 L395.546218,238.235294 C394.941176,237.932773 394.941176,236.87395 395.546218,236.571429 L398.722689,234.907563 C398.87395,234.756303 399.02521,234.605042 399.176471,234.453782 L400.386555,232.184874 C400.689076,231.428571 401.747899,231.428571 402.05042,232.184874 L403.260504,234.605042 C403.411765,234.756303 403.563025,234.907563 403.714286,235.058824 L406.588235,236.571429 C407.344538,236.87395 407.193277,237.932773 406.588235,238.235294 L404.016807,239.445378 C403.865546,239.596639 403.714286,239.747899 403.563025,239.89916 L402.05042,242.92437 C401.596639,243.529412 400.689076,243.529412 400.235294,242.92437 L400.235294,242.92437 Z" id="Shape" fill="#FFFFFF"></path>
                        </g>
                    </g>
                </g>
            </g>
        </g>
    </g>
</svg>