<?xml version="1.0" encoding="UTF-8" standalone="no"?>
<svg width="136px" height="128px" viewBox="0 0 136 128" version="1.1" xmlns="http://www.w3.org/2000/svg" xmlns:xlink="http://www.w3.org/1999/xlink">
    <!-- Generator: sketchtool 39.1 (31720) - http://www.bohemiancoding.com/sketch -->
    <title>89935EAB-BE39-468E-A235-9637136EFF44</title>
    <desc>Created with sketchtool.</desc>
    <defs></defs>
    <g id="1440" stroke="none" stroke-width="1" fill="none" fill-rule="evenodd">
        <g id="1" transform="translate(-660.000000, -5115.000000)">
            <g id="5---illustration" transform="translate(270.000000, 3722.000000)">
                <g id="price-icon" transform="translate(151.000000, 1383.000000)">
                    <g id="plane" transform="translate(234.000000, 10.000000)">
                        <g id="Group">
                            <g id="circle" transform="translate(12.000000, 0.000000)" fill="#9CE3A5">
                                <circle id="Oval" cx="60" cy="60" r="60"></circle>
                            </g>
                            <g id="icons" transform="translate(5.000000, 6.000000)">
                                <path d="M71.729,24 L80,24 C82,24 83,24 83,23 C83,22 82,21.562 80,21.562 C75.977,21.562 70.284,22 70.284,22 L71.729,24 L71.729,24 Z" id="Shape" fill="#FFFFFF"></path>
                                <path d="M76,70 C76,70 127.051,66.904 129.273,66.717 C131.495,66.53 134.442,65.411 134.748,61.055 C135.094,56.125 135.534,49.728 135.534,49.728 C135.534,49.728 135.831,45.972 130.55,45.561 C125.269,45.15 76,43 76,43 L76,70 L76,70 Z" id="Shape" fill="#FFFFFF"></path>
                                <path d="M67.75,120 L89,118 L89,111 C89,110 88.243,107.298 85.368,106.065 C82.492,104.833 72.365,101.65 72.365,101.65 L67.75,120 L67.75,120 Z" id="Shape" fill="#FFFFFF"></path>
                                <path d="M89,118 C89,119.104 88.104,120 87,120 L69,120 L70.45,114 L89,114 L89,116 L89,118 L89,118 Z" id="Shape" fill="#FFBA31"></path>
                                <polygon id="Shape" fill="#E6E6E6" points="70.45 114 72.365 101.65 75.284 102.582 73.109 114"></polygon>
                                <polygon id="Shape" fill="#E6E6E6" points="81 69.784 77 70 77 43 81 43.25"></polygon>
                                <path d="M78,62 L134.622,62 C133.969,65.75 130.933,66.595 129.273,66.717 C127.326,66.86 78,70 78,70 L78,62 L78,62 Z" id="Shape" fill="#FFBA31"></path>
                                <path d="M66.125,120 L45,118 L45,111 C45,110 45.632,107.298 48.507,106.065 C51.383,104.833 61.51,101.65 61.51,101.65 L66.125,120 L66.125,120 Z" id="Shape" fill="#FFFFFF"></path>
                                <path d="M45,118 C45,119.104 45.646,120 46.75,120 L64.75,120 L63.3,114 L45,114 L45,116 L45,118 L45,118 Z" id="Shape" fill="#FFBA31"></path>
                                <polygon id="Shape" fill="#E6E6E6" points="63.3 114 61.385 101.65 58.466 102.582 60.641 114"></polygon>
                                <polygon id="Shape" fill="#FA9F30" points="62.409 120 64.75 120 63.3 114 60.641 114"></polygon>
                                <path d="M55,120.004 L58,120 L58,117.313 C58,116.587 57.162,116 56.437,116 L56.064,116 C55.338,116 55.001,116.588 55.001,117.313 L55.001,120.004 L55,120.004 Z" id="Shape" fill="#FA9F30"></path>
                                <path d="M48,120 L51,120.004 L51,117.314 C51,116.588 50.162,116.001 49.437,116.001 L49.064,116.001 C48.338,116.001 48.001,116.589 48.001,117.33 L48.001,120 L48,120 Z" id="Shape" fill="#FA9F30"></path>
                                <polygon id="Shape" fill="#FA9F30" points="81 69.784 77.264 70 77.745 62 81 62"></polygon>
                                <polygon id="Shape" fill="#FA9F30" points="71.341 120 69 120 70.45 114 73.109 114"></polygon>
                                <path d="M58,70 C58,70 8.718,66.904 6.495,66.717 C4.272,66.53 1.211,65.411 0.904,61.055 C0.558,56.125 0.06,49.728 0.06,49.728 C0.06,49.728 -0.034,45.972 5.248,45.561 C10.529,45.15 58,43 58,43 L58,70 L58,70 Z" id="Shape" fill="#FFFFFF"></path>
                                <polygon id="Shape" fill="#F7F7F7" points="53 69.784 57 70 57 43 53 43.25"></polygon>
                                <path d="M56,62 L0.915,62 C1.568,65.75 4.837,66.572 6.495,66.717 C8.312,66.875 56,70 56,70 L56,62 L56,62 Z" id="Shape" fill="#FFBA31"></path>
                                <polygon id="Shape" fill="#FA9F30" points="53 69.784 56.505 70 55.792 62 53 62"></polygon>
                                <path d="M75.944,30.489 C75,27 72.125,27 71.188,27 L62.35,27 C61.412,27 58.538,27 57.593,30.489 C56.775,33.514 55.537,39.417 55.537,50 C55.537,57.281 55.787,69.708 57.699,83.156 C59.06,92.729 60.908,104.932 62.695,113.334 C63.264,116.012 63.531,118.303 64,120 C64,120 64.911,122 66.516,122 C68.121,122 69,120 69,120 C69.469,118.303 70.006,116.011 70.575,113.332 C72.362,104.932 74.476,92.728 75.838,83.156 C77.75,69.708 78,57.281 78,50 C78,39.417 76.763,33.514 75.944,30.489 L75.944,30.489 Z" id="Shape" fill="#FFFFFF"></path>
                                <path d="M75.944,30.489 C75,27 72.125,27 71.188,27 L67,27 L67,121.937 C68.188,121.75 69,120 69,120 C69.469,118.303 70.006,116.011 70.575,113.332 C72.362,104.932 74.476,92.728 75.838,83.156 C77.75,69.708 78,57.281 78,50 C78,39.417 76.763,33.514 75.944,30.489 L75.944,30.489 Z" id="Shape" fill="#F7F7F7"></path>
                                <path d="M71.312,27 L62.224,27 C58.162,27 57.718,30.077 57.198,32 L76.339,32 C75.818,30.077 75.375,27 71.312,27 L71.312,27 Z" id="Shape" fill="#FFBA31"></path>
                                <polygon id="Shape" fill="#FFBA31" points="77.081 36 56.456 36 56.795 34 76.742 34"></polygon>
                                <path d="M72.734,24 L70,24 L70,22 L71.688,22 C71.688,22 72.656,22.703 72.734,24 L72.734,24 Z" id="Shape" fill="#F7F7F7"></path>
                                <path d="M67,25 L67,22 L70,22 C71.606,22 72,25 72,25 L67,25 L67,25 Z" id="Shape" fill="#FFFFFF"></path>
                                <path d="M70,22.635 C70,23.389 69.39,24 68.636,24 L68.365,24 C67.61,24 67,23.389 67,22.635 L67,21 L68.364,21 L68.635,21 C69.39,21 70,21.611 70,22.365 L70,22.635 L70,22.635 Z" id="Shape" fill="#FFFFFF"></path>
                                <path d="M62.271,24 L54,24 C52,24 51,24 51,23 C51,22 52,21.562 54,21.562 C58.023,21.562 63.716,22 63.716,22 L62.271,24 L62.271,24 Z" id="Shape" fill="#FFFFFF"></path>
                                <path d="M61.266,24 L64,24 L64,22 L62.312,22 C62.312,22 61.344,22.703 61.266,24 L61.266,24 Z" id="Shape" fill="#F7F7F7"></path>
                                <path d="M67,25 L67,22 L64,22 C62.394,22 62,25 62,25 L67,25 L67,25 Z" id="Shape" fill="#FFFFFF"></path>
                                <path d="M64,22.635 C64,23.389 64.61,24 65.364,24 L65.635,24 C66.39,24 67,23.389 67,22.635 L67,21 L65.636,21 L65.365,21 C64.61,21 64,21.611 64,22.365 L64,22.635 L64,22.635 Z" id="Shape" fill="#FFFFFF"></path>
                                <path d="M73,61 C73,64.313 70.313,67 67,67 L67,67 C63.687,67 61,64.313 61,61 L61,52 C61,48.687 63.687,46 67,46 L67,46 C70.313,46 73,48.687 73,52 L73,61 L73,61 Z" id="Shape" fill="#A3C8F3"></path>
                                <path d="M41,77.5 C41,78.328 40.328,79 39.5,79 L39.5,79 C38.672,79 38,78.328 38,77.5 L38,75.5 C38,74.672 38.672,74 39.5,74 L39.5,74 C40.328,74 41,74.672 41,75.5 L41,77.5 L41,77.5 Z" id="Shape" fill="#89D493"></path>
                                <path d="M34,80.5 C34,81.328 33.328,82 32.5,82 L32.5,82 C31.672,82 31,81.328 31,80.5 L31,75.5 C31,74.672 31.672,74 32.5,74 L32.5,74 C33.328,74 34,74.672 34,75.5 L34,80.5 L34,80.5 Z" id="Shape" fill="#89D493"></path>
                                <path d="M41,97.5 C41,98.328 40.328,99 39.5,99 L39.5,99 C38.672,99 38,98.328 38,97.5 L38,82.5 C38,81.672 38.672,81 39.5,81 L39.5,81 C40.328,81 41,81.672 41,82.5 L41,97.5 L41,97.5 Z" id="Shape" fill="#89D493"></path>
                                <path d="M48,89.5 C48,90.328 47.328,91 46.5,91 L46.5,91 C45.672,91 45,90.328 45,89.5 L45,72.5 C45,71.672 45.672,71 46.5,71 L46.5,71 C47.328,71 48,71.672 48,72.5 L48,89.5 L48,89.5 Z" id="Shape" fill="#89D493"></path>
                                <path d="M92,94.5 C92,95.328 91.328,96 90.5,96 L90.5,96 C89.672,96 89,95.328 89,94.5 L89,75.5 C89,74.672 89.672,74 90.5,74 L90.5,74 C91.328,74 92,74.672 92,75.5 L92,94.5 L92,94.5 Z" id="Shape" fill="#89D493"></path>
                                <path d="M99,88.5 C99,89.328 98.328,90 97.5,90 L97.5,90 C96.672,90 96,89.328 96,88.5 L96,78.5 C96,77.672 96.672,77 97.5,77 L97.5,77 C98.328,77 99,77.672 99,78.5 L99,88.5 L99,88.5 Z" id="Shape" fill="#89D493"></path>
                                <path d="M99,102.5 C99,103.328 98.328,104 97.5,104 L97.5,104 C96.672,104 96,103.328 96,102.5 L96,93.5 C96,92.672 96.672,92 97.5,92 L97.5,92 C98.328,92 99,92.672 99,93.5 L99,102.5 L99,102.5 Z" id="Shape" fill="#89D493"></path>
                                <path d="M106,83.5 C106,84.328 105.328,85 104.5,85 L104.5,85 C103.672,85 103,84.328 103,83.5 L103,73.5 C103,72.672 103.672,72 104.5,72 L104.5,72 C105.328,72 106,72.672 106,73.5 L106,83.5 L106,83.5 Z" id="Shape" fill="#89D493"></path>
                                <path d="M54,30.5 C54,31.328 53.328,32 52.5,32 L52.5,32 C51.672,32 51,31.328 51,30.5 L51,28.5 C51,27.672 51.672,27 52.5,27 L52.5,27 C53.328,27 54,27.672 54,28.5 L54,30.5 L54,30.5 Z" id="Shape" fill="#89D493"></path>
                                <rect id="Rectangle-path" fill="#FA9F30" x="62" y="25" width="10" height="2"></rect>
                                <path d="M93,68.907 L90,69.13 L90,66.5 C90,65.672 90.672,65 91.5,65 L91.5,65 C92.328,65 93,65.672 93,66.5 L93,68.907 L93,68.907 Z" id="Shape" fill="#FA9F30"></path>
                                <path d="M104,68.115 L101,68.333 L101,66.5 C101,65.672 101.672,65 102.5,65 L102.5,65 C103.328,65 104,65.672 104,66.5 L104,68.115 L104,68.115 Z" id="Shape" fill="#FA9F30"></path>
                                <path d="M114,67.391 L111,67.608 L111,65.5 C111,64.672 111.672,64 112.5,64 L112.5,64 C113.328,64 114,64.672 114,65.5 L114,67.391 L114,67.391 Z" id="Shape" fill="#FA9F30"></path>
                                <path d="M41,68.907 L44,69.13 L44,66.5 C44,65.672 43.328,65 42.5,65 L42.5,65 C41.672,65 41,65.672 41,66.5 L41,68.907 L41,68.907 Z" id="Shape" fill="#FA9F30"></path>
                                <path d="M30,68.115 L33,68.333 L33,66.5 C33,65.672 32.328,65 31.5,65 L31.5,65 C30.672,65 30,65.672 30,66.5 L30,68.115 L30,68.115 Z" id="Shape" fill="#FA9F30"></path>
                                <path d="M20,67.391 L23,67.608 L23,65.5 C23,64.672 22.328,64 21.5,64 L21.5,64 C20.672,64 20,64.672 20,65.5 L20,67.391 L20,67.391 Z" id="Shape" fill="#FA9F30"></path>
                                <path d="M70,61 C69.447,61 69,60.553 69,60 L69,53 C69,52.985 68.987,51.484 67.863,50.693 C67.411,50.375 67.302,49.751 67.621,49.299 C67.939,48.848 68.563,48.739 69.014,49.057 C70.944,50.416 71,52.74 71,53 L71,60 C71,60.553 70.553,61 70,61 L70,61 Z" id="Shape" fill="#DBEBFF"></path>
                                <path d="M111.73,21.869 C112.75,23.734 114.732,25 117.009,25 C117.198,25 117.385,24.989 117.57,24.972 C117.217,25.568 117,26.256 117,27 C117,29.208 118.791,31 121,31 C121.469,31 121.911,30.904 122.329,30.756 C116.953,17.975 107.275,7.455 95.111,0.991 C93.811,2.263 93,4.036 93,6 C93,7.935 93.783,9.686 95.05,10.953 C93.77,12.633 93,14.725 93,17 C93,22.522 97.478,27 103,27 C106.754,27 110.021,24.928 111.73,21.869 L111.73,21.869 Z" id="Shape" fill="#FFFFFF"></path>
                                <path d="M28.999,79 C28.259,79 27.54,79.086 26.846,79.239 C26.26,76.253 23.635,74 20.485,74 C19.602,74 18.761,74.179 17.994,74.499 C17.739,71.42 15.167,69 12.025,69 C10.964,69 9.97,69.278 9.106,69.762 C13.198,84.826 23,97.536 36.056,105.411 C37.248,104.314 38,102.747 38,101 C38,99.118 37.132,97.439 35.775,96.34 C37.754,94.513 39,91.905 39,89.001 C39,83.478 34.522,79 28.999,79 L28.999,79 Z" id="Shape" fill="#FFFFFF"></path>
                                <path d="M79,120.004 L76,120 L76,117.313 C76,116.587 76.588,116 77.313,116 L77.686,116 C78.412,116 78.999,116.588 78.999,117.313 L78.999,120.004 L79,120.004 Z" id="Shape" fill="#FA9F30"></path>
                                <path d="M86,120 L83,120.004 L83,117.314 C83,116.588 83.588,116.001 84.313,116.001 L84.686,116.001 C85.412,116.001 85.999,116.589 85.999,117.33 L85.999,120 L86,120 Z" id="Shape" fill="#FA9F30"></path>
                                <path d="M40.041,48.031 C39.515,48.031 39.073,47.619 39.044,47.087 C39.013,46.536 39.435,46.064 39.986,46.033 L50.611,45.439 C51.154,45.41 51.634,45.83 51.665,46.382 C51.696,46.933 51.274,47.405 50.723,47.436 L40.098,48.03 C40.079,48.031 40.06,48.031 40.041,48.031 L40.041,48.031 Z" id="Shape" fill="#F7F7F7"></path>
                                <path d="M3.812,56.812 C3.293,56.812 2.855,56.412 2.816,55.886 L2.42,50.616 C2.416,50.568 2.416,50.519 2.42,50.47 C2.489,49.492 3.218,47.614 5.482,47.5 L35.454,46.2 C35.998,46.158 36.475,46.597 36.503,47.149 C36.53,47.7 36.106,48.17 35.554,48.197 L5.581,49.499 C4.63,49.547 4.453,50.318 4.421,50.555 L4.81,55.739 C4.851,56.29 4.439,56.769 3.888,56.81 C3.862,56.812 3.837,56.812 3.812,56.812 L3.812,56.812 Z" id="Shape" fill="#F7F7F7"></path>
                                <path d="M132.272,56.812 C132.247,56.812 132.221,56.811 132.196,56.809 C131.645,56.768 131.233,56.288 131.274,55.738 L131.663,50.557 C131.617,50.221 131.409,49.544 130.503,49.498 L83.367,47.436 L83.467,45.439 L130.603,47.501 C132.867,47.614 133.595,49.493 133.665,50.471 C133.669,50.519 133.669,50.568 133.665,50.617 L133.269,55.887 C133.229,56.412 132.791,56.812 132.272,56.812 L132.272,56.812 Z" id="Shape" fill="#F7F7F7"></path>
                            </g>
                        </g>
                    </g>
                </g>
            </g>
        </g>
    </g>
</svg>