<?xml version="1.0" encoding="UTF-8" standalone="no"?>
<svg width="75px" height="69px" viewBox="0 0 75 69" version="1.1" xmlns="http://www.w3.org/2000/svg" xmlns:xlink="http://www.w3.org/1999/xlink">
    <!-- Generator: Sketch 39.1 (31720) - http://www.bohemiancoding.com/sketch -->
    <title>vip</title>
    <desc>Created with Sketch.</desc>
    <defs></defs>
    <g id="1440" stroke="none" stroke-width="1" fill="none" fill-rule="evenodd">
        <g id="icons" transform="translate(-790.000000, -235.000000)">
            <g id="Group-3" transform="translate(310.000000, 230.000000)">
                <g id="vip" transform="translate(480.000000, 5.000000)">
                    <path d="M74.86325,34.5 C74.86325,53.5547812 59.5423889,69 40.6410278,69 C21.7396667,69 6.41880556,53.5547812 6.41880556,34.5 C6.41880556,15.447375 21.7396667,0 40.6410278,0 C59.5423889,0 74.86325,15.447375 74.86325,34.5" id="Fill-355" fill="#7BCD86"></path>
                    <path d="M6.37388889,43.48725 C6.37388889,43.48725 7.23372222,49.59375 14.9743611,49.59375 L32.0854722,49.59375 L31.8181111,43.48725 L6.37388889,43.48725" id="Fill-357" fill="#F4D2A7"></path>
                    <path d="M31.3176111,49.59375 L14.9743611,49.59375 C11.0986944,49.59375 8.55769444,47.4375 8.55769444,47.4375 L31.3176111,47.4375 L31.3176111,49.59375" id="Fill-358" fill="#F2C184"></path>
                    <path d="M17.1111111,49.59375 C17.1111111,49.59375 18.2276111,60.375 29.9465833,60.375 L36.36325,60.375 L32.0854722,49.59375 L17.1111111,49.59375" id="Fill-359" fill="#F2C184"></path>
                    <path d="M57.7521389,32.37825 C57.7521389,32.37825 62.8041944,33.059625 65.3836944,36.5355 C67.5354167,39.4356562 72.6259722,46.7712187 72.6259722,46.7712187 C72.6259722,46.7712187 69.0155278,57.1082812 59.6108333,63.2190937 C55.3993611,54.6544687 49.3270556,42.2862187 49.3270556,42.2862187 L57.7521389,32.37825" id="Fill-360" fill="#F4D2A7"></path>
                    <path d="M51.0531389,45.7793438 L59.6108333,63.2190938 C59.6108333,63.2190938 64.7035278,60.004125 67.8305833,55.3703438 C67.2616389,54.829125 51.0531389,45.7793438 51.0531389,45.7793438" id="Fill-361" fill="#F2C184"></path>
                    <path d="M59.6108333,63.2190937 C59.6108333,63.2190937 51.9022778,47.4655312 50.4392778,44.4920625 C48.9784167,41.52075 44.9765556,33.0747187 36.2028333,36.89775 C26.3168889,41.2059375 31.58925,51.9095625 31.58925,51.9095625 L39.40475,68.9072812 C39.40475,68.9072812 49.3270556,70.078125 59.6108333,63.2190937" id="Fill-364" fill="#F4D2A7"></path>
                    <path d="M36.0338611,52.1100938 L47.5581944,46.5405 C47.5581944,46.5405 44.3840833,36.9710625 37.7000556,40.3412813 C31.0160278,43.7093438 36.0338611,52.1100938 36.0338611,52.1100938" id="Fill-366" fill="#FFECD4"></path>
                    <g id="Group" transform="translate(0.000000, 4.312500)">
                        <path d="M57.7521389,32.34375 C57.7521389,37.1069062 53.9213889,40.96875 49.1965833,40.96875 L8.55555556,40.96875 C3.83075,40.96875 0,37.1069062 0,32.34375 L0,8.625 C0,3.86184375 3.83075,0 8.55555556,0 L49.1965833,0 C53.9213889,0 57.7521389,3.86184375 57.7521389,8.625 L57.7521389,32.34375" id="Fill-362" fill="#6B9BD2"></path>
                        <path d="M22.9673889,11.8464375 L25.8762778,11.8464375 L19.8724167,29.1244688 L16.9186111,29.1244688 L10.9382778,11.8464375 L13.8236389,11.8464375 L17.3998611,22.588875 C17.5880833,23.0999063 17.7848611,23.7597188 17.9966111,24.5683125 C18.2083611,25.3769063 18.34525,25.9763438 18.4051389,26.3709375 C18.5078056,25.7715 18.6682222,25.0793438 18.8756944,24.2901563 C19.0895833,23.503125 19.2606944,22.9187813 19.3911667,22.5414375 L22.9673889,11.8464375" id="Fill-367" fill="#FFFFFF"></path>
                        <polygon id="Fill-368" fill="#FFFFFF" points="28.1370833 11.8464375 30.9411667 11.8464375 30.9411667 29.1244688 28.1370833 29.1244688"></polygon>
                        <path d="M38.2668611,20.2838438 L39.7576667,20.2838438 C41.195,20.2838438 42.2494722,20.0315625 42.9189444,19.5291563 C43.5926944,19.0224375 43.9306389,18.2354063 43.9306389,17.16375 C43.9306389,16.171875 43.6290556,15.430125 43.0258889,14.9428125 C42.4248611,14.4533438 41.4858889,14.2096875 40.21325,14.2096875 L38.2668611,14.2096875 L38.2668611,20.2838438 L38.2668611,20.2838438 Z M46.8138611,17.068875 C46.8138611,18.8736563 46.2278056,20.2558125 45.0578333,21.2175 C43.8835833,22.1791875 42.2131111,22.6600313 40.0506944,22.6600313 L38.2668611,22.6600313 L38.2668611,29.1244688 L35.4649167,29.1244688 L35.4649167,11.8464375 L40.4014722,11.8464375 C42.5425,11.8464375 44.1466667,12.2863125 45.2139722,13.1682188 C46.2812778,14.0522813 46.8138611,15.3525 46.8138611,17.068875 L46.8138611,17.068875 Z" id="Fill-369" fill="#FFFFFF"></path>
                    </g>
                    <polyline id="Fill-370" fill="#F2C184" points="38.808 58.4882812 50.3323333 53.0760937 51.5258333 55.5924375 39.9736944 61.08225 38.808 58.4882812"></polyline>
                </g>
            </g>
        </g>
    </g>
</svg>