<?xml version="1.0" encoding="UTF-8" standalone="no"?>
<svg id="back" viewBox="0 0 22 19" version="1.1" xmlns="http://www.w3.org/2000/svg" xmlns:xlink="http://www.w3.org/1999/xlink">
    <!-- Generator: Sketch 3.7.2 (28276) - http://www.bohemiancoding.com/sketch -->
    <title>ы</title>
    <desc>Created with Sketch.</desc>
    <defs></defs>
    <g  stroke="none" stroke-width="1" style="fill:currentColor">
        <g transform="translate(-400.000000, -468.000000)">
            <g transform="translate(400.000000, 468.000000)">
                <path d="M2.86755698,9.51755698 C2.86834435,9.50485337 2.86929864,9.49219446 2.87041763,9.47958237 L2.85,9.5 L2.86755698,9.51755698 Z M4.17218673,8.17781327 C4.21350781,8.17416848 4.25529913,8.17230769 4.29748044,8.17230769 L20.2873196,8.17230769 C21.0785671,8.17230769 21.72,8.80901471 21.72,9.60676923 C21.72,10.3990005 21.0709613,11.0412308 20.2873196,11.0412308 L4.39123077,11.0412308 L10.33125,16.98125 C10.80625,17.45625 10.80625,18.16875 10.33125,18.64375 C9.85625,19.11875 9.14375,19.11875 8.66875,18.64375 L0.35625,10.33125 C-0.11875,9.85625 -0.11875,9.14375 0.35625,8.66875 L8.66875,0.35625 C8.90625,0.11875 9.2625,0 9.5,0 C9.7375,0 10.09375,0.11875 10.33125,0.35625 C10.80625,0.83125 10.80625,1.54375 10.33125,2.01875 L4.17218673,8.17781327 Z" id="ы"></path>
            </g>
        </g>
    </g>
</svg>