<?xml version="1.0" encoding="UTF-8" standalone="no"?>
<svg width="22px" height="14px" viewBox="0 0 22 14" version="1.1" xmlns="http://www.w3.org/2000/svg" xmlns:xlink="http://www.w3.org/1999/xlink">
    <!-- Generator: sketchtool 39.1 (31720) - http://www.bohemiancoding.com/sketch -->
    <title>555D590C-F49F-4BD2-8F98-FF8B53C23345</title>
    <desc>Created with sketchtool.</desc>
    <defs></defs>
    <g id="1440" stroke="none" stroke-width="1" fill="none" fill-rule="evenodd">
        <g id="Presentation-1440" transform="translate(-1389.000000, -93.000000)" style="fill:currentColor">
            <g id="buttons-top" transform="translate(17.000000, 16.000000)">
                <g id="behance" transform="translate(1383.000000, 53.500000) scale(-1, 1) translate(-1383.000000, -53.500000) translate(1360.000000, 0.000000)">
                    <g transform="translate(0.000000, 61.000000)" id="Behance">
                        <path d="M26.0578936,18.2944313 L31.8838736,18.2944313 L31.8838736,16.62529 L26.0578936,16.62529 L26.0578936,18.2944313 L26.0578936,18.2944313 L26.0578936,18.2944313 Z M27.4380714,21.9364268 C27.0668333,22.3141531 26.8327075,22.8258698 26.7369873,23.4715776 L31.2681618,23.4715776 C31.2203018,22.7824826 30.9848825,22.2618329 30.5683712,21.9032481 C30.1466862,21.5472156 29.6279876,21.3698374 29.0071018,21.3698374 C28.3344751,21.3698374 27.8093095,21.5587006 27.4380714,21.9364268 L27.4380714,21.9364268 L27.4380714,21.9364268 L27.4380714,21.9364268 Z M31.3703491,19.6955916 C32.0727266,20.0044084 32.6509265,20.4944313 33.106243,21.1631089 C33.5214605,21.7526681 33.787924,22.4366587 33.9095139,23.213805 C33.9806573,23.6680972 34.0091143,24.3265659 33.9974731,25.1828307 L26.6723119,25.1828307 C26.7162913,26.176914 27.0629526,26.8749419 27.725231,27.274362 C28.1262199,27.5232017 28.6087001,27.6482597 29.1752583,27.6482597 C29.7715679,27.6482597 30.2592217,27.4964038 30.6330471,27.1939675 C30.8387154,27.0293503 31.0198071,26.8022039 31.1750285,26.511253 L33.859067,26.511253 C33.787924,27.0982598 33.4619588,27.6967519 32.8850523,28.3041765 C31.9847674,29.2676335 30.7235931,29.7499999 29.1028219,29.7499999 C27.7640362,29.7499999 26.5830593,29.3441994 25.5624784,28.5300463 C24.5367229,27.7171692 24.0270787,26.3925754 24.0270787,24.5600927 C24.0270787,22.8411832 24.4888628,21.5229698 25.4111372,20.6054525 C26.3359988,19.6904872 27.5324977,19.2298145 29.0058084,19.2298145 C29.8815161,19.2298145 30.6692655,19.3854989 31.3703491,19.6955916 L31.3703491,19.6955916 L31.3703491,19.6955916 L31.3703491,19.6955916 Z M14.7099087,23.5073084 L14.7099087,27.0842228 L18.0109523,27.0842228 C18.6007943,27.0842228 19.0612845,27.0051044 19.3885432,26.8481436 C19.9848523,26.5546402 20.2823601,25.9982598 20.2823601,25.1738978 C20.2823601,24.4745938 19.9952006,23.9960558 19.4170002,23.7344547 C19.0936222,23.5889793 18.6395995,23.5124128 18.0575189,23.5073084 L14.7099087,23.5073084 L14.7099087,23.5073084 L14.7099087,23.5073084 Z M14.7099087,18.3288861 L14.7099087,21.288167 L18.0161264,21.288167 C18.6046745,21.288167 19.0845678,21.1771463 19.4545125,20.9551044 C19.8218699,20.7330626 20.0068422,20.3400234 20.0068422,19.7785385 C20.0068422,19.1519721 19.763662,18.7397911 19.2773011,18.538167 C18.8556161,18.399072 18.3201018,18.3288861 17.6694651,18.3288861 L14.7099087,18.3288861 L14.7099087,18.3288861 L14.7099087,18.3288861 Z M22.0932778,17.4292341 C22.5084952,17.999652 22.7167509,18.6810905 22.7167509,19.4761022 C22.7167509,20.2940837 22.5084952,20.9538284 22.0881036,21.4515083 C21.8526844,21.7296983 21.5073165,21.9849189 21.0507065,22.2146173 C21.7440296,22.464733 22.2666084,22.8590486 22.6223241,23.3988397 C22.9741596,23.9373548 23.151371,24.5932715 23.151371,25.3640369 C23.151371,26.1590486 22.9495828,26.8723899 22.5447136,27.5027843 C22.2885983,27.9200697 21.9678072,28.2722737 21.5823401,28.5581206 C21.1490135,28.8860787 20.6380763,29.1093966 20.0469409,29.2319027 C19.4558059,29.3531323 18.8168109,29.4118329 18.1260751,29.4118329 L12,29.4118329 L12,16 L18.56975,16 C20.228033,16.0242458 21.4012485,16.5002319 22.0932778,17.4292341 L22.0932778,17.4292341 L22.0932778,17.4292341 L22.0932778,17.4292341 Z" transform="translate(23.000000, 22.875000) scale(-1, 1) translate(-23.000000, -22.875000) "></path>
                    </g>
                </g>
            </g>
        </g>
    </g>
</svg>
