<?xml version="1.0" encoding="UTF-8" standalone="no"?>
<svg width="26px" height="27px" viewBox="0 0 26 27" version="1.1" xmlns="http://www.w3.org/2000/svg" xmlns:xlink="http://www.w3.org/1999/xlink">
    <!-- Generator: sketchtool 39.1 (31720) - http://www.bohemiancoding.com/sketch -->
    <title>A490F7B4-8DF2-4A9C-9A83-E40345163A12</title>
    <desc>Created with sketchtool.</desc>
    <defs></defs>
    <g id="1440" stroke="none" stroke-width="1" fill="none" fill-rule="evenodd">
        <g id="Presentation-1440" transform="translate(-758.000000, -31118.000000)" style="fill:currentColor">
            <g id="Footer-+-Share" transform="translate(-1.000000, 27966.000000)">
                <g id="social" transform="translate(208.000000, 3125.000000)">
                    <g id="g+" transform="translate(521.000000, 0.000000)">
                        <g id="normal" transform="translate(30.000000, 27.000000)">
                            <path d="M21.6478072,10.5013983 L21.6478072,6.14920545 L18.8914184,6.14920545 L18.8914184,10.5013983 L14.5392255,10.5013983 L14.5392255,13.2577871 L18.8914184,13.2577871 L18.8914184,17.6099799 L21.6478072,17.6099799 L21.6478072,13.2577871 L26,13.2577871 L26,10.5013983 L21.6478072,10.5013983 L21.6478072,10.5013983 Z M10.4046423,5.48767213 C11.0603727,7.78853141 10.0709742,10.1967448 8.49548042,10.6406685 C8.31558978,10.6899933 8.12989622,10.7161065 7.93839973,10.7161065 C6.49637317,10.7161065 5.06595246,9.25667113 4.5378864,7.24595804 C4.24193728,6.11728937 4.26514898,5.12789086 4.60462002,4.17911282 C4.93828814,3.24484209 5.53889075,2.61522486 6.29327084,2.40341815 C6.47316148,2.35119183 6.6617565,2.32507867 6.85035152,2.32507867 C8.59122866,2.32507867 9.71119295,3.04754268 10.4046423,5.48767213 L10.4046423,5.48767213 Z M12.1484209,19.9572626 C12.2760853,21.9998918 10.5294052,23.502849 7.90938511,23.6943455 C5.24874456,23.8887434 3.05523937,22.6904397 2.92757505,20.6536134 C2.86664435,19.6729193 3.29606071,18.7125354 4.14038612,17.949451 C4.99631738,17.1747606 6.16850798,16.6989209 7.44515121,16.6031726 C7.59602723,16.5944683 7.74690325,16.5886653 7.8948778,16.5886653 C10.3582189,16.5886653 12.0265595,18.0364948 12.1484209,19.9572626 L12.1484209,19.9572626 Z M1.3781944,6.8832753 C1.3781944,9.05066734 2.10065841,10.6145553 3.52817766,11.5343187 C4.6974668,12.2857973 6.0524495,12.3989544 6.75750474,12.3989544 C6.92869099,12.3989544 7.0650597,12.3931514 7.16080795,12.384447 C7.16080795,12.384447 6.93739538,13.8409809 8.0167392,15.2830075 L7.96741435,15.280106 C6.09887289,15.280106 0,15.6718034 0,20.6855295 C0,25.789201 5.59982145,26.0474311 6.72558866,26.0474311 C6.81263252,26.0474311 6.86485883,26.0445296 6.86485883,26.0445296 C6.87646468,26.0474311 6.95770561,26.0503326 7.09407432,26.0503326 C7.81653833,26.0503326 9.67927687,25.9574858 11.4114496,25.1160618 C13.6571811,24.0280136 14.7974556,22.1304575 14.7974556,19.4814228 C14.7974556,16.919432 13.05948,15.3961645 11.7944426,14.2820031 C11.0197523,13.603061 10.352416,13.0169657 10.352416,12.4482792 C10.352416,11.8679868 10.8398616,11.4327675 11.457873,10.8785883 C12.4559759,9.98493806 13.398951,8.7111963 13.398951,6.30588439 C13.398951,4.19362013 13.1233121,2.77480527 11.4346613,1.87245062 C11.6116505,1.7825053 12.2325633,1.71867314 12.5430198,1.67515121 C13.4569802,1.55038835 14.7974556,1.40821672 14.7974556,0.659639549 L14.7974556,0.517467917 L8.12409329,0.517467917 C8.05735967,0.517467917 1.3781944,0.766993639 1.3781944,6.8832753 L1.3781944,6.8832753 Z" id="Fill-199"></path>
                        </g>
                    </g>
                </g>
            </g>
        </g>
    </g>
</svg>
