<?xml version="1.0" encoding="UTF-8" standalone="no"?>
<svg viewBox="0 0 22 24" version="1.1" xmlns="http://www.w3.org/2000/svg" xmlns:xlink="http://www.w3.org/1999/xlink" id="like">
    <g id="Presentation" stroke="none" stroke-width="1" style="fill:currentColor">
        <g id="Artboard-6" transform="translate(-435.000000, -395.000000)">
            <path d="M456.298359,408.321044 C456.76632,407.614236 457,406.83619 457,405.986354 C457,405.002723 456.637541,404.148372 455.91202,403.421949 C455.186148,402.696278 454.326681,402.333517 453.333718,402.333517 L450.812757,402.333517 C451.270986,401.388264 451.500502,400.471455 451.500502,399.583542 C451.500502,398.466265 451.332943,397.578302 450.999029,396.919404 C450.664763,396.260305 450.177688,395.775838 449.537854,395.465353 C448.897868,395.155017 448.177164,395 447.375088,395 C446.887862,395 446.458329,395.176639 446.085937,395.530069 C445.675417,395.931056 445.379379,396.446827 445.198024,397.07708 C445.016569,397.707132 444.870883,398.311197 444.761167,398.888925 C444.651451,399.466602 444.481785,399.874814 444.25272,400.113511 C443.784709,400.619599 443.273905,401.230889 442.720057,401.946978 C441.755639,403.197751 441.101457,403.93787 440.75786,404.167135 L436.833367,404.167135 C436.327278,404.167135 435.895137,404.346433 435.537042,404.704227 C435.179098,405.062372 435,405.494463 435,406.000602 L435,415.167336 C435,415.673474 435.178897,416.105415 435.537042,416.46356 C435.895337,416.821705 436.327278,417.000903 436.833367,417.000903 L440.958179,417.000903 C441.16828,417.000903 441.827027,417.19184 442.934723,417.573814 C444.109292,417.984485 445.142941,418.297128 446.035669,418.512045 C446.928498,418.726962 447.833266,418.83447 448.750025,418.83447 L450.081718,418.83447 L450.597639,418.83447 C451.943931,418.83447 453.027647,418.449887 453.848937,417.681122 C454.669926,416.912358 455.075931,415.864411 455.066499,414.537133 C455.639411,413.80183 455.925816,412.951994 455.925816,411.987677 C455.925816,411.777727 455.911719,411.572442 455.882923,411.371722 C456.245633,410.732188 456.42744,410.044644 456.42744,409.309341 C456.427289,408.965544 456.384396,408.635944 456.298359,408.321044 L456.298359,408.321044 Z M438.394626,414.895378 C438.21322,415.076683 437.998404,415.167687 437.750125,415.167687 C437.501797,415.167687 437.28693,415.076733 437.105475,414.895378 C436.92412,414.714123 436.833367,414.499206 436.833367,414.250727 C436.833367,414.002499 436.923919,413.787733 437.105475,413.606227 C437.287131,413.424772 437.501797,413.334069 437.750125,413.334069 C437.998404,413.334069 438.21322,413.424772 438.394626,413.606227 C438.576081,413.787683 438.666834,414.002449 438.666834,414.250727 C438.666834,414.499206 438.576081,414.714123 438.394626,414.895378 L438.394626,414.895378 Z M454.859358,407.161525 C454.654023,407.60069 454.398521,407.825089 454.093001,407.834521 C454.236179,407.996912 454.355627,408.22392 454.451146,408.514891 C454.546564,408.806213 454.593973,409.071096 454.593973,409.309943 C454.593973,409.96849 454.34128,410.536786 453.835141,411.014079 C454.007215,411.319498 454.093051,411.649097 454.093051,412.002226 C454.093051,412.355554 454.009623,412.706475 453.842415,413.054938 C453.675508,413.403099 453.448551,413.653836 453.162196,413.806545 C453.209905,414.092951 453.233584,414.360393 453.233584,414.608621 C453.233584,416.203192 452.316825,417.000502 450.483258,417.000502 L448.750677,417.000502 C447.499503,417.000502 445.866906,416.65219 443.851933,415.954963 C443.804124,415.9359 443.665862,415.885582 443.436547,415.804562 C443.207232,415.723541 443.037817,415.663792 442.927951,415.625715 C442.818084,415.587237 442.651127,415.532353 442.426578,415.460915 C442.202079,415.389126 442.020874,415.33655 441.882312,415.303289 C441.74395,415.269978 441.586274,415.238924 441.409785,415.210229 C441.233196,415.181583 441.082744,415.167336 440.95863,415.167336 L440.500301,415.167336 L440.500301,406.000953 L440.95863,406.000953 C441.11139,406.000953 441.280855,405.957859 441.467077,405.872123 C441.653248,405.786136 441.844335,405.657256 442.040038,405.485333 C442.235841,405.313409 442.419504,405.143944 442.591478,404.976736 C442.763402,404.809679 442.954339,404.599628 443.16449,404.346684 C443.374541,404.093539 443.53924,403.890713 443.658689,403.737903 C443.777987,403.585143 443.928338,403.38929 444.109794,403.150593 C444.291149,402.911947 444.401065,402.768669 444.439243,402.72086 C444.964345,402.071644 445.331971,401.637194 445.542022,401.417461 C445.933528,401.006992 446.217576,400.484197 446.394215,399.849179 C446.571055,399.21406 446.716641,398.61486 446.830822,398.051581 C446.945304,397.488252 447.12696,397.082297 447.375539,396.834019 C448.291997,396.834019 448.903286,397.058317 449.208756,397.507165 C449.514175,397.955912 449.666984,398.648272 449.666984,399.584044 C449.666984,400.147374 449.437619,400.91363 448.97919,401.882763 C448.520961,402.851997 448.291997,403.613538 448.291997,404.167336 L453.333567,404.167336 C453.811512,404.167336 454.236229,404.351048 454.608471,404.718876 C454.981014,405.086452 455.167486,405.513677 455.167486,406.000803 C455.167336,406.334968 455.064643,406.721758 454.859358,407.161525 L454.859358,407.161525 Z" id="like" transform="translate(446.000000, 406.917235) scale(-1, 1) translate(-446.000000, -406.917235) "></path>
        </g>
    </g>
</svg>