<?xml version="1.0" encoding="UTF-8" standalone="no"?>
<svg width="31px" height="26px" viewBox="0 0 31 26" version="1.1" xmlns="http://www.w3.org/2000/svg" xmlns:xlink="http://www.w3.org/1999/xlink">
    <!-- Generator: sketchtool 39.1 (31720) - http://www.bohemiancoding.com/sketch -->
    <title>33CA554F-A125-46FC-B8CF-67E4F0B58445</title>
    <desc>Created with sketchtool.</desc>
    <defs></defs>
    <g id="1440" stroke="none" stroke-width="1" fill="none" fill-rule="evenodd">
        <g id="Presentation-1440" transform="translate(-496.000000, -31118.000000)" style="fill:currentColor">
            <g id="Footer-+-Share" transform="translate(-1.000000, 27966.000000)">
                <g id="social" transform="translate(208.000000, 3125.000000)">
                    <g id="Twitter" transform="translate(260.000000, 0.000000)">
                        <g id="active">
                            <path d="M56.6354425,33.6277185 C56.6484633,33.8947412 56.6549737,34.1684394 56.6549737,34.4421377 C56.6549737,42.7799214 50.4635675,52.3994141 39.1419529,52.3994141 C35.6653904,52.3994141 32.4297133,51.35135 29.7083591,49.5622979 C30.1836196,49.622378 30.6784112,49.6490803 31.1732029,49.6490803 C34.0573175,49.6490803 36.7135675,48.6410696 38.8164321,46.952151 C36.12763,46.8987465 33.8489841,45.0763166 33.0677341,42.5663032 C33.4453383,42.6397345 33.8294529,42.6797879 34.2265883,42.6797879 C34.7864841,42.6797879 35.3333591,42.6063567 35.8476821,42.4594942 C33.0351821,41.8787198 30.9127862,39.328653 30.9127862,36.2712432 L30.9127862,36.1911364 C31.7396091,36.6651016 32.69013,36.9454755 33.6992446,36.9788533 C32.0455987,35.8506824 30.9583591,33.9214434 30.9583591,31.7251818 C30.9583591,30.5703086 31.2643487,29.4888667 31.7916925,28.5542872 C34.8320571,32.3727118 39.3633071,34.8894007 44.4804946,35.1497478 C44.3763279,34.6891337 44.3242446,34.2084928 44.3242446,33.7145008 C44.3242446,30.2231791 47.0781508,27.3994141 50.4765883,27.3994141 C52.2474216,27.3994141 53.8424737,28.1671043 54.9687758,29.3954087 C56.3685154,29.1083593 57.69013,28.5876651 58.8750258,27.8600282 C58.4192966,29.3353286 57.4427341,30.5703086 56.1732029,31.35135 C57.4166925,31.2044875 58.6015883,30.8640336 59.7083591,30.363366 C58.8815362,31.6250482 57.8398696,32.739868 56.6354425,33.6277185 L56.6354425,33.6277185 Z" id="Path"></path>
                        </g>
                    </g>
                </g>
            </g>
        </g>
    </g>
</svg>
