<?xml version="1.0" encoding="UTF-8" standalone="no"?>
<svg width="38px" height="22px" viewBox="0 0 38 22" version="1.1" xmlns="http://www.w3.org/2000/svg" xmlns:xlink="http://www.w3.org/1999/xlink">
    <!-- Generator: sketchtool 39.1 (31720) - http://www.bohemiancoding.com/sketch -->
    <title>246DCEC7-6E5B-49A4-9101-225602F7FCA2</title>
    <desc>Created with sketchtool.</desc>
    <defs></defs>
    <g id="1440" stroke="none" stroke-width="1" fill="none" fill-rule="evenodd">
        <g id="Presentation-1440" transform="translate(-1002.000000, -31121.000000)" style="fill:currentColor">
            <g id="Footer-+-Share" transform="translate(-1.000000, 27966.000000)">
                <g id="social" transform="translate(208.000000, 3125.000000)">
                    <g id="vk" transform="translate(762.000000, 0.000000)">
                        <g id="normal">
                            <path d="M68.967276,47.7823219 C69.4536844,48.3706575 69.9138551,48.9779062 70.2657107,49.6608077 C70.7649016,50.6321355 70.3128041,51.7007312 69.4456113,51.7588217 L64.0560983,51.7561198 C62.665495,51.8723009 61.5567798,51.3103088 60.623656,50.3551923 C59.8775606,49.5925851 59.1859592,48.7799931 58.4687927,47.9910426 C58.174122,47.6688427 57.8666688,47.3655561 57.4986669,47.1250883 C56.7633358,46.6455037 56.1242099,46.7927564 55.7037323,47.5634692 C55.2758544,48.347016 55.1783036,49.2149967 55.1365922,50.0883811 C55.0787345,51.3629955 54.6945862,51.6980293 53.4203711,51.7561198 C50.6950038,51.8851349 48.1088987,51.4710709 45.707131,50.091083 C43.5892697,48.8745591 41.9463799,47.1568355 40.5167562,45.2121535 C37.734204,41.4261366 35.6028874,37.2652331 33.6868554,32.9881486 C33.2556136,32.0249265 33.5711399,31.5075154 34.6300706,31.4892777 C36.3886759,31.4548286 38.1466084,31.4575305 39.907232,31.4865758 C40.6223802,31.4973833 41.0953333,31.9087454 41.3711666,32.5869186 C42.322455,34.9355325 43.4863368,37.1699917 44.9475804,39.2416623 C45.336438,39.7928469 45.7333688,40.3440315 46.2984906,40.7324275 C46.9241612,41.1620273 47.3998054,41.0195029 47.6938033,40.32039 C47.8808317,39.8772808 47.9622362,39.3997226 48.0039476,38.9248662 C48.1432097,37.2915765 48.1620471,35.6609887 47.917161,34.0331028 C47.7678074,33.0171939 47.1973034,32.3599602 46.1881573,32.1674509 C45.67282,32.0695076 45.7495152,31.8769982 45.9991106,31.5818173 C46.4323707,31.0725119 46.8400657,30.7557158 47.6520919,30.7557158 L53.7432978,30.7557158 C54.7026594,30.9455232 54.9159256,31.3785004 55.0471146,32.3471263 L55.0524967,39.141017 C55.0417325,39.5159036 55.2388524,40.6290804 55.9116164,40.8769784 C56.4505005,41.0539519 56.8050471,40.6216502 57.1286466,40.2785108 C58.5871992,38.7242512 59.6279652,36.8876446 60.5577251,34.9855173 C60.9708023,34.1492838 61.3253489,33.2806277 61.6698041,32.412647 C61.9247817,31.7689228 62.3237308,31.4521268 63.0469522,31.4656362 L68.9094183,31.47104 C69.0829914,31.47104 69.2592556,31.4737418 69.4274466,31.5027871 C70.4157371,31.6716549 70.6861882,32.0985528 70.3814261,33.0671787 C69.9003998,34.5869893 68.9645849,35.853498 68.0502986,37.1254106 C67.0727724,38.4837834 66.0266243,39.7955488 65.0571712,41.1620273 C64.1664316,42.4102983 64.2370718,43.0384867 65.3437687,44.1226182 C66.5708904,45.3256327 67.866634,46.4577226 68.967276,47.7823219 Z" id="Path"></path>
                        </g>
                    </g>
                </g>
            </g>
        </g>
    </g>
</svg>
