<?xml version="1.0" encoding="UTF-8" standalone="no"?>
<svg width="153px" height="150px" viewBox="0 0 153 150" version="1.1" xmlns="http://www.w3.org/2000/svg" xmlns:xlink="http://www.w3.org/1999/xlink">
    <!-- Generator: sketchtool 39.1 (31720) - http://www.bohemiancoding.com/sketch -->
    <title>3D083F4C-A28F-44E6-84F6-4BED6A9FB3A5</title>
    <desc>Created with sketchtool.</desc>
    <defs></defs>
    <g id="1440" stroke="none" stroke-width="1" fill="none" fill-rule="evenodd">
        <g id="1" transform="translate(-767.000000, -4861.000000)">
            <g id="5---illustration" transform="translate(270.000000, 3722.000000)">
                <g id="Group-4" transform="translate(18.000000, 1139.000000)">
                    <g id="3_share" transform="translate(479.355482, 0.000000)">
                        <g id="Group">
                            <g id="bg" fill="#FF9EBE">
                                <circle id="Oval" cx="74.7508306" cy="74.7508306" r="74.7508306"></circle>
                            </g>
                            <g id="pics" transform="translate(11.960133, 19.435216)">
                                <path d="M97.7740864,56.8106312 L19.7342193,56.8106312 C16.2956811,56.8106312 13.4551495,53.9700997 13.4551495,50.5315615 L13.4551495,44.8504983 L1.79401993,44.8504983 C0.299003322,44.8504983 -0.598006645,42.9069767 0.598006645,41.8604651 L13.4551495,29.9003322 L13.4551495,6.72757475 C13.4551495,2.99003322 16.4451827,0 20.1827243,0 L98.372093,0 C101.810631,0 104.651163,2.84053156 104.651163,6.27906977 L104.651163,49.9335548 C104.651163,53.6710963 101.511628,56.8106312 97.7740864,56.8106312 L97.7740864,56.8106312 Z" id="Shape" fill="#F7F7F7"></path>
                                <path d="M111.378738,112.126246 L37.3754153,112.126246 C34.0863787,112.126246 31.3953488,109.435216 31.3953488,106.146179 L31.3953488,74.7508306 C31.3953488,71.461794 34.0863787,68.7707641 37.3754153,68.7707641 L122.591362,68.7707641 C125.880399,68.7707641 128.571429,71.461794 128.571429,74.7508306 L128.571429,90.89701 C123.189369,102.109635 111.378738,112.126246 111.378738,112.126246 L111.378738,112.126246 Z" id="Shape" fill="#F7F7F7"></path>
                                <path d="M37.3754153,68.7707641 L122.591362,68.7707641 C126.328904,68.7707641 127.82392,71.7607973 127.82392,71.7607973 C127.82392,71.7607973 128.571429,72.9568106 128.571429,74.7508306 C127.076412,71.7607973 125.581395,71.7607973 124.086379,71.7607973 L37.3754153,71.7607973 C34.3853821,71.7607973 34.3853821,74.7508306 34.3853821,74.7508306 L34.3853821,108.837209 C34.3853821,108.837209 34.5348837,110.930233 37.076412,112.126246 C31.8438538,112.126246 31.3953488,106.594684 31.3953488,106.146179 L31.3953488,74.7508306 C31.3953488,74.7508306 31.3953488,68.7707641 37.3754153,68.7707641 L37.3754153,68.7707641 Z" id="Shape" fill="#FFFFFF"></path>
                                <path d="M19.4352159,0 L98.6710963,0 C102.408638,0 103.903654,2.99003322 103.903654,2.99003322 C103.903654,2.99003322 104.651163,4.18604651 104.651163,5.98006645 C103.156146,2.99003322 101.66113,2.99003322 100.166113,2.99003322 L19.4352159,2.99003322 C16.4451827,2.99003322 16.4451827,5.98006645 16.4451827,5.98006645 L16.4451827,29.9003322 L13.4551495,29.9003322 L13.4551495,5.98006645 C13.4551495,5.98006645 13.4551495,0 19.4352159,0 L19.4352159,0 Z" id="Shape" fill="#FFFFFF"></path>
                                <path d="M59.8006645,47.8405316 C59.8006645,49.4850498 58.4551495,50.8305648 56.8106312,50.8305648 L22.4252492,50.8305648 C20.7807309,50.8305648 19.4352159,49.4850498 19.4352159,47.8405316 L19.4352159,8.97009967 C19.4352159,7.3255814 20.7807309,5.98006645 22.4252492,5.98006645 L56.8106312,5.98006645 C58.4551495,5.98006645 59.8006645,7.3255814 59.8006645,8.97009967 L59.8006645,47.8405316 L59.8006645,47.8405316 Z" id="Shape" fill="#96E3DE"></path>
                                <path d="M122.591362,100.315615 C120.498339,103.156146 117.657807,106.146179 117.657807,106.146179 L97.1760797,106.146179 C95.5315615,106.146179 94.1860465,104.800664 94.1860465,103.156146 L94.1860465,77.7408638 C94.1860465,76.0963455 95.5315615,74.7508306 97.1760797,74.7508306 L119.601329,74.7508306 C121.245847,74.7508306 122.591362,76.0963455 122.591362,77.7408638 L122.591362,100.315615 L122.591362,100.315615 Z" id="Shape" fill="#E1E2E3"></path>
                                <path d="M92.6910299,13.4551495 C92.6910299,14.3521595 92.0930233,14.9501661 91.1960133,14.9501661 L67.2757475,14.9501661 C66.3787375,14.9501661 65.7807309,14.3521595 65.7807309,13.4551495 L65.7807309,10.4651163 C65.7807309,9.56810631 66.3787375,8.97009967 67.2757475,8.97009967 L91.1960133,8.97009967 C92.0930233,8.97009967 92.6910299,9.56810631 92.6910299,10.4651163 L92.6910299,13.4551495 L92.6910299,13.4551495 Z" id="Shape" fill="#81DBD5"></path>
                                <path d="M88.2059801,35.8803987 L67.2757475,35.8803987 C66.3787375,35.8803987 65.7807309,35.282392 65.7807309,34.3853821 L65.7807309,31.3953488 C65.7807309,30.4983389 66.3787375,29.9003322 67.2757475,29.9003322 L88.2059801,29.9003322 C89.10299,29.9003322 89.7009967,30.4983389 89.7009967,31.3953488 L89.7009967,34.3853821 C89.7009967,35.282392 89.10299,35.8803987 88.2059801,35.8803987 L88.2059801,35.8803987 Z" id="Shape" fill="#81DBD5"></path>
                                <path d="M86.7109635,86.7109635 L43.3554817,86.7109635 C42.4584718,86.7109635 41.8604651,86.1129568 41.8604651,85.2159468 L41.8604651,82.2259136 C41.8604651,81.3289037 42.4584718,80.730897 43.3554817,80.730897 L86.7109635,80.730897 C87.6079734,80.730897 88.2059801,81.3289037 88.2059801,82.2259136 L88.2059801,85.2159468 C88.2059801,86.1129568 87.6079734,86.7109635 86.7109635,86.7109635 L86.7109635,86.7109635 Z" id="Shape" fill="#E1E2E3"></path>
                                <path d="M88.2059801,95.6810631 C88.2059801,96.5780731 87.6079734,97.1760797 86.7109635,97.1760797 L67.2757475,97.1760797 C66.3787375,97.1760797 65.7807309,96.5780731 65.7807309,95.6810631 L65.7807309,92.6910299 C65.7807309,91.7940199 66.3787375,91.1960133 67.2757475,91.1960133 L86.7109635,91.1960133 C87.6079734,91.1960133 88.2059801,91.7940199 88.2059801,92.6910299 L88.2059801,95.6810631 L88.2059801,95.6810631 Z" id="Shape" fill="#E1E2E3"></path>
                                <path d="M59.8006645,97.1760797 L55.3156146,97.1760797 C54.4186047,97.1760797 53.820598,96.5780731 53.820598,95.6810631 L53.820598,92.6910299 C53.820598,91.7940199 54.4186047,91.1960133 55.3156146,91.1960133 L59.8006645,91.1960133 C60.6976744,91.1960133 61.2956811,91.7940199 61.2956811,92.6910299 L61.2956811,95.6810631 C61.2956811,96.5780731 60.6976744,97.1760797 59.8006645,97.1760797 L59.8006645,97.1760797 Z" id="Shape" fill="#E1E2E3"></path>
                                <path d="M74.7508306,46.345515 L67.2757475,46.345515 C66.3787375,46.345515 65.7807309,45.7475083 65.7807309,44.8504983 L65.7807309,41.8604651 C65.7807309,40.9634551 66.3787375,40.3654485 67.2757475,40.3654485 L74.7508306,40.3654485 C75.6478405,40.3654485 76.2458472,40.9634551 76.2458472,41.8604651 L76.2458472,44.8504983 C76.2458472,45.7475083 75.6478405,46.345515 74.7508306,46.345515 L74.7508306,46.345515 Z" id="Shape" fill="#81DBD5"></path>
                                <path d="M79.2358804,25.4152824 L67.2757475,25.4152824 C66.3787375,25.4152824 65.7807309,24.8172757 65.7807309,23.9202658 L65.7807309,20.9302326 C65.7807309,20.0332226 66.3787375,19.4352159 67.2757475,19.4352159 L79.2358804,19.4352159 C80.1328904,19.4352159 80.730897,20.0332226 80.730897,20.9302326 L80.730897,23.9202658 C80.730897,24.8172757 80.1328904,25.4152824 79.2358804,25.4152824 L79.2358804,25.4152824 Z" id="Shape" fill="#81DBD5"></path>
                                <path d="M97.1760797,25.4152824 L86.7109635,25.4152824 C85.8139535,25.4152824 85.2159468,24.8172757 85.2159468,23.9202658 L85.2159468,20.9302326 C85.2159468,20.0332226 85.8139535,19.4352159 86.7109635,19.4352159 L97.1760797,19.4352159 C98.0730897,19.4352159 98.6710963,20.0332226 98.6710963,20.9302326 L98.6710963,23.9202658 C98.6710963,24.8172757 98.0730897,25.4152824 97.1760797,25.4152824 L97.1760797,25.4152824 Z" id="Shape" fill="#81DBD5"></path>
                                <path d="M0.747508306,44.551495 C1.04651163,44.7009967 1.19601329,44.8504983 1.79401993,44.8504983 C1.04651163,44.551495 1.34551495,43.9534884 1.64451827,43.8039867 C1.94352159,43.5049834 16.4451827,29.9003322 16.4451827,29.9003322 L13.4551495,29.9003322 C13.4551495,29.9003322 1.04651163,41.4119601 0.598006645,42.0099668 C1.44759205e-13,42.4584718 -0.149501661,43.8039867 0.747508306,44.551495 L0.747508306,44.551495 Z" id="Shape" fill="#FFFFFF"></path>
                                <path d="M35.8803987,50.8305648 L22.4252492,50.8305648 C19.5847176,50.8305648 19.4352159,47.8405316 19.4352159,47.8405316 L25.2657807,37.076412 C26.013289,35.730897 27.9568106,35.730897 28.7043189,37.076412 L35.8803987,50.8305648 L35.8803987,50.8305648 Z" id="Shape" fill="#72D4CD"></path>
                                <path d="M56.8106312,50.8305648 L29.9003322,50.8305648 L43.9534884,27.9568106 C45,26.1627907 47.6910299,26.1627907 48.8870432,27.9568106 L59.8006645,46.345515 L59.8006645,47.8405316 C59.8006645,47.8405316 59.6511628,50.8305648 56.8106312,50.8305648 L56.8106312,50.8305648 Z" id="Shape" fill="#72D4CD"></path>
                                <circle id="Oval" fill="#72D4CD" cx="30.6478405" cy="17.192691" r="3.73754153"></circle>
                                <circle id="Oval" fill="#FFFFFF" cx="108.388704" cy="85.9634551" r="5.23255814"></circle>
                                <path d="M39.9169435,34.3853821 L43.8039867,27.9568106 C43.8039867,27.9568106 44.551495,26.6112957 46.1960133,26.6112957 C47.3920266,26.6112957 48.2890365,27.358804 48.7375415,28.255814 C49.1860465,29.1528239 52.4750831,34.5348837 52.4750831,34.5348837 L39.9169435,34.5348837 L39.9169435,34.3853821 Z" id="Shape" fill="#D1EDEB"></path>
                                <polygon id="Shape" fill="#5CCFC5" points="29.9003322 50.8305648 33.1893688 45.5980066 32.4418605 44.2524917 28.4053156 50.8305648"></polygon>
                                <path d="M23.4717608,40.3654485 L30.3488372,40.3654485 L28.7043189,37.076412 C28.7043189,37.076412 28.255814,36.0299003 27.0598007,36.0299003 C25.8637874,36.0299003 25.2657807,37.076412 25.2657807,37.076412 L23.4717608,40.3654485 L23.4717608,40.3654485 Z" id="Shape" fill="#D1EDEB"></path>
                                <path d="M98.6710963,106.146179 L98.6710963,100.166113 C98.6710963,96.8770764 101.362126,94.1860465 104.651163,94.1860465 L112.126246,94.1860465 C115.415282,94.1860465 118.106312,96.8770764 118.106312,100.166113 L118.106312,105.548173 L117.657807,106.146179 L98.6710963,106.146179 L98.6710963,106.146179 Z" id="Shape" fill="#FFFFFF"></path>
                                <path d="M134.252492,27.807309 L133.953488,27.2093023 C133.654485,26.6112957 133.803987,26.013289 134.252492,25.5647841 C135.598007,24.3687708 136.345515,22.5747508 135.89701,20.6312292 C135.448505,18.6877076 133.953488,17.0431894 132.009967,16.5946844 C128.571429,15.8471761 125.581395,18.3887043 125.581395,21.6777409 C125.581395,23.1727575 126.328904,24.6677741 127.375415,25.5647841 C127.82392,26.013289 127.973422,26.6112957 127.674419,27.2093023 L127.375415,27.807309 C127.225914,28.255814 126.777409,28.4053156 126.328904,28.4053156 C123.33887,28.7043189 121.096346,31.2458472 121.096346,34.3853821 L121.096346,38.7209302 C121.096346,39.6179402 121.843854,40.3654485 122.740864,40.3654485 L138.737542,40.3654485 C139.634551,40.3654485 140.38206,39.6179402 140.38206,38.7209302 L140.38206,34.3853821 C140.38206,31.2458472 138.139535,28.8538206 135.149502,28.4053156 C134.850498,28.4053156 134.401993,28.1063123 134.252492,27.807309 L134.252492,27.807309 Z" id="Shape" fill="#F288AA"></path>
                                <path d="M10.7641196,76.2458472 C10.7641196,76.2458472 10.4651163,76.2458472 10.3156146,75.9468439 C10.166113,75.7973422 10.0166113,75.3488372 9.86710963,74.9003322 C9.71760797,74.6013289 9.86710963,74.3023256 10.0166113,74.3023256 C11.2126246,73.7043189 11.9601329,72.5083056 11.9601329,71.013289 C11.9601329,68.9202658 10.3156146,67.2757475 8.22259136,67.2757475 C6.12956811,67.2757475 4.48504983,68.9202658 4.48504983,71.013289 C4.48504983,72.5083056 5.23255814,73.7043189 6.42857143,74.3023256 C6.57807309,74.3023256 6.72757475,74.6013289 6.57807309,74.7508306 C6.42857143,75.0498339 6.12956811,75.6478405 5.98006645,75.7973422 C5.98006645,76.2458472 5.68106312,76.2458472 5.68106312,76.2458472 C3.28903654,76.2458472 1.49501661,78.0398671 1.49501661,80.1328904 L1.49501661,82.2259136 C1.49501661,82.8239203 2.39202658,83.7209302 2.99003322,83.7209302 L13.4551495,83.7209302 C14.0531561,83.7209302 14.9501661,82.8239203 14.9501661,82.2259136 L14.9501661,80.1328904 C14.9501661,78.0398671 13.1561462,76.2458472 10.7641196,76.2458472 L10.7641196,76.2458472 Z" id="Shape" fill="#F288AA"></path>
                            </g>
                        </g>
                    </g>
                </g>
            </g>
        </g>
    </g>
</svg>