<?xml version="1.0" encoding="UTF-8" standalone="no"?>
<svg width="75px" height="74px" viewBox="0 0 75 74" version="1.1" xmlns="http://www.w3.org/2000/svg" xmlns:xlink="http://www.w3.org/1999/xlink">
    <!-- Generator: Sketch 39.1 (31720) - http://www.bohemiancoding.com/sketch -->
    <title>rei</title>
    <desc>Created with Sketch.</desc>
    <defs></defs>
    <g id="1440" stroke="none" stroke-width="1" fill="none" fill-rule="evenodd">
        <g id="icons" transform="translate(-917.000000, -230.000000)">
            <g id="Group-3" transform="translate(310.000000, 230.000000)">
                <g id="rei" transform="translate(607.000000, 0.000000)">
                    <path d="M74.8867778,39.2571429 C74.8867778,58.4460571 59.5766111,74 40.6859444,74 C21.7952778,74 6.48511111,58.4460571 6.48511111,39.2571429 C6.48511111,20.0704 21.7952778,4.51428571 40.6859444,4.51428571 C59.5766111,4.51428571 74.8867778,20.0704 74.8867778,39.2571429" id="Fill-356" fill="#59D4CB"></path>
                    <path d="M42.7799167,74 L6.41880556,74 L6.41880556,39.2571429 L74.8867778,39.2571429 C74.8867778,59.2538286 58.3296389,74 42.7799167,74" id="Fill-371" fill="#FACE46"></path>
                    <path d="M0.00213888889,67.4531429 C0.00213888889,71.0512 2.87466667,73.9674286 6.41666667,73.9674286 C9.96294444,73.9674286 12.8354722,71.0512 12.8354722,67.4531429 C12.8354722,63.8550857 9.96294444,60.9388571 6.41666667,60.9388571 C2.87466667,60.9388571 0.00213888889,63.8550857 0.00213888889,67.4531429" id="Fill-372" fill="#F5B843"></path>
                    <path d="M42.7799167,74 L6.41880556,74 L6.41880556,60.9714286 L67.4434444,60.9714286 C67.4434444,60.9714286 57.9531944,74 42.7799167,74" id="Fill-373" fill="#F5B843"></path>
                    <polyline id="Fill-374" fill="#BA4B3D" points="46.52725 55.8056 41.0495556 50.2467429 46.52725 44.6878857 52.0049444 50.2467429 46.52725 55.8056"></polyline>
                    <path d="M71.1180556,55.1302857 L66.3076944,50.2467429 L71.78325,44.6878857 C71.78325,44.6878857 73.3852778,46.2795429 74.0397778,46.9765714 C73.1264722,51.2694857 71.1180556,55.1302857 71.1180556,55.1302857" id="Fill-375" fill="#BA4B3D"></path>
                    <polyline id="Fill-376" fill="#BA4B3D" points="21.1193889 55.8056 15.6438333 50.2467429 21.1193889 44.6878857 26.5970833 50.2467429 21.1193889 55.8056"></polyline>
                    <path d="M44.9188056,15.3714286 C44.9188056,15.3714286 42.2473333,33.4681143 27.797,33.4681143 C13.3466667,33.4681143 10.6965833,15.3714286 10.6965833,15.3714286 L10.6965833,39.2571429 L44.9423333,39.2571429 L44.9188056,15.3714286" id="Fill-377" fill="#FACE46"></path>
                    <path d="M73.9991389,31.364 C71.7468889,32.9882286 69.8154722,33.4681143 66.297,33.4681143 C51.8466667,33.4681143 49.1965833,15.3714286 49.1965833,15.3714286 L49.1965833,39.2571429 L74.8889167,39.2571429 C74.8867778,35.3225143 73.9991389,31.364 73.9991389,31.364" id="Fill-378" fill="#FACE46"></path>
                    <polygon id="Fill-379" fill="#FACE46" points="6.44233333 15.4170286 10.6965833 15.4170286 10.6965833 39.2571429 6.44233333 39.2571429"></polygon>
                    <polygon id="Fill-380" fill="#FACE46" points="44.9423333 15.4170286 49.1965833 15.4170286 49.1965833 39.2571429 44.9423333 39.2571429"></polygon>
                    <path d="M12.8354722,6.7096 C12.8354722,10.3402286 9.96294444,13.2846857 6.41880556,13.2846857 L6.41880556,0.136685714 C9.96294444,0.136685714 12.8354722,3.07897143 12.8354722,6.7096" id="Fill-381" fill="#FACE46"></path>
                    <path d="M53.5449444,6.7096 C53.5449444,10.3402286 50.64675,13.2846857 47.0705278,13.2846857 C43.4943056,13.2846857 40.5961111,10.3402286 40.5961111,6.7096 C40.5961111,3.07897143 43.4943056,0.136685714 47.0705278,0.136685714 C50.64675,0.136685714 53.5449444,3.07897143 53.5449444,6.7096" id="Fill-382" fill="#FACE46"></path>
                    <polygon id="Fill-383" fill="#FACE46" points="44.9188056 10.8027429 49.1965833 10.8027429 49.1965833 28.0612571 44.9188056 28.0612571"></polygon>
                    <polygon id="Fill-384" fill="#FACE46" points="6.43163889 10.8027429 10.7094167 10.8027429 10.7094167 28.0612571 6.43163889 28.0612571"></polygon>
                </g>
            </g>
        </g>
    </g>
</svg>