<?xml version="1.0" encoding="UTF-8" standalone="no"?>
<svg width="120px" height="130px" viewBox="0 0 120 130" version="1.1" xmlns="http://www.w3.org/2000/svg" xmlns:xlink="http://www.w3.org/1999/xlink">
    <!-- Generator: sketchtool 39.1 (31720) - http://www.bohemiancoding.com/sketch -->
    <title>F443805A-5E4F-4500-BF0C-B0257A90F379</title>
    <desc>Created with sketchtool.</desc>
    <defs></defs>
    <g id="1440" stroke="none" stroke-width="1" fill="none" fill-rule="evenodd">
        <g id="1" transform="translate(-433.000000, -5105.000000)">
            <g id="5---illustration" transform="translate(270.000000, 3722.000000)">
                <g id="price-icon" transform="translate(151.000000, 1383.000000)">
                    <g id="share">
                        <g id="circle" transform="translate(12.000000, 10.000000)" fill="#A3C8F3">
                            <circle id="Oval" cx="60" cy="60" r="60"></circle>
                        </g>
                        <g id="icons" transform="translate(12.000000, 0.000000)">
                            <path d="M83,101.5 C83,102.328 82.328,103 81.5,103 L81.5,103 C80.672,103 80,102.328 80,101.5 L80,86.5 C80,85.672 80.672,85 81.5,85 L81.5,85 C82.328,85 83,85.672 83,86.5 L83,101.5 L83,101.5 Z" id="Shape" fill="#87B4E8"></path>
                            <path d="M97,94.5 C97,95.328 96.328,96 95.5,96 L95.5,96 C94.672,96 94,95.328 94,94.5 L94,76.5 C94,75.672 94.672,75 95.5,75 L95.5,75 C96.328,75 97,75.672 97,76.5 L97,94.5 L97,94.5 Z" id="Shape" fill="#87B4E8"></path>
                            <path d="M90,80.5 C90,81.328 89.328,82 88.5,82 L88.5,82 C87.672,82 87,81.328 87,80.5 L87,73.5 C87,72.672 87.672,72 88.5,72 L88.5,72 C89.328,72 90,72.672 90,73.5 L90,80.5 L90,80.5 Z" id="Shape" fill="#87B4E8"></path>
                            <path d="M90,87.5 C90,88.328 89.328,89 88.5,89 L88.5,89 C87.672,89 87,88.328 87,87.5 L87,85.5 C87,84.672 87.672,84 88.5,84 L88.5,84 C89.328,84 90,84.672 90,85.5 L90,87.5 L90,87.5 Z" id="Shape" fill="#87B4E8"></path>
                            <path d="M37,87.5 C37,88.328 37.672,89 38.5,89 L38.5,89 C39.328,89 40,88.328 40,87.5 L40,78.5 C40,77.672 39.328,77 38.5,77 L38.5,77 C37.672,77 37,77.672 37,78.5 L37,87.5 L37,87.5 Z" id="Shape" fill="#87B4E8"></path>
                            <path d="M23,73.5 C23,74.328 23.672,75 24.5,75 L24.5,75 C25.328,75 26,74.328 26,73.5 L26,66.5 C26,65.672 25.328,65 24.5,65 L24.5,65 C23.672,65 23,65.672 23,66.5 L23,73.5 L23,73.5 Z" id="Shape" fill="#87B4E8"></path>
                            <path d="M23,80.5 C23,81.328 23.672,82 24.5,82 L24.5,82 C25.328,82 26,81.328 26,80.5 L26,78.5 C26,77.672 25.328,77 24.5,77 L24.5,77 C23.672,77 23,77.672 23,78.5 L23,80.5 L23,80.5 Z" id="Shape" fill="#87B4E8"></path>
                            <polygon id="Shape" fill="#FFFFFF" points="69.104 98 66.766 85 69.504 83.344 72.17 98"></polygon>
                            <path d="M30,101.5 C30,102.328 30.672,103 31.5,103 L31.5,103 C32.328,103 33,102.328 33,101.5 L33,81.5 C33,80.672 32.328,80 31.5,80 L31.5,80 C30.672,80 30,80.672 30,81.5 L30,101.5 L30,101.5 Z" id="Shape" fill="#87B4E8"></path>
                            <path d="M93.764,19.417 C86.104,4.438 73.833,0.125 60,0.125 L60,78 L72.951,77.978 C73.767,76.832 93.317,58 96,38 C96.853,31.646 96.871,25.493 93.764,19.417 L93.764,19.417 Z" id="Shape" fill="#FFFFFF"></path>
                            <path d="M73,100 L60,100 L60,111 L60,116 L60,119 L69,119 C71.209,119 73,117.209 73,115 L73,114.993 L73,114.993 L73,100 L73,100 Z" id="Shape" fill="#F2C280"></path>
                            <path d="M68.068,78 C70.713,70.342 77.349,49.972 77.349,34.619 C77.349,26.027 76.086,10.822 72.211,1.529 C68.937,0.719 66.136,0.382 63.742,0.237 C66.766,30.167 63.344,69.562 63,78 L68.068,78 L68.068,78 Z" id="Shape" fill="#ED5564"></path>
                            <path d="M72.951,77.978 C78.162,70.91 90.75,52.938 93,37 C94.08,29.35 92.562,19.5 89.832,13.134 C87.25,9.75 83.088,6.175 81.596,5.524 C83.656,11.492 86.875,19.625 86,37 C85.314,50.62 74.55,70.488 70.281,78 C71.125,78 71.562,77.978 72.951,77.978 L72.951,77.978 Z" id="Shape" fill="#ED5564"></path>
                            <path d="M67,116 L64,116 C63.448,116 63,115.553 63,115 C63,114.447 63.448,114 64,114 L67,114 C67.805,114 67.988,113.45 68,112.988 L68,109 C68,108.447 68.448,108 69,108 C69.552,108 70,108.447 70,109 L70,113 C70,114.206 69.201,116 67,116 L67,116 Z" id="Shape" fill="#FFE0B5"></path>
                            <path d="M73,82 C73,83.657 71.657,85 70,85 L60,85 L60,78 L73,78 L73,82 L73,82 Z" id="Shape" fill="#DE4B5A"></path>
                            <path d="M75.913,107.312 L75.919,107.31 L74.219,102 L73,102 L73,105 L73,111 C74.657,111 76,109.657 76,108 C76,107.762 75.965,107.533 75.913,107.312 L75.913,107.312 Z" id="Shape" fill="#C99958"></path>
                            <path d="M76,100.031 C76,101.118 75.119,102 74.031,102 L60,102 L60,98 L74.031,98 C75.119,98 76,98.882 76,99.969 L76,100.031 L76,100.031 Z" id="Shape" fill="#F2C280"></path>
                            <rect id="Rectangle-path" fill="#E8B36B" x="60" y="102" width="13" height="3"></rect>
                            <polygon id="Shape" fill="#FFFFFF" points="50.896 98 53.234 85 50.496 83.344 47.83 98"></polygon>
                            <path d="M47,100 L60,100 L60,111 L60,116 L60,119 L51,119 C48.791,119 47,117.209 47,115 L47,114.993 L47,114.993 L47,100 L47,100 Z" id="Shape" fill="#F2C280"></path>
                            <path d="M44.087,107.312 L44.081,107.31 L45.782,102 L47,102 L47,105 L47,111 C45.343,111 44,109.657 44,108 C44,107.762 44.035,107.533 44.087,107.312 L44.087,107.312 Z" id="Shape" fill="#C99958"></path>
                            <path d="M44,100.031 C44,101.118 44.881,102 45.969,102 L60,102 L60,98 L45.969,98 C44.881,98 44,98.882 44,99.969 L44,100.031 L44,100.031 Z" id="Shape" fill="#F2C280"></path>
                            <rect id="Rectangle-path" fill="#E8B36B" x="47" y="102" width="13" height="3"></rect>
                            <path d="M47,82 C47,83.657 48.343,85 50,85 L60,85 L60,78 L47,78 L47,82 L47,82 Z" id="Shape" fill="#DE4B5A"></path>
                            <path d="M116.998,51.259 C115.864,50.468 114.487,50 113,50 C109.135,50 106,53.135 106,57 C106,58.395 106.413,59.691 107.116,60.783 C103.522,62.299 101,65.854 101,70 C101,75.523 105.478,80 111,80 C111.034,80 111.067,79.995 111.102,79.995 C111.035,80.319 111,80.655 111,81 C111,83.762 113.239,86 116,86 C116.687,86 117.341,85.86 117.937,85.61 C119.274,80.631 120,75.401 120,70 C120,63.453 118.937,57.158 116.998,51.259 L116.998,51.259 Z" id="Shape" fill="#FFFFFF"></path>
                            <path d="M23,93 C23,86.688 19.417,81 11,81 C8.605,81 6.707,81.883 4.87,83.143 C4.082,81.599 2.616,80.469 0.867,80.122 C3.127,93.416 9.751,105.218 19.224,114 C20.17,113.29 20.79,112.17 20.79,110.896 C20.79,108.745 19.045,107 16.894,107 C16.524,107 16.174,107.068 15.835,107.164 C15.787,105.82 15.414,104.56 14.785,103.462 C19.403,101.994 23,98.104 23,93 L23,93 Z" id="Shape" fill="#FFFFFF"></path>
                            <polygon id="Shape" fill="#DE4B5A" points="93.125 36 86.104 36 86.152 33 93.313 33"></polygon>
                            <polygon id="Shape" fill="#DE4B5A" points="77.332 36 64.923 36 64.96 33 77.35 33"></polygon>
                            <path d="M26.481,19.417 C34.142,4.438 47,0.125 60,0.125 L60,78 L47.294,77.978 C46.479,76.832 26.928,58 24.245,38 C23.393,31.646 23.374,25.493 26.481,19.417 L26.481,19.417 Z" id="Shape" fill="#FFFFFF"></path>
                            <path d="M52.422,78 C49.777,70.342 43.141,49.972 43.141,34.619 C43.141,26.027 44.404,10.822 48.279,1.529 C51.553,0.719 54.354,0.382 56.748,0.237 C53.725,30.167 57.146,69.562 57.49,78 L52.422,78 L52.422,78 Z" id="Shape" fill="#ED5564"></path>
                            <path d="M47.539,77.978 C42.328,70.91 29.74,52.938 27.49,37 C26.41,29.35 27.928,19.5 30.658,13.134 C33.24,9.75 37.402,6.175 38.894,5.524 C36.834,11.492 33.615,19.625 34.49,37 C35.176,50.62 45.94,70.488 50.209,78 C49.365,78 48.928,77.978 47.539,77.978 L47.539,77.978 Z" id="Shape" fill="#ED5564"></path>
                            <polygon id="Shape" fill="#DE4B5A" points="27.365 36 34.387 36 34.338 33 27.177 33"></polygon>
                            <polygon id="Shape" fill="#DE4B5A" points="43.158 36 55.567 36 55.53 33 43.14 33"></polygon>
                        </g>
                    </g>
                </g>
            </g>
        </g>
    </g>
</svg>