<?xml version="1.0" encoding="UTF-8" standalone="no"?>
<svg width="120px" height="140px" viewBox="0 0 120 140" version="1.1" xmlns="http://www.w3.org/2000/svg" xmlns:xlink="http://www.w3.org/1999/xlink">
    <!-- Generator: sketchtool 39.1 (31720) - http://www.bohemiancoding.com/sketch -->
    <title>798F970D-3607-4CBE-97BE-17DFEF50C2A1</title>
    <desc>Created with sketchtool.</desc>
    <defs></defs>
    <g id="1440" stroke="none" stroke-width="1" fill="none" fill-rule="evenodd">
        <g id="1" transform="translate(-901.000000, -5105.000000)">
            <g id="5---illustration" transform="translate(270.000000, 3722.000000)">
                <g id="price-icon" transform="translate(151.000000, 1383.000000)">
                    <g id="vavem" transform="translate(468.000000, 0.000000)">
                        <g id="circle" transform="translate(12.000000, 10.000000)" fill="#B29CD0">
                            <circle id="Oval" cx="60" cy="60" r="60"></circle>
                        </g>
                        <g id="icons" transform="translate(12.000000, 0.000000)">
                            <path d="M13,92.5 C13,93.328 12.328,94 11.5,94 L11.5,94 C10.672,94 10,93.328 10,92.5 L10,80.5 C10,79.672 10.672,79 11.5,79 L11.5,79 C12.328,79 13,79.672 13,80.5 L13,92.5 L13,92.5 Z" id="Shape" fill="#A28AC4"></path>
                            <path d="M28.876,95.203 C28.885,95.042 28.9,94.882 28.9,94.719 C28.9,89.948 25.032,86.082 20.263,86.082 C18.515,86.082 16.891,86.605 15.531,87.498 C14.327,85.881 12.406,84.828 10.234,84.828 C10.183,84.828 10.133,84.835 10.083,84.836 C10.028,81.441 7.264,78.707 3.857,78.707 C2.729,78.707 1.674,79.011 0.762,79.535 C1.732,85.605 3.615,91.368 6.261,96.685 C6.385,96.78 6.546,97.091 6.498,97.149 C8.175,100.447 10.143,103.57 12.377,106.481 C12.48,106.456 12.605,106.617 12.564,106.719 C14.709,109.485 17.077,112.068 19.663,114.418 C22.011,113.71 23.728,111.56 23.799,108.999 C23.799,108.999 24.543,109.208 25,108.532 C25.438,108.812 26.685,109.041 27.607,109.041 C31.461,109.041 34.587,105.916 34.587,102.062 C34.588,98.641 32.124,95.8 28.876,95.203 L28.876,95.203 Z" id="Shape" fill="#FFFFFF"></path>
                            <path d="M96,99.5 C96,100.328 95.328,101 94.5,101 L94.5,101 C93.672,101 93,100.328 93,99.5 L93,68.5 C93,67.671 93.672,67 94.5,67 L94.5,67 C95.328,67 96,67.671 96,68.5 L96,99.5 L96,99.5 Z" id="Shape" fill="#A28AC4"></path>
                            <path d="M119.117,77.041 C114.732,77.041 111.179,80.595 111.179,84.979 C111.179,85.65 111.272,86.298 111.428,86.92 C109.275,87.982 107.666,89.975 107.13,92.377 C105.541,91.647 103.779,91.229 101.917,91.229 C98.59,91.229 95.573,92.537 93.332,94.656 C92.036,93.367 90.442,92.381 88.666,91.797 C89.237,90.844 89.571,89.733 89.571,88.54 C89.571,85.03 86.727,82.186 83.217,82.186 C79.708,82.186 76.862,85.031 76.862,88.54 C76.862,90.278 77.562,91.852 78.693,93 C75.329,95.096 73.083,98.818 73.083,103.073 C73.083,109.632 78.4,114.949 84.959,114.949 C86.764,114.949 88.47,114.542 90,113.82 L90,120 L93.162,120 C107.48,110.484 117.467,94.986 119.571,77.07 C119.42,77.062 119.271,77.041 119.117,77.041 L119.117,77.041 Z" id="Shape" fill="#FFFFFF"></path>
                            <circle id="Oval" cx="60" cy="76" r="60"></circle>
                            <path d="M76,97.689 L76,37 C76,34 77.001,31 81,31 C84.999,31 86,34 86,37 L86,108.686 L76,97.689 L76,97.689 Z" id="Shape" fill="#E1E2E3"></path>
                            <rect id="Rectangle-path" fill="#7F8896" x="73" y="74" width="3" height="3"></rect>
                            <rect id="Rectangle-path" fill="#7F8896" x="73" y="53" width="3" height="3"></rect>
                            <rect id="Rectangle-path" fill="#7F8896" x="44" y="74" width="3" height="3"></rect>
                            <rect id="Rectangle-path" fill="#7F8896" x="44" y="53" width="3" height="3"></rect>
                            <path d="M60,0 C59,0 47,0.733 47,23 L47,128 L60,128 L73,128 L73,23 C73,0.733 61,0 60,0 L60,0 Z" id="Shape" fill="#ED5564"></path>
                            <path d="M68,40 C67.447,40 67,39.552 67,39 L67,22 C67,17.914 66.02,14.094 64.087,10.645 C63.816,10.164 63.988,9.554 64.47,9.284 C64.955,9.013 65.562,9.186 65.831,9.667 C67.934,13.418 69,17.567 69,22 L69,39 C69,39.552 68.553,40 68,40 L68,40 Z" id="Shape" fill="#FF7A88"></path>
                            <path d="M71,86.539 C72,91.229 75.393,97.643 83.931,104.742 C88.843,108.826 92.963,114.085 96,116.875 C97.644,118.382 98,119.744 98,121.875 C93.396,126.009 89.896,128 89.896,128 L71,128 L71,86.539 L71,86.539 Z" id="Shape" fill="#FFFFFF"></path>
                            <polygon id="Shape" fill="#E6E6E6" points="74 128 71 128 71 95.854 74 97"></polygon>
                            <path d="M97.139,115.479 C94.101,112.689 88.947,108.827 84.035,104.743 C75.496,97.644 72,91.229 71,86.539 L71,95.73 C73,99.655 75.393,103.141 83.931,110.24 C88.843,114.324 91.832,116.325 94.869,119.114 C95.614,119.798 96.001,120.358 96.001,121.125 C97.439,121.578 98.685,121.858 100.001,120.725 C100,118.594 98.78,116.985 97.139,115.479 L97.139,115.479 Z" id="Shape" fill="#7F8896"></path>
                            <rect id="Rectangle-path" fill="#6F5D87" x="71" y="130" width="15" height="4"></rect>
                            <path d="M81,129 L81,130 C81,132.209 82.791,134 85,134 L87,134 C89.209,134 91,132.209 91,130 L91,129 L81,129 L81,129 Z" id="Shape" fill="#6F5D87"></path>
                            <path d="M94.018,131 L72.194,131 L71.447,128 L99.896,128 C97.354,129.542 94.018,131 94.018,131 L94.018,131 Z" id="Shape" fill="#7F8896"></path>
                            <path d="M100,127 C100,129.209 98.209,131 96,131 L91,131 C88.791,131 87,129.209 87,127 L87,125 C87,122.791 88.791,121 91,121 L96,121 L100,120.725 L100,127 L100,127 Z" id="Shape" fill="#7F8896"></path>
                            <path d="M96,61.5 C96,62.329 95.328,63 94.5,63 L94.5,63 C93.672,63 93,62.329 93,61.5 L93,51.5 C93,50.671 93.672,50 94.5,50 L94.5,50 C95.328,50 96,50.671 96,51.5 L96,61.5 L96,61.5 Z" id="Shape" fill="#A28AC4"></path>
                            <path d="M103,79.5 C103,80.328 102.328,81 101.5,81 L101.5,81 C100.672,81 100,80.328 100,79.5 L100,60.5 C100,59.671 100.672,59 101.5,59 L101.5,59 C102.328,59 103,59.671 103,60.5 L103,79.5 L103,79.5 Z" id="Shape" fill="#A28AC4"></path>
                            <path d="M107.7,90.713 C107.326,90.44 107,89.998 107,89.5 L107,55.5 C107,54.671 107.672,54 108.5,54 L108.5,54 C109.328,54 110,54.671 110,55.5 L110,87.822 C110,87.822 108.411,89.125 107.7,90.713 L107.7,90.713 Z" id="Shape" fill="#A28AC4"></path>
                            <path d="M103,86.5 C103,87.328 102.328,88 101.5,88 L101.5,88 C100.672,88 100,87.328 100,86.5 L100,85.5 C100,84.672 100.672,84 101.5,84 L101.5,84 C102.328,84 103,84.672 103,85.5 L103,86.5 L103,86.5 Z" id="Shape" fill="#A28AC4"></path>
                            <path d="M20,68.5 C20,69.328 19.328,70 18.5,70 L18.5,70 C17.672,70 17,69.328 17,68.5 L17,59.5 C17,58.671 17.672,58 18.5,58 L18.5,58 C19.328,58 20,58.671 20,59.5 L20,68.5 L20,68.5 Z" id="Shape" fill="#A28AC4"></path>
                            <path d="M20,76.5 C20,77.328 19.328,78 18.5,78 L18.5,78 C17.672,78 17,77.328 17,76.5 L17,74.5 C17,73.672 17.672,73 18.5,73 L18.5,73 C19.328,73 20,73.672 20,74.5 L20,76.5 L20,76.5 Z" id="Shape" fill="#A28AC4"></path>
                            <path d="M27,83.5 C27,84.328 26.328,85 25.5,85 L25.5,85 C24.672,85 24,84.328 24,83.5 L24,51.5 C24,50.671 24.672,50 25.5,50 L25.5,50 C26.328,50 27,50.671 27,51.5 L27,83.5 L27,83.5 Z" id="Shape" fill="#A28AC4"></path>
                            <path d="M44,97.689 L44,37 C44,34 42.999,31 39,31 C35.001,31 34,34 34,37 L34,108.686 L44,97.689 L44,97.689 Z" id="Shape" fill="#E1E2E3"></path>
                            <path d="M42,96.062 C42,96.58 41.58,97 41.062,97 L40.937,97 C40.42,97 40,96.58 40,96.062 L40,35.938 C40,35.42 40.42,35 40.938,35 L41.063,35 C41.58,35 42,35.42 42,35.938 L42,96.062 L42,96.062 Z" id="Shape" fill="#F3F4F5"></path>
                            <path d="M84,96.062 C84,96.58 83.58,97 83.062,97 L82.937,97 C82.42,97 82,96.58 82,96.062 L82,35.938 C82,35.42 82.42,35 82.938,35 L83.063,35 C83.58,35 84,35.42 84,35.938 L84,96.062 L84,96.062 Z" id="Shape" fill="#F3F4F5"></path>
                            <rect id="Rectangle-path" fill="#C0C1C2" x="76" y="53" width="10" height="3"></rect>
                            <rect id="Rectangle-path" fill="#C0C1C2" x="76" y="74" width="10" height="3"></rect>
                            <rect id="Rectangle-path" fill="#C0C1C2" x="34" y="53" width="10" height="3"></rect>
                            <rect id="Rectangle-path" fill="#C0C1C2" x="34" y="74" width="10" height="3"></rect>
                            <rect id="Rectangle-path" fill="#DE4B5A" x="47" y="43" width="26" height="3"></rect>
                            <path d="M96,126 C96,127.104 95.104,128 94,128 L85,128 L85,126 L85,123 C85,121.896 85.896,120 87,120 L94,120 L96,121 L96,126 L96,126 Z" id="Shape" fill="#FFFFFF"></path>
                            <path d="M49,86.539 C48,91.229 44.607,97.643 36.069,104.742 C31.157,108.826 26.599,114.022 23.562,116.812 C21.918,118.319 21.25,119.931 21.25,122.062 C25.854,126.196 30.104,128 30.104,128 L49,128 L49,86.539 L49,86.539 Z" id="Shape" fill="#FFFFFF"></path>
                            <polygon id="Shape" fill="#E6E6E6" points="46 128 49 128 49 95.854 46 97"></polygon>
                            <path d="M22.861,115.479 C25.899,112.689 31.053,108.827 35.965,104.743 C44.504,97.644 48,91.229 49,86.539 L49,95.73 C47,99.655 44.607,103.141 36.069,110.24 C31.157,114.324 28.168,116.325 25.131,119.114 C24.386,119.798 23.999,120.358 23.999,121.125 C22.561,121.578 21.315,121.858 19.999,120.725 C20,118.594 21.22,116.985 22.861,115.479 L22.861,115.479 Z" id="Shape" fill="#7F8896"></path>
                            <rect id="Rectangle-path" fill="#6F5D87" x="34" y="130" width="15" height="4"></rect>
                            <path d="M39,129 L39,130 C39,132.209 37.209,134 35,134 L33,134 C30.791,134 29,132.209 29,130 L29,129 L39,129 L39,129 Z" id="Shape" fill="#6F5D87"></path>
                            <path d="M25.982,131 L47.805,131 L48.552,128 L20.103,128 C22.646,129.542 25.982,131 25.982,131 L25.982,131 Z" id="Shape" fill="#7F8896"></path>
                            <path d="M20,127 C20,129.209 21.791,131 24,131 L29,131 C31.209,131 33,129.209 33,127 L33,125 C33,122.791 31.209,121 29,121 L24,121 L20,120.725 L20,127 L20,127 Z" id="Shape" fill="#7F8896"></path>
                            <path d="M24,126 C24,127.104 24.896,128 26,128 L35,128 L35,126 L35,123 C35,121.896 34.104,120 33,120 L26,120 L24,121 L24,126 L24,126 Z" id="Shape" fill="#FFFFFF"></path>
                            <path d="M60,33.526 C60,33.526 71,31.188 71,57.004 L71,126.279 C71,126.279 72.968,133.65 73.744,138.204 C73.858,138.875 73.625,140 71.938,140 L60,140 L60,33.526 L60,33.526 Z" id="Shape" fill="#F7F7F7"></path>
                            <path d="M60,33.526 C60,33.526 49,31.188 49,57.004 L49,126.279 C49,126.279 46.917,133.65 46.141,138.204 C46.027,138.875 46.145,140 47.831,140 L60,140 L60,33.526 L60,33.526 Z" id="Shape" fill="#FFFFFF"></path>
                            <path d="M61,43.208 L61,45.703 C61,46.203 61.532,46.31 61.532,46.31 L66.437,47.267 C66.437,47.267 66.999,47.359 66.999,46.797 L66.999,44.891 C66.999,44.407 66.376,44.316 66.376,44.316 L61.802,42.69 C61.803,42.689 61,42.354 61,43.208 L61,43.208 Z" id="Shape" fill="#7F8896"></path>
                            <path d="M59,43.208 L59,45.703 C59,46.203 58.468,46.31 58.468,46.31 L53.563,47.267 C53.563,47.267 53.001,47.359 53.001,46.797 L53.001,44.891 C53.001,44.407 53.624,44.316 53.624,44.316 L58.198,42.69 C58.197,42.689 59,42.354 59,43.208 L59,43.208 Z" id="Shape" fill="#7F8896"></path>
                            <path d="M60,31.031 C50.688,31.031 49.361,47.041 49.124,52.48 C51.33,41.213 54.542,34.219 60,34.219 C65.458,34.219 68.67,41.214 70.876,52.48 C70.639,47.042 69.312,31.031 60,31.031 L60,31.031 Z" id="Shape" fill="#7F8896"></path>
                        </g>
                    </g>
                </g>
            </g>
        </g>
    </g>
</svg>