<?xml version="1.0" encoding="UTF-8" standalone="no"?>
<svg width="19px" height="20px" viewBox="0 0 19 20" version="1.1" xmlns="http://www.w3.org/2000/svg" xmlns:xlink="http://www.w3.org/1999/xlink">
    <!-- Generator: Sketch 39.1 (31720) - http://www.bohemiancoding.com/sketch -->
    <title>Group 4</title>
    <desc>Created with Sketch.</desc>
    <defs></defs>
    <g id="1440" stroke="none" stroke-width="1" fill="none" fill-rule="evenodd">
        <g id="icons" transform="translate(-334.000000, -110.000000)" fill="#FFFFFF">
            <g id="Group-29" transform="translate(184.000000, 109.000000)">
                <g id="Group-4" transform="translate(150.000000, 1.000000)">
                    <path d="M4.68995931,6.82323407 L4.68995931,15.5396883 C4.68995931,16.3407168 5.52059874,17.363082 6.17142285,17.363082 L12.6031753,17.363082 C13.2526576,17.363082 14.083297,16.3407168 14.083297,15.5396883 L14.083297,6.82323407 L4.68995931,6.82323407 L4.68995931,6.82323407 Z M12.6031753,19.998044 L6.17142285,19.998044 C3.82577224,19.998044 2.00614855,17.6015461 2.00614855,15.5396883 L2.00614855,5.50575308 C2.00614855,4.77850357 2.60598025,4.18827208 3.34805393,4.18827208 L15.4252024,4.18827208 C16.167276,4.18827208 16.7671077,4.77850357 16.7671077,5.50575308 L16.7671077,15.5396883 C16.7671077,17.6015461 14.947484,19.998044 12.6031753,19.998044 L12.6031753,19.998044 Z" id="Fill-393"></path>
                    <path d="M16.9912059,6.82323407 L1.78205035,6.82323407 C1.03997667,6.82323407 0.440144965,6.23432007 0.440144965,5.50575308 C0.440144965,4.77850357 1.03997667,4.18827208 1.78205035,4.18827208 L16.9912059,4.18827208 C17.7332796,4.18827208 18.3331113,4.77850357 18.3331113,5.50575308 C18.3331113,6.23432007 17.7332796,6.82323407 16.9912059,6.82323407" id="Fill-395"></path>
                    <path d="M12.7413916,2.87079109 L6.03186469,2.87079109 C5.28979102,2.87079109 4.68995931,2.28187708 4.68995931,1.55331009 C4.68995931,0.826060583 5.28979102,0.235829098 6.03186469,0.235829098 L12.7413916,0.235829098 C13.4834653,0.235829098 14.083297,0.826060583 14.083297,1.55331009 C14.083297,2.28187708 13.4834653,2.87079109 12.7413916,2.87079109" id="Fill-396"></path>
                    <path d="M6.03186469,6.82323407 C5.28979102,6.82323407 4.68995931,6.23432007 4.68995931,5.50575308 L4.68995931,1.55331009 C4.68995931,0.826060583 5.28979102,0.235829098 6.03186469,0.235829098 C6.77393837,0.235829098 7.37377007,0.826060583 7.37377007,1.55331009 L7.37377007,5.50575308 C7.37377007,6.23432007 6.77393837,6.82323407 6.03186469,6.82323407" id="Fill-397"></path>
                    <path d="M12.7413916,6.82323407 C11.9993179,6.82323407 11.3994862,6.23432007 11.3994862,5.50575308 L11.3994862,1.55331009 C11.3994862,0.826060583 11.9993179,0.235829098 12.7413916,0.235829098 C13.4834653,0.235829098 14.083297,0.826060583 14.083297,1.55331009 L14.083297,5.50575308 C14.083297,6.23432007 13.4834653,6.82323407 12.7413916,6.82323407" id="Fill-398"></path>
                </g>
            </g>
        </g>
    </g>
</svg>
