<?xml version="1.0" encoding="UTF-8" standalone="no"?>
<svg width="19px" height="19px" viewBox="0 0 19 19" version="1.1" xmlns="http://www.w3.org/2000/svg" xmlns:xlink="http://www.w3.org/1999/xlink">
    <!-- Generator: Sketch 39.1 (31720) - http://www.bohemiancoding.com/sketch -->
    <title>Group</title>
    <desc>Created with Sketch.</desc>
    <defs></defs>
    <g id="1440" stroke="none" stroke-width="1" fill="none" fill-rule="evenodd">
        <g id="icons" transform="translate(-184.000000, -111.000000)" fill="#FFFFFF">
            <g id="Group-29" transform="translate(184.000000, 109.000000)">
                <g id="Group" transform="translate(0.000000, 2.000000)">
                    <path d="M4.72083085,12.8994564 L13.7518541,12.8994564 L12.9520785,12.060221 C12.7212707,11.816487 12.5911059,11.4950217 12.5911059,11.1603815 L12.5911059,5.54264254 C12.5911059,4.10527078 12.19256,2.63496199 9.23634246,2.63496199 C6.2801249,2.63496199 5.881579,4.10527078 5.881579,5.54264254 L5.881579,11.1603815 C5.881579,11.4950217 5.75141418,11.816487 5.52060645,12.060221 L4.72083085,12.8994564 L4.72083085,12.8994564 Z M11.0942929,15.5344184 L16.8677584,15.5344184 C17.6084901,15.5344184 18.2096637,14.9455044 18.2096637,14.2169374 C18.2096637,13.7887561 18.0003265,13.4080041 17.6782692,13.1669051 L15.2749167,10.641294 L15.2749167,5.54264254 C15.2749167,2.01969836 13.0728499,0 9.23634246,0 C5.39983497,0 3.19776824,2.01969836 3.19776824,5.54264254 L3.19776824,10.641294 L0.652173728,13.3184154 C0.285833558,13.7018023 0.187874465,14.2617318 0.401237421,14.7426123 C0.613258471,15.2234929 1.09768631,15.5344184 1.63176466,15.5344184 L7.37839205,15.5344184 C7.31445257,15.7241908 7.27984441,15.9270532 7.27984441,16.1378247 C7.27984441,17.1997144 8.15610862,18.058712 9.23634246,18.058712 C10.3165763,18.058712 11.1928405,17.1997144 11.1928405,16.1378247 C11.1928405,15.9270532 11.1582323,15.7241908 11.0942929,15.5344184 Z" id="Fill-387"></path>
                    <polygon id="Fill-391" points="8.34120714 14.4922909 10.2512071 14.4922909 10.2512071 16.5370214 8.34120714 16.5370214"></polygon>
                </g>
            </g>
        </g>
    </g>
</svg>
