<?xml version="1.0" encoding="UTF-8" standalone="no"?>
<svg width="20px" height="22px" viewBox="0 0 20 22" version="1.1" xmlns="http://www.w3.org/2000/svg" xmlns:xlink="http://www.w3.org/1999/xlink">
    <!-- Generator: Sketch 39.1 (31720) - http://www.bohemiancoding.com/sketch -->
    <title>Group 11</title>
    <desc>Created with Sketch.</desc>
    <defs></defs>
    <g id="1440" stroke="none" stroke-width="1" fill="none" fill-rule="evenodd">
        <g id="icons" transform="translate(-691.000000, -109.000000)" fill="#FFFFFF">
            <g id="Group-29" transform="translate(184.000000, 109.000000)">
                <g id="Group-11" transform="translate(507.000000, 0.000000)">
                    <path d="M3.27424913,18.4789884 L16.9133754,18.4789884 C16.2746285,15.7254531 13.6928025,13.1748099 10.0938123,13.1748099 C6.49348014,13.1748099 3.91165419,15.7254531 3.27424913,18.4789884 L3.27424913,18.4789884 Z M18.4095999,21.1139504 L1.77802463,21.1139504 C1.03595095,21.1139504 0.436119249,20.5250364 0.436119249,19.7964694 C0.436119249,15.3262564 4.31556771,10.539848 10.0938123,10.539848 C15.870715,10.539848 19.7515053,15.3262564 19.7515053,19.7964694 C19.7515053,20.5250364 19.1516736,21.1139504 18.4095999,21.1139504 L18.4095999,21.1139504 Z" id="Fill-385"></path>
                    <path d="M9.66977018,2.63496199 C8.2782143,2.63496199 7.14564616,3.74559847 7.14564616,5.11182626 C7.14564616,6.47937153 8.2782143,7.59000801 9.66977018,7.59000801 C11.0613261,7.59000801 12.1938942,6.47937153 12.1938942,5.11182626 C12.1938942,3.74559847 11.0613261,2.63496199 9.66977018,2.63496199 L9.66977018,2.63496199 Z M9.66977018,10.22497 C6.79809266,10.22497 4.46183539,7.93123559 4.46183539,5.11182626 C4.46183539,2.29241693 6.79809266,0 9.66977018,0 C12.5401058,0 14.877705,2.29241693 14.877705,5.11182626 C14.877705,7.93123559 12.5401058,10.22497 9.66977018,10.22497 L9.66977018,10.22497 Z" id="Fill-386"></path>
                </g>
            </g>
        </g>
    </g>
</svg>
