<?xml version="1.0" encoding="UTF-8" standalone="no"?>
<svg width="21px" height="21px" viewBox="0 0 21 21" version="1.1" xmlns="http://www.w3.org/2000/svg" xmlns:xlink="http://www.w3.org/1999/xlink">
    <!-- Generator: Sketch 39.1 (31720) - http://www.bohemiancoding.com/sketch -->
    <title>Group 2</title>
    <desc>Created with Sketch.</desc>
    <defs></defs>
    <g id="1440" stroke="none" stroke-width="1" fill="none" fill-rule="evenodd">
        <g id="icons" transform="translate(-233.000000, -110.000000)" fill="#FFFFFF">
            <g id="Group-29" transform="translate(184.000000, 109.000000)">
                <g id="Group-2" transform="translate(49.000000, 1.000000)">
                    <path d="M9.76228493,18.2431593 L11.1323703,18.2576516 C11.2705866,17.749104 11.4410086,16.9559804 11.4410086,16.9559804 C11.5121296,16.6252927 11.7509887,16.3552091 12.0717041,16.2366358 C12.597731,16.0442835 13.2727094,15.76893 13.4444733,15.6688015 C13.7772658,15.4711793 14.1972822,15.4804017 14.5193395,15.6925161 C14.823952,15.8901383 15.4143904,16.2300484 15.7257125,16.4065908 L16.7267739,15.4250675 C16.4114261,14.9455044 15.9618878,14.2287947 15.9618878,14.2287947 C15.7981753,13.9679335 15.7659696,13.6504206 15.8760059,13.3632097 C15.8760059,13.3632097 16.3496985,12.1379524 16.5053595,11.8309793 C16.6247891,11.5977852 16.8327844,11.4199253 17.0850626,11.336924 C17.278297,11.2736849 18.3035127,10.9917439 18.5947062,10.9113776 L18.5947062,9.33303536 C18.3249832,9.25003406 17.2809808,8.96150572 17.0850626,8.89826664 C16.8327844,8.81526533 16.6247891,8.6374054 16.5053595,8.40421126 C16.3496985,8.09723819 15.8760059,6.87066339 15.8760059,6.87066339 C15.7659696,6.58345253 15.7981753,6.26462213 15.9618878,6.00376089 C15.9618878,6.00376089 16.4141099,5.28441627 16.7281158,4.80748815 L15.7243705,3.82596481 C15.4734342,3.97088772 14.838713,4.33451247 14.5193395,4.54267447 C14.1972822,4.75478891 13.7772658,4.76269379 13.4444733,4.56638913 C13.2727094,4.46494309 12.5963891,4.19090704 12.073046,3.99723734 C11.7509887,3.87998153 11.5134715,3.60858044 11.4410086,3.2792102 C11.4410086,3.27394027 11.2732704,2.49662648 11.136396,1.99071378 L9.76631065,1.97753897 C9.6294363,2.47949923 9.45767241,3.27394027 9.45633051,3.2792102 C9.38386762,3.60858044 9.14635036,3.87998153 8.82563498,3.99723734 C8.30094997,4.19090704 7.62597157,4.46494309 7.45420768,4.56638913 C7.12141514,4.76269379 6.70005685,4.75478891 6.37799956,4.54267447 C6.07338704,4.34505232 5.48294867,4.00514222 5.17296853,3.82859977 L4.17190711,4.81012311 C4.48591297,5.28836871 4.93545128,6.00507837 4.93545128,6.00507837 C5.09916373,6.26593961 5.13002756,6.58345253 5.01999132,6.8693459 C5.01999132,6.8693459 4.54898253,8.09723819 4.3933215,8.40421126 C4.27389192,8.6374054 4.06455468,8.81526533 3.81227647,8.89826664 C3.6190421,8.96150572 2.59516829,9.24344666 2.30263292,9.323813 L2.30263292,10.9021552 C2.5723559,10.9851565 3.61635829,11.2723674 3.81227647,11.336924 C4.06455468,11.4199253 4.27389192,11.5977852 4.3933215,11.8309793 C4.54898253,12.1379524 5.01999132,13.3645272 5.01999132,13.3645272 C5.13002756,13.6504206 5.09916373,13.9679335 4.93545128,14.2287947 C4.93545128,14.2287947 4.48188726,14.9534093 4.1678814,15.4316549 L5.17296853,16.4092258 C5.42256293,16.2643029 6.05996799,15.9006781 6.37799956,15.6925161 C6.70005685,15.4804017 7.12141514,15.4711793 7.45420768,15.6688015 C7.62597157,15.7702475 8.30229188,16.0442835 8.82429307,16.2366358 C9.14635036,16.3552091 9.38386762,16.6266101 9.45633051,16.9559804 C9.45767241,16.9612503 9.62541059,17.7385641 9.76228493,18.2431593 L9.76228493,18.2431593 Z M11.2558256,20.2351906 L9.64553917,20.2351906 C8.92225217,20.1627291 8.11845084,19.7872471 7.87019835,18.9466942 C7.78834212,18.6647532 7.6850154,18.233937 7.60584299,17.8927094 C7.41529242,17.817613 7.19790375,17.7306592 6.99661794,17.6437055 C6.51755772,17.9282814 5.96871842,18.2352544 5.96871842,18.2352544 C5.56212109,18.4223367 4.49664822,18.5382751 3.95183463,18.0033778 L2.56162066,16.639785 C2.07853472,16.0759031 1.87188129,15.2498425 2.36436056,14.5278629 C2.5227054,14.2933513 2.7722998,13.9020595 2.96150846,13.6043087 C2.897097,13.4396236 2.8232922,13.2525413 2.75619694,13.0891737 C2.30934244,12.964013 1.68669835,12.7940579 1.68535644,12.7940579 C1.13785905,12.616198 0.289774844,12.0694434 0.289774844,11.0510306 L0.289774844,9.18284253 C0.289774844,8.16706468 1.13651714,7.61899259 1.63704785,7.45562495 C1.67193739,7.4450851 2.30531673,7.27249509 2.75619694,7.14469943 C2.8232922,6.98133179 2.897097,6.79424949 2.96150846,6.62956436 C2.7722998,6.33181366 2.5227054,5.94183928 2.36301866,5.70469271 C1.87188129,4.98271312 2.07853472,4.15797002 2.49989301,3.66127968 L3.95451844,2.22917784 C4.24168619,1.94723691 4.64023209,1.79177415 5.07500944,1.79177415 C5.46147819,1.79177415 5.77816786,1.91034744 5.86539171,1.94723691 C5.94053841,1.98412638 6.51084819,2.30427426 6.99527604,2.59148512 C7.19790375,2.50453137 7.41529242,2.41757762 7.60584299,2.34116373 C7.6850154,2.00125363 7.78834212,1.57175483 7.87019835,1.29113137 C8.11845084,0.447943538 8.92225217,0.0724614547 9.53416102,0.00526992398 L11.2558256,0 C11.861025,0.0592866447 12.768153,0.391291855 13.0284826,1.29376634 C13.1103389,1.57307231 13.2136656,2.00257111 13.2914961,2.34116373 C13.4833886,2.41757762 13.6994353,2.50453137 13.902063,2.59148512 C14.3811233,2.30690922 14.9286207,1.99861867 14.9286207,1.99861867 C15.3338761,1.81153637 16.399349,1.69559804 16.9441625,2.23049532 L18.3357184,3.59672311 C18.8201463,4.15797002 19.0267997,4.98271312 18.5356623,5.70601019 C18.3759756,5.94183928 18.1250393,6.33181366 17.9358306,6.62956436 C18.0002421,6.79424949 18.0740469,6.98133179 18.142484,7.14469943 C18.5893385,7.27117761 19.2106407,7.44113266 19.2119826,7.44113266 C19.7621638,7.61899259 20.6075642,8.16706468 20.6075642,9.18284253 L20.6075642,11.0510306 C20.6075642,12.0694434 19.7608219,12.616198 19.2602912,12.7795656 C19.2254017,12.7901055 18.5920223,12.9626955 18.142484,13.0891737 C18.0740469,13.2525413 18.0002421,13.4396236 17.9358306,13.6043087 C18.1250393,13.9033769 18.3759756,14.2933513 18.5356623,14.5291804 C19.0267997,15.2498425 18.8201463,16.0759031 18.3974461,16.5725934 L16.9414787,18.0073302 C16.6569948,18.2879537 16.257107,18.4434164 15.8223296,18.4434164 C15.4358609,18.4434164 15.1205131,18.3235257 15.0319474,18.2879537 C14.9581426,18.2510642 14.3878328,17.9309163 13.902063,17.642388 C13.6994353,17.7306592 13.4833886,17.817613 13.2914961,17.8927094 C13.2136656,18.233937 13.1103389,18.6634358 13.0271407,18.9440592 C12.768153,19.8438987 11.861025,20.1759039 11.3658619,20.2299207 L11.2558256,20.2351906 L11.2558256,20.2351906 Z M10.4493405,8.01423689 C9.22820659,8.01423689 8.2338547,8.99049031 8.2338547,10.189398 C8.2338547,11.3883057 9.22820659,12.3632417 10.4493405,12.3632417 C11.6704744,12.3632417 12.6648263,11.3883057 12.6648263,10.189398 C12.6648263,8.99049031 11.6704744,8.01423689 10.4493405,8.01423689 L10.4493405,8.01423689 Z M10.4493405,14.3394631 C8.11845084,14.3394631 6.22099663,12.4778625 6.22099663,10.189398 C6.22099663,7.90093352 8.11845084,6.0380154 10.4493405,6.0380154 C12.781572,6.0380154 14.6776843,7.90093352 14.6776843,10.189398 C14.6776843,12.4778625 12.781572,14.3394631 10.4493405,14.3394631 L10.4493405,14.3394631 Z" id="Fill-389"></path>
                </g>
            </g>
        </g>
    </g>
</svg>
